abc1.ufo
<glyph name="B" format="2">
  <advance width="1339"/>
  <unicode hex="0042"/>
  <outline>
    <contour>
      <point x="1153" y="1096" type="qcurve" smooth="yes"/>
      <point x="1153" y="1027"/>
      <point x="1114" y="923"/>
      <point x="1046" y="845"/>
      <point x="953" y="792"/>
      <point x="899" y="774" type="qcurve"/>
      <point x="899" y="766" type="line"/>
      <point x="969" y="754"/>
      <point x="1085" y="696"/>
      <point x="1168" y="603"/>
      <point x="1214" y="476"/>
      <point x="1214" y="395" type="qcurve" smooth="yes"/>
      <point x="1214" y="197"/>
      <point x="954" y="0"/>
      <point x="688" y="0" type="qcurve" smooth="yes"/>
      <point x="78" y="0" type="line"/>
      <point x="78" y="86" type="line"/>
      <point x="104" y="86" type="line" smooth="yes"/>
      <point x="139" y="86"/>
      <point x="200" y="96"/>
      <point x="246" y="127"/>
      <point x="272" y="185"/>
      <point x="272" y="233" type="qcurve" smooth="yes"/>
      <point x="272" y="1237" type="line" smooth="yes"/>
      <point x="272" y="1282"/>
      <point x="245" y="1337"/>
      <point x="199" y="1367"/>
      <point x="138" y="1376"/>
      <point x="104" y="1376" type="qcurve" smooth="yes"/>
      <point x="78" y="1376" type="line"/>
      <point x="78" y="1462" type="line"/>
      <point x="627" y="1462" type="line" smooth="yes"/>
      <point x="893" y="1462"/>
      <point x="1153" y="1285"/>
    </contour>
    <contour>
      <point x="479" y="102" type="line"/>
      <point x="678" y="102" type="line" smooth="yes"/>
      <point x="765" y="102"/>
      <point x="885" y="134"/>
      <point x="961" y="205"/>
      <point x="995" y="319"/>
      <point x="995" y="401" type="qcurve" smooth="yes"/>
      <point x="995" y="481"/>
      <point x="965" y="599"/>
      <point x="892" y="677"/>
      <point x="772" y="715"/>
      <point x="682" y="715" type="qcurve" smooth="yes"/>
      <point x="479" y="715" type="line"/>
    </contour>
    <contour>
      <point x="479" y="817" type="line"/>
      <point x="621" y="817" type="line" smooth="yes"/>
      <point x="711" y="817"/>
      <point x="831" y="849"/>
      <point x="903" y="916"/>
      <point x="934" y="1022"/>
      <point x="934" y="1096" type="qcurve" smooth="yes"/>
      <point x="934" y="1171"/>
      <point x="900" y="1272"/>
      <point x="824" y="1334"/>
      <point x="703" y="1360"/>
      <point x="616" y="1360" type="qcurve" smooth="yes"/>
      <point x="479" y="1360" type="line"/>
    </contour>
  </outline>
</glyph>
<glyph name="E" format="2">
  <advance width="1276"/>
  <unicode hex="0045"/>
  <outline>
    <contour>
      <point x="479" y="102" type="line"/>
      <point x="874" y="102" type="line" smooth="yes"/>
      <point x="923" y="102"/>
      <point x="992" y="129"/>
      <point x="1038" y="175"/>
      <point x="1064" y="236"/>
      <point x="1069" y="270" type="qcurve" smooth="yes"/>
      <point x="1083" y="358" type="line"/>
      <point x="1190" y="358" type="line"/>
      <point x="1176" y="0" type="line"/>
      <point x="78" y="0" type="line"/>
      <point x="78" y="86" type="line"/>
      <point x="104" y="86" type="line" smooth="yes"/>
      <point x="138" y="86"/>
      <point x="199" y="95"/>
      <point x="245" y="123"/>
      <point x="272" y="178"/>
      <point x="272" y="223" type="qcurve" smooth="yes"/>
      <point x="272" y="1229" type="line" smooth="yes"/>
      <point x="272" y="1277"/>
      <point x="246" y="1335"/>
      <point x="200" y="1366"/>
      <point x="139" y="1376"/>
      <point x="104" y="1376" type="qcurve" smooth="yes"/>
      <point x="78" y="1376" type="line"/>
      <point x="78" y="1462" type="line"/>
      <point x="1110" y="1462" type="line"/>
      <point x="1120" y="1104" type="line"/>
      <point x="1014" y="1104" type="line"/>
      <point x="1004" y="1192" type="line" smooth="yes"/>
      <point x="1000" y="1226"/>
      <point x="977" y="1287"/>
      <point x="934" y="1333"/>
      <point x="869" y="1360"/>
      <point x="823" y="1360" type="qcurve" smooth="yes"/>
      <point x="479" y="1360" type="line"/>
      <point x="479" y="815" type="line"/>
      <point x="973" y="815" type="line"/>
      <point x="973" y="715" type="line"/>
      <point x="479" y="715" type="line"/>
    </contour>
  </outline>
</glyph>
<glyph name="M" format="2">
  <advance width="1921"/>
  <unicode hex="004D"/>
  <outline>
    <contour>
      <point x="1298" y="0" type="line"/>
      <point x="1298" y="86" type="line"/>
      <point x="1305" y="86" type="line" smooth="yes"/>
      <point x="1338" y="86"/>
      <point x="1391" y="95"/>
      <point x="1428" y="122"/>
      <point x="1450" y="173"/>
      <point x="1452" y="215" type="qcurve" smooth="yes"/>
      <point x="1452" y="1309" type="line"/>
      <point x="983" y="0" type="line"/>
      <point x="872" y="0" type="line"/>
      <point x="397" y="1305" type="line"/>
      <point x="397" y="233" type="line" smooth="yes"/>
      <point x="397" y="185"/>
      <point x="417" y="127"/>
      <point x="456" y="96"/>
      <point x="511" y="86"/>
      <point x="545" y="86" type="qcurve" smooth="yes"/>
      <point x="551" y="86" type="line"/>
      <point x="551" y="0" type="line"/>
      <point x="78" y="0" type="line"/>
      <point x="78" y="86" type="line"/>
      <point x="104" y="86" type="line" smooth="yes"/>
      <point x="138" y="86"/>
      <point x="199" y="95"/>
      <point x="245" y="123"/>
      <point x="272" y="178"/>
      <point x="272" y="223" type="qcurve" smooth="yes"/>
      <point x="272" y="1237" type="line" smooth="yes"/>
      <point x="272" y="1282"/>
      <point x="245" y="1337"/>
      <point x="199" y="1367"/>
      <point x="138" y="1376"/>
      <point x="104" y="1376" type="qcurve" smooth="yes"/>
      <point x="78" y="1376" type="line"/>
      <point x="78" y="1462" type="line"/>
      <point x="545" y="1462" type="line"/>
      <point x="969" y="291" type="line"/>
      <point x="1389" y="1462" type="line"/>
      <point x="1843" y="1462" type="line"/>
      <point x="1843" y="1376" type="line"/>
      <point x="1817" y="1376" type="line" smooth="yes"/>
      <point x="1782" y="1376"/>
      <point x="1721" y="1366"/>
      <point x="1675" y="1335"/>
      <point x="1649" y="1277"/>
      <point x="1649" y="1229" type="qcurve" smooth="yes"/>
      <point x="1649" y="233" type="line" smooth="yes"/>
      <point x="1649" y="185"/>
      <point x="1675" y="127"/>
      <point x="1721" y="96"/>
      <point x="1782" y="86"/>
      <point x="1817" y="86" type="qcurve" smooth="yes"/>
      <point x="1843" y="86" type="line"/>
      <point x="1843" y="0" type="line"/>
    </contour>
  </outline>
</glyph>
<glyph name="Q" format="2">
  <advance width="1520"/>
  <unicode hex="0051"/>
  <outline>
    <contour>
      <point x="1403" y="733" type="qcurve" smooth="yes"/>
      <point x="1403" y="583"/>
      <point x="1337" y="331"/>
      <point x="1208" y="139"/>
      <point x="1019" y="14"/>
      <point x="897" y="-8" type="qcurve"/>
      <point x="906" y="-113"/>
      <point x="956" y="-254"/>
      <point x="1034" y="-339"/>
      <point x="1138" y="-375"/>
      <point x="1200" y="-375" type="qcurve" smooth="yes"/>
      <point x="1233" y="-375" type="line"/>
      <point x="1233" y="-471" type="line"/>
      <point x="1145" y="-471" type="line" smooth="yes"/>
      <point x="1064" y="-471"/>
      <point x="903" y="-428"/>
      <point x="771" y="-323"/>
      <point x="682" y="-148"/>
      <point x="672" y="-16" type="qcurve"/>
      <point x="531" y="-1"/>
      <point x="322" y="118"/>
      <point x="184" y="313"/>
      <point x="115" y="576"/>
      <point x="115" y="735" type="qcurve" smooth="yes"/>
      <point x="115" y="905"/>
      <point x="195" y="1182"/>
      <point x="355" y="1378"/>
      <point x="599" y="1485"/>
      <point x="762" y="1485" type="qcurve" smooth="yes"/>
      <point x="917" y="1485"/>
      <point x="1155" y="1378"/>
      <point x="1319" y="1181"/>
      <point x="1403" y="904"/>
    </contour>
    <contour>
      <point x="342" y="733" type="qcurve" smooth="yes"/>
      <point x="342" y="581"/>
      <point x="387" y="342"/>
      <point x="487" y="177"/>
      <point x="646" y="90"/>
      <point x="760" y="90" type="qcurve" smooth="yes"/>
      <point x="874" y="90"/>
      <point x="1033" y="177"/>
      <point x="1132" y="342"/>
      <point x="1176" y="581"/>
      <point x="1176" y="733" type="qcurve" smooth="yes"/>
      <point x="1176" y="885"/>
      <point x="1132" y="1124"/>
      <point x="1033" y="1288"/>
      <point x="876" y="1374"/>
      <point x="762" y="1374" type="qcurve" smooth="yes"/>
      <point x="648" y="1374"/>
      <point x="488" y="1288"/>
      <point x="387" y="1124"/>
      <point x="342" y="885"/>
    </contour>
  </outline>
</glyph>
<glyph name="R" format="2">
  <advance width="1343"/>
  <unicode hex="0052"/>
  <outline>
    <contour>
      <point x="1135" y="250" type="line" smooth="yes"/>
      <point x="1187" y="168"/>
      <point x="1285" y="86"/>
      <point x="1350" y="86" type="qcurve" smooth="yes"/>
      <point x="1356" y="86" type="line"/>
      <point x="1356" y="0" type="line"/>
      <point x="1327" y="0" type="line" smooth="yes"/>
      <point x="1231" y="0"/>
      <point x="1108" y="14"/>
      <point x="1022" y="54"/>
      <point x="961" y="126"/>
      <point x="926" y="184" type="qcurve" smooth="yes"/>
      <point x="649" y="645" type="line"/>
      <point x="479" y="645" type="line"/>
      <point x="479" y="223" type="line" smooth="yes"/>
      <point x="479" y="178"/>
      <point x="506" y="123"/>
      <point x="552" y="95"/>
      <point x="613" y="86"/>
      <point x="647" y="86" type="qcurve" smooth="yes"/>
      <point x="674" y="86" type="line"/>
      <point x="674" y="0" type="line"/>
      <point x="78" y="0" type="line"/>
      <point x="78" y="86" type="line"/>
      <point x="104" y="86" type="line" smooth="yes"/>
      <point x="138" y="86"/>
      <point x="199" y="95"/>
      <point x="245" y="123"/>
      <point x="272" y="178"/>
      <point x="272" y="223" type="qcurve" smooth="yes"/>
      <point x="272" y="1237" type="line" smooth="yes"/>
      <point x="272" y="1282"/>
      <point x="245" y="1337"/>
      <point x="199" y="1367"/>
      <point x="138" y="1376"/>
      <point x="104" y="1376" type="qcurve" smooth="yes"/>
      <point x="78" y="1376" type="line"/>
      <point x="78" y="1462" type="line"/>
      <point x="629" y="1462" type="line" smooth="yes"/>
      <point x="895" y="1462"/>
      <point x="1155" y="1265"/>
      <point x="1155" y="1067" type="qcurve" smooth="yes"/>
      <point x="1155" y="985"/>
      <point x="1102" y="862"/>
      <point x="1016" y="772"/>
      <point x="908" y="712"/>
      <point x="854" y="694" type="qcurve"/>
    </contour>
    <contour>
      <point x="479" y="741" type="line"/>
      <point x="623" y="741" type="line" smooth="yes"/>
      <point x="713" y="741"/>
      <point x="833" y="781"/>
      <point x="905" y="861"/>
      <point x="936" y="981"/>
      <point x="936" y="1061" type="qcurve" smooth="yes"/>
      <point x="936" y="1143"/>
      <point x="902" y="1258"/>
      <point x="826" y="1331"/>
      <point x="705" y="1364"/>
      <point x="618" y="1364" type="qcurve" smooth="yes"/>
      <point x="479" y="1364" type="line"/>
    </contour>
  </outline>
</glyph>
<glyph name="V" format="2">
  <advance width="1382"/>
  <unicode hex="0056"/>
  <outline>
    <contour>
      <point x="614" y="0" type="line"/>
      <point x="172" y="1268" type="line" smooth="yes"/>
      <point x="161" y="1300"/>
      <point x="135" y="1342"/>
      <point x="101" y="1366"/>
      <point x="57" y="1376"/>
      <point x="27" y="1376" type="qcurve" smooth="yes"/>
      <point x="0" y="1376" type="line"/>
      <point x="0" y="1462" type="line"/>
      <point x="563" y="1462" type="line"/>
      <point x="563" y="1376" type="line"/>
      <point x="516" y="1376" type="line" smooth="yes"/>
      <point x="454" y="1376"/>
      <point x="393" y="1329"/>
      <point x="393" y="1278" type="qcurve" smooth="yes"/>
      <point x="393" y="1261"/>
      <point x="402" y="1225"/>
      <point x="410" y="1202" type="qcurve" smooth="yes"/>
      <point x="635" y="537" type="line" smooth="yes"/>
      <point x="666" y="446"/>
      <point x="710" y="275"/>
      <point x="727" y="201" type="qcurve"/>
      <point x="743" y="275"/>
      <point x="787" y="441"/>
      <point x="821" y="537" type="qcurve" smooth="yes"/>
      <point x="1047" y="1188" type="line" smooth="yes"/>
      <point x="1055" y="1213"/>
      <point x="1065" y="1259"/>
      <point x="1065" y="1276" type="qcurve" smooth="yes"/>
      <point x="1065" y="1329"/>
      <point x="998" y="1376"/>
      <point x="930" y="1376" type="qcurve" smooth="yes"/>
      <point x="883" y="1376" type="line"/>
      <point x="883" y="1462" type="line"/>
      <point x="1382" y="1462" type="line"/>
      <point x="1382" y="1376" type="line"/>
      <point x="1343" y="1376" type="line" smooth="yes"/>
      <point x="1313" y="1376"/>
      <point x="1270" y="1364"/>
      <point x="1235" y="1329"/>
      <point x="1205" y="1267"/>
      <point x="1188" y="1217" type="qcurve" smooth="yes"/>
      <point x="764" y="0" type="line"/>
    </contour>
  </outline>
</glyph>
<glyph name="W" format="2">
  <advance width="2144"/>
  <unicode hex="0057"/>
  <outline>
    <contour>
      <point x="1180" y="1448" type="line"/>
      <point x="1436" y="561" type="line" smooth="yes"/>
      <point x="1465" y="459"/>
      <point x="1510" y="272"/>
      <point x="1524" y="201" type="qcurve"/>
      <point x="1539" y="275"/>
      <point x="1578" y="438"/>
      <point x="1606" y="537" type="qcurve" smooth="yes"/>
      <point x="1786" y="1169" type="line" smooth="yes"/>
      <point x="1789" y="1181"/>
      <point x="1797" y="1211"/>
      <point x="1803" y="1241"/>
      <point x="1808" y="1267"/>
      <point x="1808" y="1276" type="qcurve" smooth="yes"/>
      <point x="1808" y="1329"/>
      <point x="1741" y="1376"/>
      <point x="1673" y="1376" type="qcurve" smooth="yes"/>
      <point x="1626" y="1376" type="line"/>
      <point x="1626" y="1462" type="line"/>
      <point x="2126" y="1462" type="line"/>
      <point x="2126" y="1376" type="line"/>
      <point x="2087" y="1376" type="line" smooth="yes"/>
      <point x="2057" y="1376"/>
      <point x="2012" y="1364"/>
      <point x="1976" y="1330"/>
      <point x="1946" y="1268"/>
      <point x="1931" y="1217" type="qcurve" smooth="yes"/>
      <point x="1585" y="0" type="line"/>
      <point x="1401" y="0" type="line"/>
      <point x="1067" y="1147" type="line"/>
      <point x="754" y="0" type="line"/>
      <point x="565" y="0" type="line"/>
      <point x="190" y="1268" type="line" smooth="yes"/>
      <point x="180" y="1300"/>
      <point x="155" y="1342"/>
      <point x="121" y="1366"/>
      <point x="75" y="1376"/>
      <point x="45" y="1376" type="qcurve" smooth="yes"/>
      <point x="18" y="1376" type="line"/>
      <point x="18" y="1462" type="line"/>
      <point x="582" y="1462" type="line"/>
      <point x="582" y="1376" type="line"/>
      <point x="535" y="1376" type="line" smooth="yes"/>
      <point x="473" y="1376"/>
      <point x="412" y="1329"/>
      <point x="412" y="1278" type="qcurve" smooth="yes"/>
      <point x="412" y="1261"/>
      <point x="422" y="1225"/>
      <point x="428" y="1202" type="qcurve" smooth="yes"/>
      <point x="616" y="547" type="line" smooth="yes"/>
      <point x="642" y="454"/>
      <point x="688" y="275"/>
      <point x="705" y="201" type="qcurve"/>
      <point x="720" y="281"/>
      <point x="761" y="470"/>
      <point x="788" y="569" type="qcurve" smooth="yes"/>
      <point x="1032" y="1448" type="line"/>
    </contour>
  </outline>
</glyph>
<glyph name="Y" format="2">
  <advance width="1280"/>
  <unicode hex="0059"/>
  <outline>
    <contour>
      <point x="326" y="0" type="line"/>
      <point x="326" y="86" type="line"/>
      <point x="373" y="86" type="line" smooth="yes"/>
      <point x="407" y="86"/>
      <point x="468" y="95"/>
      <point x="514" y="123"/>
      <point x="541" y="178"/>
      <point x="541" y="223" type="qcurve" smooth="yes"/>
      <point x="541" y="610" type="line"/>
      <point x="162" y="1268" type="line" smooth="yes"/>
      <point x="145" y="1297"/>
      <point x="115" y="1338"/>
      <point x="82" y="1364"/>
      <point x="42" y="1376"/>
      <point x="16" y="1376" type="qcurve" smooth="yes"/>
      <point x="-10" y="1376" type="line"/>
      <point x="-10" y="1462" type="line"/>
      <point x="553" y="1462" type="line"/>
      <point x="553" y="1376" type="line"/>
      <point x="477" y="1376" type="line" smooth="yes"/>
      <point x="449" y="1376"/>
      <point x="414" y="1366"/>
      <point x="394" y="1348"/>
      <point x="387" y="1324"/>
      <point x="387" y="1311" type="qcurve" smooth="yes"/>
      <point x="387" y="1282"/>
      <point x="412" y="1224"/>
      <point x="424" y="1202" type="qcurve" smooth="yes"/>
      <point x="575" y="928" type="line" smooth="yes"/>
      <point x="611" y="865"/>
      <point x="661" y="742"/>
      <point x="678" y="694" type="qcurve"/>
      <point x="687" y="716"/>
      <point x="714" y="770"/>
      <point x="747" y="831"/>
      <point x="783" y="896"/>
      <point x="801" y="928" type="qcurve" smooth="yes"/>
      <point x="932" y="1163" type="line" smooth="yes"/>
      <point x="952" y="1198"/>
      <point x="969" y="1261"/>
      <point x="969" y="1286" type="qcurve" smooth="yes"/>
      <point x="969" y="1331"/>
      <point x="905" y="1376"/>
      <point x="846" y="1376" type="qcurve" smooth="yes"/>
      <point x="786" y="1376" type="line"/>
      <point x="786" y="1462" type="line"/>
      <point x="1286" y="1462" type="line"/>
      <point x="1286" y="1376" type="line"/>
      <point x="1262" y="1376" type="line" smooth="yes"/>
      <point x="1240" y="1376"/>
      <point x="1201" y="1361"/>
      <point x="1161" y="1324"/>
      <point x="1118" y="1263"/>
      <point x="1092" y="1217" type="qcurve" smooth="yes"/>
      <point x="748" y="610" type="line"/>
      <point x="748" y="233" type="line" smooth="yes"/>
      <point x="748" y="185"/>
      <point x="774" y="127"/>
      <point x="820" y="96"/>
      <point x="881" y="86"/>
      <point x="915" y="86" type="qcurve" smooth="yes"/>
      <point x="963" y="86" type="line"/>
      <point x="963" y="0" type="line"/>
    </contour>
  </outline>
</glyph>
<glyph name="backslash" format="2">
  <advance width="590"/>
  <unicode hex="005C"/>
  <outline>
    <contour>
      <point x="0" y="1556" type="line"/>
      <point x="119" y="1556" type="line"/>
      <point x="590" y="-248" type="line"/>
      <point x="469" y="-248" type="line"/>
    </contour>
  </outline>
</glyph>
<glyph name="bracketright" format="2">
  <advance width="737"/>
  <unicode hex="005D"/>
  <outline>
    <contour>
      <point x="76" y="-262" type="line"/>
      <point x="76" y="-176" type="line"/>
      <point x="164" y="-176" type="line" smooth="yes"/>
      <point x="199" y="-176"/>
      <point x="260" y="-166"/>
      <point x="305" y="-135"/>
      <point x="332" y="-77"/>
      <point x="332" y="-29" type="qcurve" smooth="yes"/>
      <point x="332" y="1323" type="line" smooth="yes"/>
      <point x="332" y="1371"/>
      <point x="305" y="1429"/>
      <point x="260" y="1460"/>
      <point x="199" y="1470"/>
      <point x="164" y="1470" type="qcurve" smooth="yes"/>
      <point x="76" y="1470" type="line"/>
      <point x="76" y="1556" type="line"/>
      <point x="532" y="1556" type="line"/>
      <point x="532" y="-262" type="line"/>
    </contour>
  </outline>
</glyph>
<glyph name="f" format="2">
  <advance width="756"/>
  <unicode hex="0066"/>
  <outline>
    <contour>
      <point x="688" y="86" type="line"/>
      <point x="688" y="0" type="line"/>
      <point x="55" y="0" type="line"/>
      <point x="55" y="86" type="line"/>
      <point x="82" y="86" type="line" smooth="yes"/>
      <point x="117" y="86"/>
      <point x="178" y="96"/>
      <point x="223" y="127"/>
      <point x="250" y="185"/>
      <point x="250" y="233" type="qcurve" smooth="yes"/>
      <point x="250" y="1001" type="line"/>
      <point x="63" y="1001" type="line"/>
      <point x="63" y="1098" type="line"/>
      <point x="250" y="1098" type="line"/>
      <point x="250" y="1200" type="line" smooth="yes"/>
      <point x="250" y="1292"/>
      <point x="300" y="1432"/>
      <point x="394" y="1528"/>
      <point x="528" y="1577"/>
      <point x="612" y="1577" type="qcurve" smooth="yes"/>
      <point x="692" y="1577"/>
      <point x="802" y="1556"/>
      <point x="869" y="1518"/>
      <point x="899" y="1466"/>
      <point x="899" y="1434" type="qcurve" smooth="yes"/>
      <point x="899" y="1406"/>
      <point x="874" y="1363"/>
      <point x="829" y="1334"/>
      <point x="768" y="1319"/>
      <point x="731" y="1319" type="qcurve"/>
      <point x="731" y="1350"/>
      <point x="718" y="1409"/>
      <point x="687" y="1455"/>
      <point x="635" y="1483"/>
      <point x="596" y="1483" type="qcurve" smooth="yes"/>
      <point x="552" y="1483"/>
      <point x="493" y="1449"/>
      <point x="457" y="1382"/>
      <point x="442" y="1284"/>
      <point x="442" y="1219" type="qcurve" smooth="yes"/>
      <point x="442" y="1098" type="line"/>
      <point x="731" y="1098" type="line"/>
      <point x="731" y="1001" type="line"/>
      <point x="442" y="1001" type="line"/>
      <point x="442" y="233" type="line" smooth="yes"/>
      <point x="442" y="185"/>
      <point x="469" y="127"/>
      <point x="514" y="96"/>
      <point x="576" y="86"/>
      <point x="610" y="86" type="qcurve" smooth="yes"/>
    </contour>
  </outline>
</glyph>
<glyph name="n" format="2">
  <advance width="1321"/>
  <unicode hex="006E"/>
  <outline>
    <contour>
      <point x="608" y="86" type="line"/>
      <point x="608" y="0" type="line"/>
      <point x="57" y="0" type="line"/>
      <point x="57" y="86" type="line"/>
      <point x="74" y="86" type="line" smooth="yes"/>
      <point x="109" y="86"/>
      <point x="170" y="96"/>
      <point x="215" y="127"/>
      <point x="242" y="185"/>
      <point x="242" y="233" type="qcurve" smooth="yes"/>
      <point x="242" y="872" type="line" smooth="yes"/>
      <point x="242" y="917"/>
      <point x="215" y="972"/>
      <point x="169" y="1002"/>
      <point x="108" y="1012"/>
      <point x="74" y="1012" type="qcurve" smooth="yes"/>
      <point x="68" y="1012" type="line"/>
      <point x="68" y="1098" type="line"/>
      <point x="399" y="1098" type="line"/>
      <point x="426" y="932" type="line"/>
      <point x="436" y="932" type="line"/>
      <point x="468" y="989"/>
      <point x="539" y="1062"/>
      <point x="618" y="1103"/>
      <point x="707" y="1118"/>
      <point x="756" y="1118" type="qcurve" smooth="yes"/>
      <point x="837" y="1118"/>
      <point x="964" y="1071"/>
      <point x="1053" y="974"/>
      <point x="1100" y="822"/>
      <point x="1100" y="717" type="qcurve" smooth="yes"/>
      <point x="1100" y="233" type="line" smooth="yes"/>
      <point x="1100" y="185"/>
      <point x="1123" y="127"/>
      <point x="1165" y="96"/>
      <point x="1223" y="86"/>
      <point x="1257" y="86" type="qcurve" smooth="yes"/>
      <point x="1264" y="86" type="line"/>
      <point x="1264" y="0" type="line"/>
      <point x="907" y="0" type="line"/>
      <point x="907" y="707" type="line" smooth="yes"/>
      <point x="907" y="774"/>
      <point x="883" y="878"/>
      <point x="830" y="950"/>
      <point x="744" y="987"/>
      <point x="682" y="987" type="qcurve" smooth="yes"/>
      <point x="612" y="987"/>
      <point x="517" y="933"/>
      <point x="459" y="841"/>
      <point x="434" y="721"/>
      <point x="434" y="655" type="qcurve" smooth="yes"/>
      <point x="434" y="223" type="line" smooth="yes"/>
      <point x="434" y="178"/>
      <point x="461" y="123"/>
      <point x="507" y="95"/>
      <point x="568" y="86"/>
      <point x="602" y="86" type="qcurve" smooth="yes"/>
    </contour>
  </outline>
</glyph>
<glyph name="section" format="2">
  <advance width="1114"/>
  <unicode hex="00A7"/>
  <outline>
    <contour>
      <point x="598" y="795" type="qcurve" smooth="yes"/>
      <point x="524" y="830"/>
      <point x="395" y="898"/>
      <point x="342" y="940" type="qcurve"/>
      <point x="320" y="920"/>
      <point x="291" y="864"/>
      <point x="291" y="823" type="qcurve" smooth="yes"/>
      <point x="291" y="782"/>
      <point x="319" y="717"/>
      <point x="387" y="654"/>
      <point x="502" y="588"/>
      <point x="590" y="545" type="qcurve" smooth="yes"/>
      <point x="652" y="514"/>
      <point x="772" y="451"/>
      <point x="821" y="408" type="qcurve"/>
      <point x="838" y="432"/>
      <point x="860" y="490"/>
      <point x="860" y="524" type="qcurve" smooth="yes"/>
      <point x="860" y="559"/>
      <point x="840" y="621"/>
      <point x="783" y="685"/>
      <point x="680" y="754"/>
    </contour>
    <contour>
      <point x="571" y="-133" type="qcurve" smooth="yes"/>
      <point x="697" y="-133"/>
      <point x="821" y="-22"/>
      <point x="821" y="72" type="qcurve" smooth="yes"/>
      <point x="821" y="117"/>
      <point x="799" y="184"/>
      <point x="724" y="251"/>
      <point x="581" y="332"/>
      <point x="461" y="391" type="qcurve" smooth="yes"/>
      <point x="380" y="431"/>
      <point x="265" y="514"/>
      <point x="193" y="606"/>
      <point x="160" y="711"/>
      <point x="160" y="772" type="qcurve" smooth="yes"/>
      <point x="160" y="849"/>
      <point x="228" y="964"/>
      <point x="281" y="1001" type="qcurve"/>
      <point x="243" y="1046"/>
      <point x="205" y="1157"/>
      <point x="205" y="1231" type="qcurve" smooth="yes"/>
      <point x="205" y="1309"/>
      <point x="262" y="1430"/>
      <point x="362" y="1513"/>
      <point x="501" y="1556"/>
      <point x="582" y="1556" type="qcurve" smooth="yes"/>
      <point x="666" y="1556"/>
      <point x="791" y="1521"/>
      <point x="874" y="1460"/>
      <point x="915" y="1376"/>
      <point x="915" y="1327" type="qcurve" smooth="yes"/>
      <point x="915" y="1261"/>
      <point x="836" y="1202"/>
      <point x="770" y="1202" type="qcurve"/>
      <point x="770" y="1250"/>
      <point x="750" y="1340"/>
      <point x="703" y="1411"/>
      <point x="628" y="1454"/>
      <point x="573" y="1454" type="qcurve" smooth="yes"/>
      <point x="471" y="1454"/>
      <point x="358" y="1352"/>
      <point x="358" y="1255" type="qcurve" smooth="yes"/>
      <point x="358" y="1201"/>
      <point x="399" y="1128"/>
      <point x="480" y="1069"/>
      <point x="598" y="1013"/>
      <point x="676" y="975" type="qcurve" smooth="yes"/>
      <point x="763" y="933"/>
      <point x="889" y="849"/>
      <point x="971" y="758"/>
      <point x="1010" y="656"/>
      <point x="1010" y="596" type="qcurve" smooth="yes"/>
      <point x="1010" y="559"/>
      <point x="989" y="486"/>
      <point x="955" y="419"/>
      <point x="911" y="360"/>
      <point x="887" y="336" type="qcurve"/>
      <point x="916" y="296"/>
      <point x="950" y="196"/>
      <point x="950" y="133" type="qcurve" smooth="yes"/>
      <point x="950" y="52"/>
      <point x="905" y="-82"/>
      <point x="810" y="-179"/>
      <point x="661" y="-233"/>
      <point x="557" y="-233" type="qcurve" smooth="yes"/>
      <point x="478" y="-233"/>
      <point x="349" y="-202"/>
      <point x="257" y="-142"/>
      <point x="207" y="-54"/>
      <point x="207" y="4" type="qcurve" smooth="yes"/>
      <point x="207" y="46"/>
      <point x="234" y="101"/>
      <point x="273" y="134"/>
      <point x="318" y="147"/>
      <point x="336" y="147" type="qcurve"/>
      <point x="336" y="93"/>
      <point x="363" y="-8"/>
      <point x="420" y="-86"/>
      <point x="509" y="-133"/>
    </contour>
  </outline>
</glyph>
<glyph name="mu" format="2">
  <advance width="1260"/>
  <unicode hex="00B5"/>
  <outline>
    <contour>
      <point x="569" y="-20" type="qcurve" smooth="yes"/>
      <point x="483" y="-20"/>
      <point x="360" y="43"/>
      <point x="319" y="100" type="qcurve"/>
      <point x="321" y="15"/>
      <point x="331" y="-129"/>
      <point x="364" y="-237"/>
      <point x="428" y="-304"/>
      <point x="485" y="-313" type="qcurve"/>
      <point x="485" y="-352"/>
      <point x="468" y="-417"/>
      <point x="433" y="-465"/>
      <point x="379" y="-492"/>
      <point x="342" y="-492" type="qcurve" smooth="yes"/>
      <point x="310" y="-492"/>
      <point x="250" y="-468"/>
      <point x="204" y="-411"/>
      <point x="176" y="-317"/>
      <point x="176" y="-248" type="qcurve" smooth="yes"/>
      <point x="176" y="-187"/>
      <point x="183" y="-46"/>
      <point x="191" y="125"/>
      <point x="200" y="333"/>
      <point x="201" y="461" type="qcurve" smooth="yes"/>
      <point x="201" y="1098" type="line"/>
      <point x="393" y="1098" type="line"/>
      <point x="393" y="410" type="line" smooth="yes"/>
      <point x="393" y="343"/>
      <point x="413" y="233"/>
      <point x="460" y="154"/>
      <point x="539" y="111"/>
      <point x="598" y="111" type="qcurve" smooth="yes"/>
      <point x="655" y="111"/>
      <point x="747" y="159"/>
      <point x="811" y="246"/>
      <point x="846" y="368"/>
      <point x="846" y="442" type="qcurve" smooth="yes"/>
      <point x="846" y="1098" type="line"/>
      <point x="1038" y="1098" type="line"/>
      <point x="1038" y="264" type="line" smooth="yes"/>
      <point x="1038" y="219"/>
      <point x="1062" y="152"/>
      <point x="1099" y="108"/>
      <point x="1145" y="86"/>
      <point x="1167" y="86" type="qcurve" smooth="yes"/>
      <point x="1174" y="86" type="line"/>
      <point x="1174" y="0" type="line"/>
      <point x="1063" y="0" type="line" smooth="yes"/>
      <point x="979" y="0"/>
      <point x="883" y="83"/>
      <point x="864" y="164" type="qcurve"/>
      <point x="856" y="164" type="line"/>
      <point x="832" y="123"/>
      <point x="777" y="55"/>
      <point x="708" y="7"/>
      <point x="623" y="-20"/>
    </contour>
  </outline>
</glyph>
<glyph name="Eth" format="2">
  <advance width="1489"/>
  <unicode hex="00D0"/>
  <outline>
    <contour>
      <point x="78" y="815" type="line"/>
      <point x="272" y="815" type="line"/>
      <point x="272" y="1237" type="line" smooth="yes"/>
      <point x="272" y="1282"/>
      <point x="245" y="1337"/>
      <point x="199" y="1367"/>
      <point x="138" y="1376"/>
      <point x="104" y="1376" type="qcurve" smooth="yes"/>
      <point x="78" y="1376" type="line"/>
      <point x="78" y="1462" type="line"/>
      <point x="705" y="1462" type="line" smooth="yes"/>
      <point x="863" y="1462"/>
      <point x="1111" y="1365"/>
      <point x="1282" y="1179"/>
      <point x="1372" y="907"/>
      <point x="1372" y="733" type="qcurve" smooth="yes"/>
      <point x="1372" y="565"/>
      <point x="1288" y="294"/>
      <point x="1122" y="103"/>
      <point x="871" y="0"/>
      <point x="705" y="0" type="qcurve" smooth="yes"/>
      <point x="78" y="0" type="line"/>
      <point x="78" y="86" type="line"/>
      <point x="104" y="86" type="line" smooth="yes"/>
      <point x="139" y="86"/>
      <point x="200" y="96"/>
      <point x="246" y="127"/>
      <point x="272" y="185"/>
      <point x="272" y="233" type="qcurve" smooth="yes"/>
      <point x="272" y="715" type="line"/>
      <point x="78" y="715" type="line"/>
    </contour>
    <contour>
      <point x="657" y="104" type="line" smooth="yes"/>
      <point x="779" y="104"/>
      <point x="962" y="187"/>
      <point x="1084" y="347"/>
      <point x="1145" y="581"/>
      <point x="1145" y="733" type="qcurve" smooth="yes"/>
      <point x="1145" y="885"/>
      <point x="1084" y="1119"/>
      <point x="963" y="1278"/>
      <point x="780" y="1360"/>
      <point x="659" y="1360" type="qcurve" smooth="yes"/>
      <point x="479" y="1360" type="line"/>
      <point x="479" y="815" type="line"/>
      <point x="827" y="815" type="line"/>
      <point x="827" y="715" type="line"/>
      <point x="479" y="715" type="line"/>
      <point x="479" y="104" type="line"/>
    </contour>
  </outline>
</glyph>
<glyph name="ae" format="2">
  <advance width="1722"/>
  <unicode hex="00E6"/>
  <outline>
    <contour>
      <point x="301" y="297" type="qcurve" smooth="yes"/>
      <point x="301" y="201"/>
      <point x="382" y="106"/>
      <point x="467" y="106" type="qcurve" smooth="yes"/>
      <point x="529" y="106"/>
      <point x="630" y="146"/>
      <point x="701" y="220"/>
      <point x="739" y="326"/>
      <point x="739" y="391" type="qcurve" smooth="yes"/>
      <point x="739" y="514" type="line"/>
      <point x="739" y="541" type="line"/>
      <point x="739" y="557" type="line"/>
      <point x="608" y="551" type="line" smooth="yes"/>
      <point x="521" y="547"/>
      <point x="404" y="512"/>
      <point x="332" y="449"/>
      <point x="301" y="357"/>
    </contour>
    <contour>
      <point x="1190" y="1008" type="qcurve" smooth="yes"/>
      <point x="1075" y="1008"/>
      <point x="953" y="823"/>
      <point x="942" y="645" type="qcurve"/>
      <point x="1413" y="645" type="line"/>
      <point x="1413" y="726"/>
      <point x="1389" y="860"/>
      <point x="1337" y="956"/>
      <point x="1252" y="1008"/>
    </contour>
    <contour>
      <point x="1221" y="-20" type="qcurve" smooth="yes"/>
      <point x="1071" y="-20"/>
      <point x="862" y="98"/>
      <point x="805" y="213" type="qcurve"/>
      <point x="786" y="167"/>
      <point x="718" y="83"/>
      <point x="621" y="18"/>
      <point x="496" y="-20"/>
      <point x="420" y="-20" type="qcurve" smooth="yes"/>
      <point x="352" y="-20"/>
      <point x="235" y="19"/>
      <point x="150" y="100"/>
      <point x="102" y="223"/>
      <point x="102" y="307" type="qcurve" smooth="yes"/>
      <point x="102" y="470"/>
      <point x="334" y="628"/>
      <point x="569" y="635" type="qcurve" smooth="yes"/>
      <point x="739" y="641" type="line"/>
      <point x="739" y="764" type="line" smooth="yes"/>
      <point x="739" y="819"/>
      <point x="727" y="912"/>
      <point x="687" y="979"/>
      <point x="612" y="1016"/>
      <point x="549" y="1016" type="qcurve" smooth="yes"/>
      <point x="490" y="1016"/>
      <point x="417" y="983"/>
      <point x="376" y="923"/>
      <point x="362" y="841"/>
      <point x="362" y="793" type="qcurve"/>
      <point x="277" y="793"/>
      <point x="188" y="851"/>
      <point x="188" y="922" type="qcurve" smooth="yes"/>
      <point x="188" y="975"/>
      <point x="246" y="1049"/>
      <point x="347" y="1096"/>
      <point x="481" y="1118"/>
      <point x="557" y="1118" type="qcurve" smooth="yes"/>
      <point x="673" y="1118"/>
      <point x="832" y="1059"/>
      <point x="877" y="993" type="qcurve"/>
      <point x="991" y="1118"/>
      <point x="1194" y="1118" type="qcurve" smooth="yes"/>
      <point x="1293" y="1118"/>
      <point x="1451" y="1056"/>
      <point x="1561" y="933"/>
      <point x="1620" y="750"/>
      <point x="1620" y="629" type="qcurve" smooth="yes"/>
      <point x="1620" y="535" type="line"/>
      <point x="938" y="535" type="line"/>
      <point x="940" y="423"/>
      <point x="979" y="262"/>
      <point x="1056" y="158"/>
      <point x="1174" y="109"/>
      <point x="1255" y="109" type="qcurve" smooth="yes"/>
      <point x="1300" y="109"/>
      <point x="1384" y="131"/>
      <point x="1457" y="170"/>
      <point x="1516" y="222"/>
      <point x="1536" y="252" type="qcurve"/>
      <point x="1550" y="246"/>
      <point x="1575" y="208"/>
      <point x="1575" y="182" type="qcurve" smooth="yes"/>
      <point x="1575" y="151"/>
      <point x="1531" y="80"/>
      <point x="1443" y="20"/>
      <point x="1310" y="-20"/>
    </contour>
  </outline>
</glyph>
<glyph name="dcroat" format="2">
  <advance width="1257"/>
  <unicode hex="0111"/>
  <outline>
    <contour>
      <point x="1036" y="1311" type="line"/>
      <point x="1223" y="1311" type="line"/>
      <point x="1223" y="1214" type="line"/>
      <point x="1036" y="1214" type="line"/>
      <point x="1036" y="225" type="line" smooth="yes"/>
      <point x="1036" y="180"/>
      <point x="1063" y="125"/>
      <point x="1109" y="95"/>
      <point x="1170" y="86"/>
      <point x="1204" y="86" type="qcurve" smooth="yes"/>
      <point x="1221" y="86" type="line"/>
      <point x="1221" y="0" type="line"/>
      <point x="874" y="0" type="line"/>
      <point x="852" y="184" type="line"/>
      <point x="844" y="184" type="line"/>
      <point x="821" y="137"/>
      <point x="762" y="62"/>
      <point x="686" y="9"/>
      <point x="590" y="-20"/>
      <point x="530" y="-20" type="qcurve" smooth="yes"/>
      <point x="429" y="-20"/>
      <point x="273" y="44"/>
      <point x="167" y="178"/>
      <point x="113" y="384"/>
      <point x="113" y="526" type="qcurve" smooth="yes"/>
      <point x="113" y="669"/>
      <point x="167" y="877"/>
      <point x="273" y="1012"/>
      <point x="429" y="1077"/>
      <point x="530" y="1077" type="qcurve" smooth="yes"/>
      <point x="589" y="1077"/>
      <point x="685" y="1051"/>
      <point x="762" y="1003"/>
      <point x="822" y="937"/>
      <point x="844" y="897" type="qcurve"/>
      <point x="856" y="897" type="line"/>
      <point x="853" y="947"/>
      <point x="850" y="992" type="qcurve" smooth="yes"/>
      <point x="848" y="1030"/>
      <point x="844" y="1108"/>
      <point x="844" y="1128" type="qcurve" smooth="yes"/>
      <point x="844" y="1214" type="line"/>
      <point x="494" y="1214" type="line"/>
      <point x="494" y="1311" type="line"/>
      <point x="844" y="1311" type="line"/>
      <point x="844" y="1331" type="line" smooth="yes"/>
      <point x="844" y="1376"/>
      <point x="817" y="1430"/>
      <point x="771" y="1460"/>
      <point x="710" y="1470"/>
      <point x="676" y="1470" type="qcurve" smooth="yes"/>
      <point x="659" y="1470" type="line"/>
      <point x="659" y="1556" type="line"/>
      <point x="1036" y="1556" type="line"/>
    </contour>
    <contour>
      <point x="565" y="111" type="qcurve" smooth="yes"/>
      <point x="645" y="111"/>
      <point x="752" y="162"/>
      <point x="817" y="265"/>
      <point x="844" y="421"/>
      <point x="844" y="526" type="qcurve" smooth="yes"/>
      <point x="844" y="628"/>
      <point x="817" y="785"/>
      <point x="752" y="892"/>
      <point x="644" y="946"/>
      <point x="563" y="946" type="qcurve" smooth="yes"/>
      <point x="428" y="946"/>
      <point x="311" y="730"/>
      <point x="311" y="524" type="qcurve" smooth="yes"/>
      <point x="311" y="317"/>
      <point x="429" y="111"/>
    </contour>
  </outline>
</glyph>
<glyph name="kgreenlandic" format="2">
  <advance width="1198"/>
  <unicode hex="0138"/>
  <outline>
    <contour>
      <point x="694" y="659" type="line"/>
      <point x="967" y="254" type="line" smooth="yes"/>
      <point x="1020" y="172"/>
      <point x="1125" y="86"/>
      <point x="1194" y="86" type="qcurve" smooth="yes"/>
      <point x="1200" y="86" type="line"/>
      <point x="1200" y="0" type="line"/>
      <point x="1171" y="0" type="line" smooth="yes"/>
      <point x="1082" y="0"/>
      <point x="967" y="11"/>
      <point x="883" y="52"/>
      <point x="813" y="131"/>
      <point x="770" y="199" type="qcurve" smooth="yes"/>
      <point x="565" y="520" type="line"/>
      <point x="414" y="408" type="line"/>
      <point x="414" y="223" type="line" smooth="yes"/>
      <point x="414" y="178"/>
      <point x="441" y="123"/>
      <point x="487" y="95"/>
      <point x="548" y="86"/>
      <point x="582" y="86" type="qcurve" smooth="yes"/>
      <point x="588" y="86" type="line"/>
      <point x="588" y="0" type="line"/>
      <point x="37" y="0" type="line"/>
      <point x="37" y="86" type="line"/>
      <point x="53" y="86" type="line" smooth="yes"/>
      <point x="88" y="86"/>
      <point x="149" y="96"/>
      <point x="194" y="127"/>
      <point x="221" y="185"/>
      <point x="221" y="233" type="qcurve" smooth="yes"/>
      <point x="221" y="873" type="line" smooth="yes"/>
      <point x="221" y="918"/>
      <point x="194" y="973"/>
      <point x="148" y="1003"/>
      <point x="87" y="1012"/>
      <point x="53" y="1012" type="qcurve" smooth="yes"/>
      <point x="37" y="1012" type="line"/>
      <point x="37" y="1098" type="line"/>
      <point x="414" y="1098" type="line"/>
      <point x="414" y="766" type="line" smooth="yes"/>
      <point x="414" y="738"/>
      <point x="412" y="651"/>
      <point x="410" y="609" type="qcurve" smooth="yes"/>
      <point x="408" y="561"/>
      <point x="406" y="508" type="qcurve"/>
      <point x="662" y="788" type="line" smooth="yes"/>
      <point x="695" y="825"/>
      <point x="738" y="881"/>
      <point x="764" y="923"/>
      <point x="774" y="956"/>
      <point x="774" y="971" type="qcurve" smooth="yes"/>
      <point x="774" y="997"/>
      <point x="725" y="1012"/>
      <point x="674" y="1012" type="qcurve"/>
      <point x="674" y="1098" type="line"/>
      <point x="1126" y="1098" type="line"/>
      <point x="1126" y="1012" type="line"/>
      <point x="1055" y="1012"/>
      <point x="918" y="912"/>
      <point x="838" y="821" type="qcurve" smooth="yes"/>
    </contour>
  </outline>
</glyph>
<glyph name="uni0183" format="2">
  <advance width="1257"/>
  <unicode hex="0183"/>
  <outline>
    <contour>
      <point x="727" y="-20" type="qcurve" smooth="yes"/>
      <point x="619" y="-20"/>
      <point x="463" y="71"/>
      <point x="414" y="160" type="qcurve"/>
      <point x="401" y="160" type="line"/>
      <point x="365" y="0" type="line"/>
      <point x="37" y="0" type="line"/>
      <point x="37" y="86" type="line"/>
      <point x="53" y="86" type="line" smooth="yes"/>
      <point x="150" y="86"/>
      <point x="221" y="160"/>
      <point x="221" y="233" type="qcurve" smooth="yes"/>
      <point x="221" y="1331" type="line" smooth="yes"/>
      <point x="221" y="1399"/>
      <point x="150" y="1470"/>
      <point x="53" y="1470" type="qcurve" smooth="yes"/>
      <point x="37" y="1470" type="line"/>
      <point x="37" y="1556" type="line"/>
      <point x="1040" y="1556" type="line"/>
      <point x="1040" y="1249" type="line"/>
      <point x="940" y="1249" type="line"/>
      <point x="930" y="1317" type="line" smooth="yes"/>
      <point x="914" y="1412"/>
      <point x="862" y="1462"/>
      <point x="786" y="1462" type="qcurve" smooth="yes"/>
      <point x="414" y="1462" type="line"/>
      <point x="414" y="1180" type="line" smooth="yes"/>
      <point x="414" y="1111"/>
      <point x="409" y="990"/>
      <point x="406" y="913" type="qcurve"/>
      <point x="414" y="913" type="line"/>
      <point x="468" y="1022"/>
      <point x="621" y="1118"/>
      <point x="727" y="1118" type="qcurve" smooth="yes"/>
      <point x="937" y="1118"/>
      <point x="1145" y="834"/>
      <point x="1145" y="551" type="qcurve" smooth="yes"/>
      <point x="1145" y="266"/>
      <point x="938" y="-20"/>
    </contour>
    <contour>
      <point x="414" y="551" type="qcurve" smooth="yes"/>
      <point x="414" y="314"/>
      <point x="546" y="111"/>
      <point x="694" y="111" type="qcurve" smooth="yes"/>
      <point x="822" y="111"/>
      <point x="946" y="324"/>
      <point x="946" y="553" type="qcurve" smooth="yes"/>
      <point x="946" y="771"/>
      <point x="828" y="987"/>
      <point x="692" y="987" type="qcurve" smooth="yes"/>
      <point x="542" y="987"/>
      <point x="414" y="791"/>
    </contour>
  </outline>
</glyph>
<glyph name="uni0187" format="2">
  <advance width="1257"/>
  <unicode hex="0187"/>
  <outline>
    <contour>
      <point x="1073" y="1423" type="qcurve"/>
      <point x="1073" y="1454" type="line" smooth="yes"/>
      <point x="1073" y="1592"/>
      <point x="1184" y="1757"/>
      <point x="1286" y="1757" type="qcurve" smooth="yes"/>
      <point x="1358" y="1757"/>
      <point x="1442" y="1700"/>
      <point x="1442" y="1645" type="qcurve" smooth="yes"/>
      <point x="1442" y="1620"/>
      <point x="1425" y="1583"/>
      <point x="1411" y="1569" type="qcurve"/>
      <point x="1386" y="1586"/>
      <point x="1339" y="1602"/>
      <point x="1305" y="1602" type="qcurve" smooth="yes"/>
      <point x="1245" y="1602"/>
      <point x="1188" y="1528"/>
      <point x="1188" y="1454" type="qcurve" smooth="yes"/>
      <point x="1188" y="1253" type="line" smooth="yes"/>
      <point x="1188" y="1190"/>
      <point x="1087" y="1110"/>
      <point x="1010" y="1110" type="qcurve"/>
      <point x="1010" y="1229"/>
      <point x="883" y="1374"/>
      <point x="770" y="1374" type="qcurve" smooth="yes"/>
      <point x="553" y="1374"/>
      <point x="344" y="1064"/>
      <point x="344" y="733" type="qcurve" smooth="yes"/>
      <point x="344" y="430"/>
      <point x="563" y="115"/>
      <point x="770" y="115" type="qcurve" smooth="yes"/>
      <point x="894" y="115"/>
      <point x="1074" y="199"/>
      <point x="1141" y="289" type="qcurve"/>
      <point x="1158" y="278"/>
      <point x="1180" y="240"/>
      <point x="1180" y="209" type="qcurve" smooth="yes"/>
      <point x="1180" y="118"/>
      <point x="939" y="-20"/>
      <point x="739" y="-20" type="qcurve" smooth="yes"/>
      <point x="445" y="-20"/>
      <point x="117" y="382"/>
      <point x="117" y="733" type="qcurve" smooth="yes"/>
      <point x="117" y="1081"/>
      <point x="465" y="1483"/>
      <point x="774" y="1483" type="qcurve" smooth="yes"/>
      <point x="873" y="1483"/>
      <point x="1021" y="1451"/>
    </contour>
  </outline>
</glyph>
<glyph name="uni018A" format="2">
  <advance width="1647"/>
  <unicode hex="018A"/>
  <outline>
    <contour>
      <point x="176" y="1243" type="qcurve" smooth="yes"/>
      <point x="176" y="1209"/>
      <point x="192" y="1161"/>
      <point x="209" y="1137" type="qcurve"/>
      <point x="195" y="1123"/>
      <point x="158" y="1106"/>
      <point x="133" y="1106" type="qcurve" smooth="yes"/>
      <point x="77" y="1106"/>
      <point x="20" y="1178"/>
      <point x="20" y="1231" type="qcurve" smooth="yes"/>
      <point x="20" y="1350"/>
      <point x="165" y="1462"/>
      <point x="332" y="1462" type="qcurve" smooth="yes"/>
      <point x="862" y="1462" type="line" smooth="yes"/>
      <point x="1179" y="1462"/>
      <point x="1530" y="1080"/>
      <point x="1530" y="733" type="qcurve" smooth="yes"/>
      <point x="1530" y="385"/>
      <point x="1183" y="0"/>
      <point x="862" y="0" type="qcurve" smooth="yes"/>
      <point x="236" y="0" type="line"/>
      <point x="236" y="86" type="line"/>
      <point x="262" y="86" type="line" smooth="yes"/>
      <point x="359" y="86"/>
      <point x="430" y="160"/>
      <point x="430" y="233" type="qcurve" smooth="yes"/>
      <point x="430" y="1241" type="line" smooth="yes"/>
      <point x="430" y="1310"/>
      <point x="372" y="1380"/>
      <point x="293" y="1380" type="qcurve" smooth="yes"/>
      <point x="236" y="1380"/>
      <point x="176" y="1308"/>
    </contour>
    <contour>
      <point x="815" y="104" type="line" smooth="yes"/>
      <point x="1054" y="104"/>
      <point x="1303" y="424"/>
      <point x="1303" y="733" type="qcurve" smooth="yes"/>
      <point x="1303" y="1041"/>
      <point x="1056" y="1360"/>
      <point x="817" y="1360" type="qcurve" smooth="yes"/>
      <point x="637" y="1360" type="line"/>
      <point x="637" y="104" type="line"/>
    </contour>
  </outline>
</glyph>
<glyph name="uni018D" format="2">
  <advance width="1182"/>
  <unicode hex="018D"/>
  <outline>
    <contour>
      <point x="113" y="1049" type="qcurve" smooth="yes"/>
      <point x="113" y="1294"/>
      <point x="371" y="1567"/>
      <point x="596" y="1567" type="qcurve" smooth="yes"/>
      <point x="809" y="1567"/>
      <point x="1071" y="1319"/>
      <point x="1071" y="1108" type="qcurve" smooth="yes"/>
      <point x="1071" y="923"/>
      <point x="863" y="674"/>
      <point x="657" y="612" type="qcurve"/>
      <point x="784" y="531"/>
      <point x="897" y="365"/>
      <point x="897" y="268" type="qcurve" smooth="yes"/>
      <point x="897" y="134"/>
      <point x="695" y="-20"/>
      <point x="526" y="-20" type="qcurve" smooth="yes"/>
      <point x="373" y="-20"/>
      <point x="186" y="110"/>
      <point x="186" y="193" type="qcurve" smooth="yes"/>
      <point x="186" y="258"/>
      <point x="267" y="322"/>
      <point x="338" y="322" type="qcurve"/>
      <point x="338" y="212"/>
      <point x="455" y="74"/>
      <point x="545" y="74" type="qcurve" smooth="yes"/>
      <point x="643" y="74"/>
      <point x="731" y="165"/>
      <point x="731" y="238" type="qcurve" smooth="yes"/>
      <point x="731" y="318"/>
      <point x="630" y="434"/>
      <point x="350" y="610"/>
      <point x="196" y="760"/>
      <point x="113" y="939"/>
    </contour>
    <contour>
      <point x="586" y="662" type="qcurve"/>
      <point x="726" y="703"/>
      <point x="879" y="950"/>
      <point x="879" y="1139" type="qcurve" smooth="yes"/>
      <point x="879" y="1283"/>
      <point x="725" y="1460"/>
      <point x="596" y="1460" type="qcurve" smooth="yes"/>
      <point x="454" y="1460"/>
      <point x="301" y="1269"/>
      <point x="301" y="1090" type="qcurve" smooth="yes"/>
      <point x="301" y="968"/>
      <point x="450" y="746"/>
    </contour>
  </outline>
</glyph>
<glyph name="uni0194" format="2">
  <advance width="1382"/>
  <unicode hex="0194"/>
  <outline>
    <contour>
      <point x="782" y="356" type="line"/>
      <point x="863" y="166"/>
      <point x="932" y="-82"/>
      <point x="932" y="-180" type="qcurve" smooth="yes"/>
      <point x="932" y="-327"/>
      <point x="791" y="-492"/>
      <point x="666" y="-492" type="qcurve" smooth="yes"/>
      <point x="556" y="-492"/>
      <point x="438" y="-362"/>
      <point x="438" y="-221" type="qcurve" smooth="yes"/>
      <point x="438" y="-119"/>
      <point x="528" y="146"/>
      <point x="608" y="295" type="qcurve"/>
      <point x="172" y="1268" type="line" smooth="yes"/>
      <point x="141" y="1336"/>
      <point x="81" y="1376"/>
      <point x="27" y="1376" type="qcurve" smooth="yes"/>
      <point x="0" y="1376" type="line"/>
      <point x="0" y="1462" type="line"/>
      <point x="563" y="1462" type="line"/>
      <point x="563" y="1376" type="line"/>
      <point x="516" y="1376" type="line" smooth="yes"/>
      <point x="454" y="1376"/>
      <point x="393" y="1329"/>
      <point x="393" y="1278" type="qcurve" smooth="yes"/>
      <point x="393" y="1260"/>
      <point x="399" y="1224"/>
      <point x="410" y="1202" type="qcurve" smooth="yes"/>
      <point x="725" y="487" type="line"/>
      <point x="1047" y="1188" type="line" smooth="yes"/>
      <point x="1058" y="1211"/>
      <point x="1065" y="1259"/>
      <point x="1065" y="1276" type="qcurve" smooth="yes"/>
      <point x="1065" y="1329"/>
      <point x="999" y="1376"/>
      <point x="930" y="1376" type="qcurve" smooth="yes"/>
      <point x="883" y="1376" type="line"/>
      <point x="883" y="1462" type="line"/>
      <point x="1382" y="1462" type="line"/>
      <point x="1382" y="1376" type="line"/>
      <point x="1343" y="1376" type="line" smooth="yes"/>
      <point x="1274" y="1376"/>
      <point x="1220" y="1286"/>
      <point x="1188" y="1217" type="qcurve" smooth="yes"/>
    </contour>
    <contour>
      <point x="666" y="160" type="qcurve"/>
      <point x="613" y="52"/>
      <point x="557" y="-147"/>
      <point x="557" y="-225" type="qcurve" smooth="yes"/>
      <point x="557" y="-298"/>
      <point x="601" y="-381"/>
      <point x="639" y="-381" type="qcurve" smooth="yes"/>
      <point x="690" y="-381"/>
      <point x="748" y="-300"/>
      <point x="748" y="-215" type="qcurve" smooth="yes"/>
      <point x="748" y="-135"/>
      <point x="713" y="36"/>
    </contour>
  </outline>
</glyph>
<glyph name="uni0199" format="2">
  <advance width="1198"/>
  <unicode hex="0199"/>
  <outline>
    <contour>
      <point x="414" y="766" type="line" smooth="yes"/>
      <point x="414" y="706"/>
      <point x="409" y="575"/>
      <point x="406" y="508" type="qcurve"/>
      <point x="662" y="788" type="line" smooth="yes"/>
      <point x="712" y="844"/>
      <point x="774" y="934"/>
      <point x="774" y="971" type="qcurve" smooth="yes"/>
      <point x="774" y="997"/>
      <point x="726" y="1012"/>
      <point x="674" y="1012" type="qcurve"/>
      <point x="674" y="1098" type="line"/>
      <point x="1126" y="1098" type="line"/>
      <point x="1126" y="1012" type="line"/>
      <point x="1055" y="1012"/>
      <point x="918" y="912"/>
      <point x="838" y="821" type="qcurve" smooth="yes"/>
      <point x="694" y="659" type="line"/>
      <point x="967" y="254" type="line" smooth="yes"/>
      <point x="1020" y="172"/>
      <point x="1123" y="86"/>
      <point x="1192" y="86" type="qcurve" smooth="yes"/>
      <point x="1200" y="86" type="line"/>
      <point x="1200" y="0" type="line"/>
      <point x="1171" y="0" type="line" smooth="yes"/>
      <point x="1033" y="0"/>
      <point x="921" y="26"/>
      <point x="833" y="99"/>
      <point x="770" y="199" type="qcurve" smooth="yes"/>
      <point x="565" y="520" type="line"/>
      <point x="414" y="408" type="line"/>
      <point x="414" y="223" type="line" smooth="yes"/>
      <point x="414" y="153"/>
      <point x="483" y="86"/>
      <point x="580" y="86" type="qcurve" smooth="yes"/>
      <point x="588" y="86" type="line"/>
      <point x="588" y="0" type="line"/>
      <point x="37" y="0" type="line"/>
      <point x="37" y="86" type="line"/>
      <point x="53" y="86" type="line" smooth="yes"/>
      <point x="150" y="86"/>
      <point x="221" y="160"/>
      <point x="221" y="233" type="qcurve" smooth="yes"/>
      <point x="221" y="1157" type="line" smooth="yes"/>
      <point x="221" y="1366"/>
      <point x="390" y="1567"/>
      <point x="563" y="1567" type="qcurve" smooth="yes"/>
      <point x="673" y="1567"/>
      <point x="803" y="1476"/>
      <point x="803" y="1405" type="qcurve" smooth="yes"/>
      <point x="803" y="1354"/>
      <point x="727" y="1288"/>
      <point x="645" y="1288" type="qcurve"/>
      <point x="645" y="1375"/>
      <point x="590" y="1473"/>
      <point x="539" y="1473" type="qcurve" smooth="yes"/>
      <point x="469" y="1473"/>
      <point x="414" y="1378"/>
      <point x="414" y="1239" type="qcurve" smooth="yes"/>
    </contour>
  </outline>
</glyph>
<glyph name="uni019B" format="2">
  <advance width="1096"/>
  <unicode hex="019B"/>
  <outline>
    <contour>
      <point x="813" y="1409" type="line"/>
      <point x="606" y="1292" type="line"/>
      <point x="614" y="1269"/>
      <point x="629" y="1226"/>
      <point x="635" y="1200" type="qcurve" smooth="yes"/>
      <point x="817" y="483" type="line" smooth="yes"/>
      <point x="865" y="294"/>
      <point x="1007" y="86"/>
      <point x="1079" y="86" type="qcurve" smooth="yes"/>
      <point x="1090" y="86" type="line"/>
      <point x="1090" y="0" type="line"/>
      <point x="1042" y="0" type="line" smooth="yes"/>
      <point x="911" y="0"/>
      <point x="804" y="97"/>
      <point x="719" y="337"/>
      <point x="617" y="791"/>
      <point x="614" y="848" type="qcurve"/>
      <point x="606" y="848" type="line"/>
      <point x="595" y="793"/>
      <point x="522" y="597"/>
      <point x="487" y="528" type="qcurve" smooth="yes"/>
      <point x="227" y="0" type="line"/>
      <point x="16" y="0" type="line"/>
      <point x="559" y="1053" type="line"/>
      <point x="545" y="1108"/>
      <point x="520" y="1200"/>
      <point x="506" y="1237" type="qcurve"/>
      <point x="254" y="1094" type="line"/>
      <point x="254" y="1208" type="line"/>
      <point x="467" y="1331" type="line"/>
      <point x="430" y="1396"/>
      <point x="345" y="1442"/>
      <point x="297" y="1442" type="qcurve" smooth="yes"/>
      <point x="240" y="1442"/>
      <point x="154" y="1391"/>
      <point x="129" y="1360" type="qcurve"/>
      <point x="112" y="1372"/>
      <point x="94" y="1416"/>
      <point x="94" y="1444" type="qcurve" smooth="yes"/>
      <point x="94" y="1502"/>
      <point x="202" y="1577"/>
      <point x="299" y="1577" type="qcurve" smooth="yes"/>
      <point x="389" y="1577"/>
      <point x="524" y="1492"/>
      <point x="573" y="1389" type="qcurve"/>
      <point x="813" y="1526" type="line"/>
    </contour>
  </outline>
</glyph>
<glyph name="uni019C" format="2">
  <advance width="2159"/>
  <unicode hex="019C"/>
  <outline>
    <contour>
      <point x="1722" y="0" type="line"/>
      <point x="1692" y="203" type="line"/>
      <point x="1683" y="203" type="line"/>
      <point x="1624" y="88"/>
      <point x="1451" y="-20"/>
      <point x="1329" y="-20" type="qcurve" smooth="yes"/>
      <point x="1208" y="-20"/>
      <point x="1037" y="90"/>
      <point x="987" y="205" type="qcurve"/>
      <point x="928" y="89"/>
      <point x="746" y="-20"/>
      <point x="618" y="-20" type="qcurve" smooth="yes"/>
      <point x="427" y="-20"/>
      <point x="225" y="196"/>
      <point x="225" y="401" type="qcurve" smooth="yes"/>
      <point x="225" y="1237" type="line" smooth="yes"/>
      <point x="225" y="1305"/>
      <point x="154" y="1376"/>
      <point x="57" y="1376" type="qcurve" smooth="yes"/>
      <point x="31" y="1376" type="line"/>
      <point x="31" y="1462" type="line"/>
      <point x="627" y="1462" type="line"/>
      <point x="627" y="1376" type="line"/>
      <point x="600" y="1376" type="line" smooth="yes"/>
      <point x="503" y="1376"/>
      <point x="432" y="1302"/>
      <point x="432" y="1229" type="qcurve" smooth="yes"/>
      <point x="432" y="387" type="line" smooth="yes"/>
      <point x="432" y="251"/>
      <point x="539" y="123"/>
      <point x="647" y="123" type="qcurve" smooth="yes"/>
      <point x="801" y="123"/>
      <point x="952" y="288"/>
      <point x="952" y="471" type="qcurve" smooth="yes"/>
      <point x="952" y="1237" type="line" smooth="yes"/>
      <point x="952" y="1305"/>
      <point x="881" y="1376"/>
      <point x="784" y="1376" type="qcurve" smooth="yes"/>
      <point x="758" y="1376" type="line"/>
      <point x="758" y="1462" type="line"/>
      <point x="1354" y="1462" type="line"/>
      <point x="1354" y="1376" type="line"/>
      <point x="1327" y="1376" type="line" smooth="yes"/>
      <point x="1230" y="1376"/>
      <point x="1159" y="1302"/>
      <point x="1159" y="1229" type="qcurve" smooth="yes"/>
      <point x="1159" y="412" type="line" smooth="yes"/>
      <point x="1159" y="270"/>
      <point x="1277" y="123"/>
      <point x="1372" y="123" type="qcurve" smooth="yes"/>
      <point x="1515" y="123"/>
      <point x="1679" y="342"/>
      <point x="1679" y="510" type="qcurve" smooth="yes"/>
      <point x="1679" y="1229" type="line" smooth="yes"/>
      <point x="1679" y="1304"/>
      <point x="1607" y="1376"/>
      <point x="1511" y="1376" type="qcurve" smooth="yes"/>
      <point x="1485" y="1376" type="line"/>
      <point x="1485" y="1462" type="line"/>
      <point x="2081" y="1462" type="line"/>
      <point x="2081" y="1376" type="line"/>
      <point x="2054" y="1376" type="line" smooth="yes"/>
      <point x="1957" y="1376"/>
      <point x="1886" y="1302"/>
      <point x="1886" y="1229" type="qcurve" smooth="yes"/>
      <point x="1886" y="233" type="line" smooth="yes"/>
      <point x="1886" y="160"/>
      <point x="1957" y="86"/>
      <point x="2054" y="86" type="qcurve" smooth="yes"/>
      <point x="2081" y="86" type="line"/>
      <point x="2081" y="0" type="line"/>
    </contour>
  </outline>
</glyph>
<glyph name="uni01A3" format="2">
  <advance width="1739"/>
  <unicode hex="01A3"/>
  <outline>
    <contour>
      <point x="973" y="897" type="line"/>
      <point x="1021" y="1019"/>
      <point x="1159" y="1118"/>
      <point x="1266" y="1118" type="qcurve" smooth="yes"/>
      <point x="1394" y="1118"/>
      <point x="1538" y="942"/>
      <point x="1538" y="774" type="qcurve" smooth="yes"/>
      <point x="1538" y="-258" type="line" smooth="yes"/>
      <point x="1538" y="-333"/>
      <point x="1601" y="-406"/>
      <point x="1694" y="-406" type="qcurve" smooth="yes"/>
      <point x="1702" y="-406" type="line"/>
      <point x="1702" y="-492" type="line"/>
      <point x="1346" y="-492" type="line"/>
      <point x="1346" y="758" type="line" smooth="yes"/>
      <point x="1346" y="877"/>
      <point x="1273" y="987"/>
      <point x="1196" y="987" type="qcurve" smooth="yes"/>
      <point x="1112" y="987"/>
      <point x="1032" y="839"/>
      <point x="1032" y="682" type="qcurve" smooth="yes"/>
      <point x="1032" y="551" type="line" smooth="yes"/>
      <point x="1032" y="262"/>
      <point x="802" y="-20"/>
      <point x="573" y="-20" type="qcurve" smooth="yes"/>
      <point x="350" y="-20"/>
      <point x="113" y="272"/>
      <point x="113" y="551" type="qcurve" smooth="yes"/>
      <point x="113" y="838"/>
      <point x="347" y="1118"/>
      <point x="578" y="1118" type="qcurve" smooth="yes"/>
      <point x="714" y="1118"/>
      <point x="907" y="1010"/>
      <point x="963" y="897" type="qcurve"/>
    </contour>
    <contour>
      <point x="575" y="86" type="qcurve" smooth="yes"/>
      <point x="712" y="86"/>
      <point x="840" y="305"/>
      <point x="840" y="551" type="qcurve" smooth="yes"/>
      <point x="840" y="790"/>
      <point x="713" y="1010"/>
      <point x="575" y="1010" type="qcurve" smooth="yes"/>
      <point x="438" y="1010"/>
      <point x="311" y="794"/>
      <point x="311" y="551" type="qcurve" smooth="yes"/>
      <point x="311" y="305"/>
      <point x="440" y="86"/>
    </contour>
  </outline>
</glyph>
<glyph name="uni01A4" format="2">
  <advance width="1395"/>
  <unicode hex="01A4"/>
  <outline>
    <contour>
      <point x="811" y="1462" type="line" smooth="yes"/>
      <point x="1059" y="1462"/>
      <point x="1315" y="1242"/>
      <point x="1315" y="1034" type="qcurve" smooth="yes"/>
      <point x="1315" y="819"/>
      <point x="1032" y="569"/>
      <point x="766" y="569" type="qcurve" smooth="yes"/>
      <point x="637" y="569" type="line"/>
      <point x="637" y="223" type="line" smooth="yes"/>
      <point x="637" y="154"/>
      <point x="708" y="86"/>
      <point x="805" y="86" type="qcurve" smooth="yes"/>
      <point x="872" y="86" type="line"/>
      <point x="872" y="0" type="line"/>
      <point x="236" y="0" type="line"/>
      <point x="236" y="86" type="line"/>
      <point x="262" y="86" type="line" smooth="yes"/>
      <point x="359" y="86"/>
      <point x="430" y="160"/>
      <point x="430" y="233" type="qcurve" smooth="yes"/>
      <point x="430" y="1241" type="line" smooth="yes"/>
      <point x="430" y="1310"/>
      <point x="372" y="1380"/>
      <point x="293" y="1380" type="qcurve" smooth="yes"/>
      <point x="236" y="1380"/>
      <point x="176" y="1308"/>
      <point x="176" y="1243" type="qcurve" smooth="yes"/>
      <point x="176" y="1209"/>
      <point x="192" y="1161"/>
      <point x="209" y="1137" type="qcurve"/>
      <point x="195" y="1123"/>
      <point x="158" y="1106"/>
      <point x="133" y="1106" type="qcurve" smooth="yes"/>
      <point x="77" y="1106"/>
      <point x="20" y="1178"/>
      <point x="20" y="1231" type="qcurve" smooth="yes"/>
      <point x="20" y="1350"/>
      <point x="165" y="1462"/>
      <point x="332" y="1462" type="qcurve" smooth="yes"/>
    </contour>
    <contour>
      <point x="637" y="666" type="line"/>
      <point x="745" y="666" type="line" smooth="yes"/>
      <point x="934" y="666"/>
      <point x="1094" y="832"/>
      <point x="1094" y="1026" type="qcurve" smooth="yes"/>
      <point x="1094" y="1206"/>
      <point x="943" y="1364"/>
      <point x="776" y="1364" type="qcurve" smooth="yes"/>
      <point x="637" y="1364" type="line"/>
    </contour>
  </outline>
</glyph>
<glyph name="uni01A7" format="2">
  <advance width="1114"/>
  <unicode hex="01A7"/>
  <outline>
    <contour>
      <point x="991" y="289" type="qcurve"/>
      <point x="1008" y="278"/>
      <point x="1030" y="240"/>
      <point x="1030" y="209" type="qcurve" smooth="yes"/>
      <point x="1030" y="117"/>
      <point x="783" y="-20"/>
      <point x="584" y="-20" type="qcurve" smooth="yes"/>
      <point x="345" y="-20"/>
      <point x="104" y="185"/>
      <point x="104" y="391" type="qcurve" smooth="yes"/>
      <point x="104" y="536"/>
      <point x="287" y="735"/>
      <point x="660" y="884"/>
      <point x="803" y="1021"/>
      <point x="803" y="1147" type="qcurve" smooth="yes"/>
      <point x="803" y="1251"/>
      <point x="680" y="1380"/>
      <point x="565" y="1380" type="qcurve" smooth="yes"/>
      <point x="449" y="1380"/>
      <point x="324" y="1232"/>
      <point x="324" y="1110" type="qcurve"/>
      <point x="249" y="1110"/>
      <point x="162" y="1177"/>
      <point x="162" y="1243" type="qcurve" smooth="yes"/>
      <point x="162" y="1342"/>
      <point x="385" y="1483"/>
      <point x="565" y="1483" type="qcurve" smooth="yes"/>
      <point x="768" y="1483"/>
      <point x="993" y="1283"/>
      <point x="993" y="1112" type="qcurve" smooth="yes"/>
      <point x="993" y="949"/>
      <point x="813" y="738"/>
      <point x="446" y="589"/>
      <point x="299" y="454"/>
      <point x="299" y="338" type="qcurve" smooth="yes"/>
      <point x="299" y="221"/>
      <point x="446" y="106"/>
      <point x="592" y="106" type="qcurve" smooth="yes"/>
      <point x="723" y="106"/>
      <point x="929" y="206"/>
    </contour>
  </outline>
</glyph>
<glyph name="uni01A8" format="2">
  <advance width="924"/>
  <unicode hex="01A8"/>
  <outline>
    <contour>
      <point x="805" y="256" type="qcurve"/>
      <point x="820" y="244"/>
      <point x="840" y="204"/>
      <point x="840" y="176" type="qcurve" smooth="yes"/>
      <point x="840" y="96"/>
      <point x="643" y="-20"/>
      <point x="475" y="-20" type="qcurve" smooth="yes"/>
      <point x="281" y="-20"/>
      <point x="90" y="150"/>
      <point x="90" y="301" type="qcurve" smooth="yes"/>
      <point x="90" y="433"/>
      <point x="242" y="577"/>
      <point x="474" y="670"/>
      <point x="651" y="765"/>
      <point x="651" y="858" type="qcurve" smooth="yes"/>
      <point x="651" y="937"/>
      <point x="557" y="1022"/>
      <point x="467" y="1022" type="qcurve" smooth="yes"/>
      <point x="369" y="1022"/>
      <point x="281" y="908"/>
      <point x="281" y="805" type="qcurve"/>
      <point x="209" y="805"/>
      <point x="133" y="866"/>
      <point x="133" y="922" type="qcurve" smooth="yes"/>
      <point x="133" y="1008"/>
      <point x="316" y="1116"/>
      <point x="483" y="1116" type="qcurve" smooth="yes"/>
      <point x="627" y="1116"/>
      <point x="817" y="959"/>
      <point x="817" y="827" type="qcurve" smooth="yes"/>
      <point x="817" y="704"/>
      <point x="683" y="563"/>
      <point x="381" y="434"/>
      <point x="256" y="347"/>
      <point x="256" y="264" type="qcurve" smooth="yes"/>
      <point x="256" y="181"/>
      <point x="382" y="102"/>
      <point x="492" y="102" type="qcurve" smooth="yes"/>
      <point x="596" y="102"/>
      <point x="768" y="188"/>
    </contour>
  </outline>
</glyph>
<glyph name="uhorn" format="2">
  <advance width="1384"/>
  <unicode hex="01B0"/>
  <outline>
    <contour>
      <point x="1079" y="901" type="line"/>
      <point x="1255" y="931"/>
      <point x="1255" y="1042" type="qcurve" smooth="yes"/>
      <point x="1255" y="1069"/>
      <point x="1167" y="1135"/>
      <point x="1167" y="1184" type="qcurve" smooth="yes"/>
      <point x="1167" y="1286"/>
      <point x="1284" y="1286" type="qcurve" smooth="yes"/>
      <point x="1409" y="1286"/>
      <point x="1409" y="1157" type="qcurve" smooth="yes"/>
      <point x="1409" y="881"/>
      <point x="1079" y="821" type="qcurve"/>
      <point x="1079" y="223" type="line" smooth="yes"/>
      <point x="1079" y="86"/>
      <point x="1247" y="86" type="qcurve" smooth="yes"/>
      <point x="1253" y="86" type="line"/>
      <point x="1253" y="0" type="line"/>
      <point x="928" y="0" type="line"/>
      <point x="901" y="166" type="line"/>
      <point x="891" y="166" type="line"/>
      <point x="794" y="-20"/>
      <point x="559" y="-20" type="qcurve" smooth="yes"/>
      <point x="221" y="-20"/>
      <point x="221" y="381" type="qcurve" smooth="yes"/>
      <point x="221" y="872" type="line" smooth="yes"/>
      <point x="221" y="1012"/>
      <point x="53" y="1012" type="qcurve" smooth="yes"/>
      <point x="47" y="1012" type="line"/>
      <point x="47" y="1098" type="line"/>
      <point x="414" y="1098" type="line"/>
      <point x="414" y="391" type="line" smooth="yes"/>
      <point x="414" y="111"/>
      <point x="629" y="111" type="qcurve" smooth="yes"/>
      <point x="887" y="111"/>
      <point x="887" y="442" type="qcurve" smooth="yes"/>
      <point x="887" y="864" type="line" smooth="yes"/>
      <point x="887" y="1012"/>
      <point x="719" y="1012" type="qcurve" smooth="yes"/>
      <point x="713" y="1012" type="line"/>
      <point x="713" y="1098" type="line"/>
      <point x="1079" y="1098" type="line"/>
    </contour>
    <contour>
      <point x="1300" y="0" type="line"/>
    </contour>
  </outline>
</glyph>
<glyph name="uni01B4" format="2">
  <advance width="1260"/>
  <unicode hex="01B4"/>
  <outline>
    <contour>
      <point x="838" y="774" type="line" smooth="yes"/>
      <point x="901" y="963"/>
      <point x="1036" y="1118"/>
      <point x="1128" y="1118" type="qcurve" smooth="yes"/>
      <point x="1193" y="1118"/>
      <point x="1270" y="1051"/>
      <point x="1270" y="997" type="qcurve" smooth="yes"/>
      <point x="1270" y="970"/>
      <point x="1252" y="926"/>
      <point x="1235" y="913" type="qcurve"/>
      <point x="1216" y="947"/>
      <point x="1160" y="983"/>
      <point x="1126" y="983" type="qcurve" smooth="yes"/>
      <point x="1078" y="983"/>
      <point x="1019" y="918"/>
      <point x="997" y="858" type="qcurve" smooth="yes"/>
      <point x="963" y="764" type="line"/>
      <point x="684" y="-8" type="line" smooth="yes"/>
      <point x="604" y="-228"/>
      <point x="489" y="-402"/>
      <point x="306" y="-492"/>
      <point x="96" y="-492" type="qcurve" smooth="yes"/>
      <point x="78" y="-492" type="line"/>
      <point x="78" y="-395" type="line"/>
      <point x="246" y="-395"/>
      <point x="472" y="-214"/>
      <point x="539" y="8" type="qcurve"/>
      <point x="160" y="903" type="line" smooth="yes"/>
      <point x="134" y="965"/>
      <point x="78" y="1012"/>
      <point x="16" y="1012" type="qcurve" smooth="yes"/>
      <point x="8" y="1012" type="line"/>
      <point x="8" y="1098" type="line"/>
      <point x="500" y="1098" type="line"/>
      <point x="500" y="1012" type="line"/>
      <point x="492" y="1012" type="line" smooth="yes"/>
      <point x="431" y="1012"/>
      <point x="371" y="965"/>
      <point x="371" y="913" type="qcurve" smooth="yes"/>
      <point x="371" y="896"/>
      <point x="378" y="861"/>
      <point x="387" y="838" type="qcurve" smooth="yes"/>
      <point x="537" y="473" type="line" smooth="yes"/>
      <point x="564" y="405"/>
      <point x="621" y="234"/>
      <point x="633" y="176" type="qcurve"/>
      <point x="641" y="176" type="line"/>
      <point x="652" y="221"/>
      <point x="691" y="350"/>
      <point x="717" y="424" type="qcurve" smooth="yes"/>
    </contour>
  </outline>
</glyph>
<glyph name="uni01BE" format="2">
  <advance width="881"/>
  <unicode hex="01BE"/>
  <outline>
    <contour>
      <point x="252" y="981" type="line"/>
      <point x="96" y="981" type="line"/>
      <point x="96" y="1063" type="line"/>
      <point x="185" y="1063"/>
      <point x="319" y="1185"/>
      <point x="350" y="1350" type="qcurve"/>
      <point x="444" y="1350" type="line"/>
      <point x="444" y="1098" type="line"/>
      <point x="713" y="1098" type="line"/>
      <point x="713" y="981" type="line"/>
      <point x="444" y="981" type="line"/>
      <point x="444" y="827" type="line" smooth="yes"/>
      <point x="444" y="719"/>
      <point x="464" y="676"/>
      <point x="504" y="638"/>
      <point x="647" y="572"/>
      <point x="745" y="483"/>
      <point x="791" y="371"/>
      <point x="791" y="301" type="qcurve" smooth="yes"/>
      <point x="791" y="152"/>
      <point x="588" y="-20"/>
      <point x="416" y="-20" type="qcurve" smooth="yes"/>
      <point x="241" y="-20"/>
      <point x="49" y="111"/>
      <point x="49" y="225" type="qcurve" smooth="yes"/>
      <point x="49" y="284"/>
      <point x="117" y="354"/>
      <point x="178" y="354" type="qcurve"/>
      <point x="178" y="224"/>
      <point x="297" y="88"/>
      <point x="414" y="88" type="qcurve" smooth="yes"/>
      <point x="512" y="88"/>
      <point x="625" y="180"/>
      <point x="625" y="264" type="qcurve" smooth="yes"/>
      <point x="625" y="338"/>
      <point x="542" y="418"/>
      <point x="336" y="515"/>
      <point x="252" y="646"/>
      <point x="252" y="797" type="qcurve" smooth="yes"/>
    </contour>
  </outline>
</glyph>
<glyph name="uni01C0" format="2">
  <advance width="1128"/>
  <unicode hex="01C0"/>
  <outline>
    <contour>
      <point x="489" y="1556" type="line"/>
      <point x="639" y="1556" type="line"/>
      <point x="639" y="-492" type="line"/>
      <point x="489" y="-492" type="line"/>
    </contour>
  </outline>
</glyph>
<glyph name="uni01E4" format="2">
  <advance width="1462"/>
  <unicode hex="01E4"/>
  <outline>
    <contour>
      <point x="801" y="412" type="line"/>
      <point x="1067" y="412" type="line"/>
      <point x="1067" y="451" type="line" smooth="yes"/>
      <point x="1067" y="522"/>
      <point x="992" y="590"/>
      <point x="899" y="590" type="qcurve" smooth="yes"/>
      <point x="891" y="590" type="line"/>
      <point x="891" y="676" type="line"/>
      <point x="1423" y="676" type="line"/>
      <point x="1423" y="590" type="line"/>
      <point x="1415" y="590" type="line" smooth="yes"/>
      <point x="1333" y="590"/>
      <point x="1274" y="516"/>
      <point x="1274" y="442" type="qcurve" smooth="yes"/>
      <point x="1274" y="412" type="line"/>
      <point x="1432" y="412" type="line"/>
      <point x="1432" y="311" type="line"/>
      <point x="1274" y="311" type="line"/>
      <point x="1274" y="74" type="line"/>
      <point x="1171" y="26"/>
      <point x="953" y="-20"/>
      <point x="821" y="-20" type="qcurve" smooth="yes"/>
      <point x="483" y="-20"/>
      <point x="117" y="374"/>
      <point x="117" y="733" type="qcurve" smooth="yes"/>
      <point x="117" y="1083"/>
      <point x="498" y="1483"/>
      <point x="834" y="1483" type="qcurve" smooth="yes"/>
      <point x="1048" y="1483"/>
      <point x="1286" y="1357"/>
      <point x="1286" y="1253" type="qcurve" smooth="yes"/>
      <point x="1286" y="1191"/>
      <point x="1179" y="1110"/>
      <point x="1096" y="1110" type="qcurve"/>
      <point x="1096" y="1229"/>
      <point x="953" y="1374"/>
      <point x="825" y="1374" type="qcurve" smooth="yes"/>
      <point x="581" y="1374"/>
      <point x="344" y="1065"/>
      <point x="344" y="733" type="qcurve" smooth="yes"/>
      <point x="344" y="399"/>
      <point x="594" y="96"/>
      <point x="854" y="96" type="qcurve" smooth="yes"/>
      <point x="913" y="96"/>
      <point x="1024" y="108"/>
      <point x="1067" y="121" type="qcurve"/>
      <point x="1067" y="311" type="line"/>
      <point x="801" y="311" type="line"/>
    </contour>
  </outline>
</glyph>
<glyph name="uni0225" format="2">
  <advance width="1047"/>
  <unicode hex="0225"/>
  <outline>
    <contour>
      <point x="86" y="0" type="line"/>
      <point x="86" y="82" type="line"/>
      <point x="680" y="981" type="line"/>
      <point x="360" y="981" type="line" smooth="yes"/>
      <point x="295" y="981"/>
      <point x="229" y="920"/>
      <point x="203" y="815" type="qcurve" smooth="yes"/>
      <point x="201" y="807" type="line"/>
      <point x="115" y="807" type="line"/>
      <point x="135" y="1098" type="line"/>
      <point x="920" y="1098" type="line"/>
      <point x="920" y="1014" type="line"/>
      <point x="324" y="117" type="line"/>
      <point x="664" y="117" type="line" smooth="yes"/>
      <point x="807" y="117"/>
      <point x="950" y="0"/>
      <point x="950" y="-123" type="qcurve" smooth="yes"/>
      <point x="950" y="-206"/>
      <point x="853" y="-317"/>
      <point x="756" y="-336" type="qcurve"/>
      <point x="776" y="-285"/>
      <point x="788" y="-195"/>
      <point x="788" y="-180" type="qcurve" smooth="yes"/>
      <point x="788" y="-86"/>
      <point x="722" y="0"/>
      <point x="614" y="0" type="qcurve" smooth="yes"/>
    </contour>
    <contour>
      <point x="932" y="215" type="line"/>
    </contour>
  </outline>
</glyph>
<glyph name="uni0234" format="2">
  <advance width="803"/>
  <unicode hex="0234"/>
  <outline>
    <contour>
      <point x="236" y="174" type="qcurve"/>
      <point x="210" y="125"/>
      <point x="167" y="6"/>
      <point x="152" y="-63" type="qcurve"/>
      <point x="45" y="-35" type="line"/>
      <point x="74" y="84"/>
      <point x="162" y="269"/>
      <point x="221" y="332" type="qcurve"/>
      <point x="221" y="1331" type="line" smooth="yes"/>
      <point x="221" y="1399"/>
      <point x="150" y="1470"/>
      <point x="53" y="1470" type="qcurve" smooth="yes"/>
      <point x="37" y="1470" type="line"/>
      <point x="37" y="1556" type="line"/>
      <point x="414" y="1556" type="line"/>
      <point x="414" y="451" type="line"/>
      <point x="456" y="463"/>
      <point x="502" y="463" type="qcurve" smooth="yes"/>
      <point x="627" y="463"/>
      <point x="766" y="331"/>
      <point x="766" y="231" type="qcurve" smooth="yes"/>
      <point x="766" y="117"/>
      <point x="617" y="-20"/>
      <point x="494" y="-20" type="qcurve" smooth="yes"/>
      <point x="393" y="-20"/>
      <point x="260" y="78"/>
    </contour>
    <contour>
      <point x="414" y="344" type="qcurve"/>
      <point x="414" y="250" type="line" smooth="yes"/>
      <point x="414" y="172"/>
      <point x="470" y="96"/>
      <point x="535" y="96" type="qcurve" smooth="yes"/>
      <point x="593" y="96"/>
      <point x="655" y="173"/>
      <point x="655" y="231" type="qcurve" smooth="yes"/>
      <point x="655" y="291"/>
      <point x="574" y="360"/>
      <point x="500" y="360" type="qcurve" smooth="yes"/>
      <point x="477" y="360"/>
      <point x="434" y="352"/>
    </contour>
  </outline>
</glyph>
<glyph name="uni023A" format="2">
  <advance width="1444"/>
  <unicode hex="023A"/>
  <outline>
    <contour>
      <point x="659" y="489" type="line"/>
      <point x="485" y="86" type="line"/>
      <point x="500" y="86" type="line"/>
      <point x="500" y="0" type="line"/>
      <point x="449" y="0" type="line"/>
      <point x="397" y="-119" type="line"/>
      <point x="285" y="-119" type="line"/>
      <point x="336" y="0" type="line"/>
      <point x="0" y="0" type="line"/>
      <point x="0" y="86" type="line"/>
      <point x="39" y="86" type="line" smooth="yes"/>
      <point x="102" y="86"/>
      <point x="158" y="151"/>
      <point x="195" y="246" type="qcurve" smooth="yes"/>
      <point x="649" y="1462" type="line"/>
      <point x="809" y="1462" type="line"/>
      <point x="881" y="1264" type="line"/>
      <point x="1008" y="1556" type="line"/>
      <point x="1120" y="1556" type="line"/>
      <point x="932" y="1122" type="line"/>
      <point x="1272" y="195" type="line" smooth="yes"/>
      <point x="1297" y="128"/>
      <point x="1357" y="86"/>
      <point x="1417" y="86" type="qcurve" smooth="yes"/>
      <point x="1444" y="86" type="line"/>
      <point x="1444" y="0" type="line"/>
      <point x="881" y="0" type="line"/>
      <point x="881" y="86" type="line"/>
      <point x="928" y="86" type="line" smooth="yes"/>
      <point x="1051" y="86"/>
      <point x="1051" y="184" type="qcurve" smooth="yes"/>
      <point x="1051" y="201"/>
      <point x="1042" y="237"/>
      <point x="1034" y="260" type="qcurve" smooth="yes"/>
      <point x="952" y="489" type="line"/>
    </contour>
    <contour>
      <point x="453" y="592" type="line"/>
      <point x="592" y="592" type="line"/>
      <point x="770" y="1004" type="line"/>
      <point x="744" y="1078"/>
      <point x="700" y="1211"/>
      <point x="686" y="1274" type="qcurve"/>
      <point x="673" y="1213"/>
      <point x="636" y="1086"/>
      <point x="592" y="969" type="qcurve" smooth="yes"/>
    </contour>
    <contour>
      <point x="377" y="96" type="qcurve"/>
      <point x="547" y="489" type="line"/>
      <point x="414" y="489" type="line"/>
      <point x="336" y="274" type="line" smooth="yes"/>
      <point x="327" y="250"/>
      <point x="317" y="203"/>
      <point x="317" y="186" type="qcurve" smooth="yes"/>
      <point x="317" y="151"/>
      <point x="348" y="107"/>
    </contour>
    <contour>
      <point x="819" y="860" type="line"/>
      <point x="702" y="592" type="line"/>
      <point x="915" y="592" type="line"/>
    </contour>
  </outline>
</glyph>
<glyph name="uni023B" format="2">
  <advance width="1257"/>
  <unicode hex="023B"/>
  <outline>
    <contour>
      <point x="903" y="1475" type="qcurve"/>
      <point x="930" y="1556" type="line"/>
      <point x="1038" y="1556" type="line"/>
      <point x="1006" y="1452" type="line"/>
      <point x="1097" y="1423"/>
      <point x="1188" y="1318"/>
      <point x="1188" y="1253" type="qcurve" smooth="yes"/>
      <point x="1188" y="1190"/>
      <point x="1087" y="1110"/>
      <point x="1010" y="1110" type="qcurve"/>
      <point x="1010" y="1158"/>
      <point x="983" y="1253"/>
      <point x="954" y="1290" type="qcurve"/>
      <point x="598" y="147" type="line"/>
      <point x="635" y="130"/>
      <point x="721" y="115"/>
      <point x="770" y="115" type="qcurve" smooth="yes"/>
      <point x="894" y="115"/>
      <point x="1074" y="199"/>
      <point x="1141" y="289" type="qcurve"/>
      <point x="1158" y="278"/>
      <point x="1180" y="240"/>
      <point x="1180" y="209" type="qcurve" smooth="yes"/>
      <point x="1180" y="118"/>
      <point x="939" y="-20"/>
      <point x="739" y="-20" type="qcurve" smooth="yes"/>
      <point x="688" y="-20"/>
      <point x="596" y="-9"/>
      <point x="553" y="2" type="qcurve"/>
      <point x="516" y="-119" type="line"/>
      <point x="408" y="-119" type="line"/>
      <point x="457" y="39" type="line"/>
      <point x="292" y="121"/>
      <point x="117" y="478"/>
      <point x="117" y="733" type="qcurve" smooth="yes"/>
      <point x="117" y="1081"/>
      <point x="465" y="1483"/>
      <point x="774" y="1483" type="qcurve" smooth="yes"/>
      <point x="809" y="1483"/>
      <point x="874" y="1478"/>
    </contour>
    <contour>
      <point x="508" y="207" type="qcurve"/>
      <point x="866" y="1356" type="line"/>
      <point x="827" y="1374"/>
      <point x="770" y="1374" type="qcurve" smooth="yes"/>
      <point x="553" y="1374"/>
      <point x="344" y="1064"/>
      <point x="344" y="733" type="qcurve" smooth="yes"/>
      <point x="344" y="547"/>
      <point x="427" y="282"/>
    </contour>
  </outline>
</glyph>
<glyph name="uni0243" format="2">
  <advance width="1339"/>
  <unicode hex="0243"/>
  <outline>
    <contour>
      <point x="899" y="774" type="qcurve"/>
      <point x="899" y="766" type="line"/>
      <point x="1050" y="740"/>
      <point x="1214" y="546"/>
      <point x="1214" y="395" type="qcurve" smooth="yes"/>
      <point x="1214" y="197"/>
      <point x="953" y="0"/>
      <point x="688" y="0" type="qcurve" smooth="yes"/>
      <point x="78" y="0" type="line"/>
      <point x="78" y="86" type="line"/>
      <point x="104" y="86" type="line" smooth="yes"/>
      <point x="200" y="86"/>
      <point x="272" y="158"/>
      <point x="272" y="233" type="qcurve" smooth="yes"/>
      <point x="272" y="369" type="line"/>
      <point x="41" y="369" type="line"/>
      <point x="41" y="469" type="line"/>
      <point x="272" y="469" type="line"/>
      <point x="272" y="1237" type="line" smooth="yes"/>
      <point x="272" y="1305"/>
      <point x="201" y="1376"/>
      <point x="104" y="1376" type="qcurve" smooth="yes"/>
      <point x="78" y="1376" type="line"/>
      <point x="78" y="1462" type="line"/>
      <point x="627" y="1462" type="line" smooth="yes"/>
      <point x="890" y="1462"/>
      <point x="1153" y="1286"/>
      <point x="1153" y="1096" type="qcurve" smooth="yes"/>
      <point x="1153" y="980"/>
      <point x="1032" y="818"/>
    </contour>
    <contour>
      <point x="479" y="469" type="line"/>
      <point x="737" y="469" type="line"/>
      <point x="737" y="369" type="line"/>
      <point x="479" y="369" type="line"/>
      <point x="479" y="102" type="line"/>
      <point x="678" y="102" type="line" smooth="yes"/>
      <point x="851" y="102"/>
      <point x="995" y="236"/>
      <point x="995" y="401" type="qcurve" smooth="yes"/>
      <point x="995" y="577"/>
      <point x="848" y="715"/>
      <point x="682" y="715" type="qcurve" smooth="yes"/>
      <point x="479" y="715" type="line"/>
    </contour>
    <contour>
      <point x="479" y="817" type="line"/>
      <point x="621" y="817" type="line" smooth="yes"/>
      <point x="791" y="817"/>
      <point x="934" y="939"/>
      <point x="934" y="1096" type="qcurve" smooth="yes"/>
      <point x="934" y="1243"/>
      <point x="796" y="1360"/>
      <point x="616" y="1360" type="qcurve" smooth="yes"/>
      <point x="479" y="1360" type="line"/>
    </contour>
  </outline>
</glyph>
<glyph name="uni0244" format="2">
  <advance width="1468"/>
  <unicode hex="0244"/>
  <outline>
    <contour>
      <point x="225" y="442" type="qcurve" smooth="yes"/>
      <point x="225" y="715" type="line"/>
      <point x="20" y="715" type="line"/>
      <point x="20" y="815" type="line"/>
      <point x="225" y="815" type="line"/>
      <point x="225" y="1237" type="line" smooth="yes"/>
      <point x="225" y="1305"/>
      <point x="154" y="1376"/>
      <point x="57" y="1376" type="qcurve" smooth="yes"/>
      <point x="31" y="1376" type="line"/>
      <point x="31" y="1462" type="line"/>
      <point x="627" y="1462" type="line"/>
      <point x="627" y="1376" type="line"/>
      <point x="600" y="1376" type="line" smooth="yes"/>
      <point x="503" y="1376"/>
      <point x="432" y="1302"/>
      <point x="432" y="1229" type="qcurve" smooth="yes"/>
      <point x="432" y="815" type="line"/>
      <point x="1118" y="815" type="line"/>
      <point x="1118" y="1237" type="line" smooth="yes"/>
      <point x="1118" y="1305"/>
      <point x="1047" y="1376"/>
      <point x="950" y="1376" type="qcurve" smooth="yes"/>
      <point x="924" y="1376" type="line"/>
      <point x="924" y="1462" type="line"/>
      <point x="1438" y="1462" type="line"/>
      <point x="1438" y="1376" type="line"/>
      <point x="1411" y="1376" type="line" smooth="yes"/>
      <point x="1314" y="1376"/>
      <point x="1243" y="1302"/>
      <point x="1243" y="1229" type="qcurve" smooth="yes"/>
      <point x="1243" y="815" type="line"/>
      <point x="1448" y="815" type="line"/>
      <point x="1448" y="715" type="line"/>
      <point x="1243" y="715" type="line"/>
      <point x="1243" y="418" type="line" smooth="yes"/>
      <point x="1243" y="210"/>
      <point x="981" y="-20"/>
      <point x="741" y="-20" type="qcurve" smooth="yes"/>
      <point x="480" y="-20"/>
      <point x="225" y="209"/>
    </contour>
    <contour>
      <point x="1118" y="422" type="qcurve" smooth="yes"/>
      <point x="1118" y="715" type="line"/>
      <point x="432" y="715" type="line"/>
      <point x="432" y="430" type="line" smooth="yes"/>
      <point x="432" y="269"/>
      <point x="607" y="102"/>
      <point x="774" y="102" type="qcurve" smooth="yes"/>
      <point x="937" y="102"/>
      <point x="1118" y="270"/>
    </contour>
  </outline>
</glyph>
<glyph name="uni024E" format="2">
  <advance width="1280"/>
  <unicode hex="024E"/>
  <outline>
    <contour>
      <point x="326" y="0" type="line"/>
      <point x="326" y="86" type="line"/>
      <point x="373" y="86" type="line" smooth="yes"/>
      <point x="470" y="86"/>
      <point x="541" y="154"/>
      <point x="541" y="223" type="qcurve" smooth="yes"/>
      <point x="541" y="610" type="line"/>
      <point x="279" y="1063" type="line"/>
      <point x="10" y="1063" type="line"/>
      <point x="10" y="1163" type="line"/>
      <point x="221" y="1163" type="line"/>
      <point x="162" y="1268" type="line" smooth="yes"/>
      <point x="122" y="1336"/>
      <point x="62" y="1376"/>
      <point x="16" y="1376" type="qcurve" smooth="yes"/>
      <point x="-10" y="1376" type="line"/>
      <point x="-10" y="1462" type="line"/>
      <point x="553" y="1462" type="line"/>
      <point x="553" y="1376" type="line"/>
      <point x="477" y="1376" type="line" smooth="yes"/>
      <point x="431" y="1376"/>
      <point x="387" y="1346"/>
      <point x="387" y="1311" type="qcurve" smooth="yes"/>
      <point x="387" y="1282"/>
      <point x="412" y="1224"/>
      <point x="424" y="1202" type="qcurve" smooth="yes"/>
      <point x="444" y="1163" type="line"/>
      <point x="932" y="1163" type="line"/>
      <point x="952" y="1198"/>
      <point x="969" y="1261"/>
      <point x="969" y="1286" type="qcurve" smooth="yes"/>
      <point x="969" y="1331"/>
      <point x="906" y="1376"/>
      <point x="846" y="1376" type="qcurve" smooth="yes"/>
      <point x="786" y="1376" type="line"/>
      <point x="786" y="1462" type="line"/>
      <point x="1286" y="1462" type="line"/>
      <point x="1286" y="1376" type="line"/>
      <point x="1262" y="1376" type="line" smooth="yes"/>
      <point x="1215" y="1376"/>
      <point x="1141" y="1303"/>
      <point x="1092" y="1217" type="qcurve" smooth="yes"/>
      <point x="1061" y="1163" type="line"/>
      <point x="1270" y="1163" type="line"/>
      <point x="1270" y="1063" type="line"/>
      <point x="1004" y="1063" type="line"/>
      <point x="748" y="610" type="line"/>
      <point x="748" y="233" type="line" smooth="yes"/>
      <point x="748" y="157"/>
      <point x="820" y="86"/>
      <point x="915" y="86" type="qcurve" smooth="yes"/>
      <point x="963" y="86" type="line"/>
      <point x="963" y="0" type="line"/>
    </contour>
    <contour>
      <point x="500" y="1063" type="line"/>
      <point x="575" y="928" type="line" smooth="yes"/>
      <point x="611" y="865"/>
      <point x="661" y="741"/>
      <point x="678" y="694" type="qcurve"/>
      <point x="693" y="730"/>
      <point x="754" y="845"/>
      <point x="801" y="928" type="qcurve" smooth="yes"/>
      <point x="874" y="1063" type="line"/>
    </contour>
  </outline>
</glyph>
<glyph name="uni025F" format="2">
  <advance width="614"/>
  <unicode hex="025F"/>
  <outline>
    <contour>
      <point x="414" y="1098" type="line"/>
      <point x="414" y="557" type="line"/>
      <point x="594" y="557" type="line"/>
      <point x="594" y="461" type="line"/>
      <point x="414" y="461" type="line"/>
      <point x="414" y="-16" type="line" smooth="yes"/>
      <point x="414" y="-258"/>
      <point x="216" y="-492"/>
      <point x="8" y="-492" type="qcurve" smooth="yes"/>
      <point x="-25" y="-492" type="line"/>
      <point x="-25" y="-395" type="line"/>
      <point x="-10" y="-395" type="line" smooth="yes"/>
      <point x="114" y="-395"/>
      <point x="221" y="-212"/>
      <point x="221" y="-18" type="qcurve" smooth="yes"/>
      <point x="221" y="461" type="line"/>
      <point x="20" y="461" type="line"/>
      <point x="20" y="557" type="line"/>
      <point x="221" y="557" type="line"/>
      <point x="221" y="872" type="line" smooth="yes"/>
      <point x="221" y="941"/>
      <point x="148" y="1012"/>
      <point x="55" y="1012" type="qcurve" smooth="yes"/>
      <point x="47" y="1012" type="line"/>
      <point x="47" y="1098" type="line"/>
    </contour>
  </outline>
</glyph>
<glyph name="uni0261" format="2">
  <advance width="1257"/>
  <unicode hex="0261"/>
  <outline>
    <contour>
      <point x="1036" y="18" type="line" smooth="yes"/>
      <point x="1036" y="-238"/>
      <point x="828" y="-492"/>
      <point x="606" y="-492" type="qcurve" smooth="yes"/>
      <point x="401" y="-492"/>
      <point x="195" y="-377"/>
      <point x="195" y="-270" type="qcurve" smooth="yes"/>
      <point x="195" y="-207"/>
      <point x="286" y="-131"/>
      <point x="367" y="-131" type="qcurve"/>
      <point x="367" y="-278"/>
      <point x="469" y="-389"/>
      <point x="600" y="-389" type="qcurve" smooth="yes"/>
      <point x="716" y="-389"/>
      <point x="844" y="-210"/>
      <point x="844" y="-37" type="qcurve" smooth="yes"/>
      <point x="844" y="20" type="line" smooth="yes"/>
      <point x="844" y="65"/>
      <point x="851" y="198"/>
      <point x="851" y="205" type="qcurve"/>
      <point x="844" y="205" type="line"/>
      <point x="792" y="98"/>
      <point x="637" y="0"/>
      <point x="530" y="0" type="qcurve" smooth="yes"/>
      <point x="319" y="0"/>
      <point x="113" y="273"/>
      <point x="113" y="557" type="qcurve" smooth="yes"/>
      <point x="113" y="841"/>
      <point x="317" y="1118"/>
      <point x="530" y="1118" type="qcurve" smooth="yes"/>
      <point x="636" y="1118"/>
      <point x="791" y="1030"/>
      <point x="844" y="938" type="qcurve"/>
      <point x="856" y="938" type="line"/>
      <point x="893" y="1098" type="line"/>
      <point x="1221" y="1098" type="line"/>
      <point x="1221" y="1012" type="line"/>
      <point x="1204" y="1012" type="line" smooth="yes"/>
      <point x="1106" y="1012"/>
      <point x="1036" y="937"/>
      <point x="1036" y="864" type="qcurve" smooth="yes"/>
    </contour>
    <contour>
      <point x="844" y="557" type="qcurve" smooth="yes"/>
      <point x="844" y="789"/>
      <point x="709" y="987"/>
      <point x="563" y="987" type="qcurve" smooth="yes"/>
      <point x="429" y="987"/>
      <point x="311" y="771"/>
      <point x="311" y="555" type="qcurve" smooth="yes"/>
      <point x="311" y="329"/>
      <point x="432" y="131"/>
      <point x="565" y="131" type="qcurve" smooth="yes"/>
      <point x="712" y="131"/>
      <point x="844" y="322"/>
    </contour>
  </outline>
</glyph>
<glyph name="uni0262" format="2">
  <advance width="1198"/>
  <unicode hex="0262"/>
  <outline>
    <contour>
      <point x="635" y="469" type="line"/>
      <point x="635" y="551" type="line"/>
      <point x="1155" y="551" type="line"/>
      <point x="1155" y="469" type="line"/>
      <point x="1143" y="469" type="line" smooth="yes"/>
      <point x="1055" y="469"/>
      <point x="1001" y="401"/>
      <point x="1001" y="322" type="qcurve" smooth="yes"/>
      <point x="1001" y="57" type="line"/>
      <point x="928" y="20"/>
      <point x="740" y="-20"/>
      <point x="629" y="-20" type="qcurve" smooth="yes"/>
      <point x="376" y="-20"/>
      <point x="113" y="275"/>
      <point x="113" y="551" type="qcurve" smooth="yes"/>
      <point x="113" y="811"/>
      <point x="384" y="1118"/>
      <point x="627" y="1118" type="qcurve" smooth="yes"/>
      <point x="787" y="1118"/>
      <point x="1010" y="1002"/>
      <point x="1010" y="909" type="qcurve" smooth="yes"/>
      <point x="1010" y="838"/>
      <point x="918" y="780"/>
      <point x="827" y="780" type="qcurve"/>
      <point x="827" y="893"/>
      <point x="724" y="1016"/>
      <point x="625" y="1016" type="qcurve" smooth="yes"/>
      <point x="466" y="1016"/>
      <point x="311" y="792"/>
      <point x="311" y="551" type="qcurve" smooth="yes"/>
      <point x="311" y="314"/>
      <point x="465" y="90"/>
      <point x="625" y="90" type="qcurve" smooth="yes"/>
      <point x="676" y="90"/>
      <point x="764" y="104"/>
      <point x="809" y="117" type="qcurve"/>
      <point x="809" y="332" type="line" smooth="yes"/>
      <point x="809" y="402"/>
      <point x="742" y="469"/>
      <point x="647" y="469" type="qcurve" smooth="yes"/>
    </contour>
  </outline>
</glyph>
<glyph name="uni026A" format="2">
  <advance width="676"/>
  <unicode hex="026A"/>
  <outline>
    <contour>
      <point x="242" y="864" type="line" smooth="yes"/>
      <point x="242" y="937"/>
      <point x="171" y="1012"/>
      <point x="74" y="1012" type="qcurve" smooth="yes"/>
      <point x="47" y="1012" type="line"/>
      <point x="47" y="1098" type="line"/>
      <point x="629" y="1098" type="line"/>
      <point x="629" y="1012" type="line"/>
      <point x="602" y="1012" type="line" smooth="yes"/>
      <point x="505" y="1012"/>
      <point x="434" y="943"/>
      <point x="434" y="874" type="qcurve" smooth="yes"/>
      <point x="434" y="233" type="line" smooth="yes"/>
      <point x="434" y="160"/>
      <point x="505" y="86"/>
      <point x="602" y="86" type="qcurve" smooth="yes"/>
      <point x="629" y="86" type="line"/>
      <point x="629" y="0" type="line"/>
      <point x="47" y="0" type="line"/>
      <point x="47" y="86" type="line"/>
      <point x="74" y="86" type="line" smooth="yes"/>
      <point x="171" y="86"/>
      <point x="242" y="154"/>
      <point x="242" y="223" type="qcurve" smooth="yes"/>
    </contour>
  </outline>
</glyph>
<glyph name="uni026B" format="2">
  <advance width="750"/>
  <unicode hex="026B"/>
  <outline>
    <contour>
      <point x="647" y="909" type="qcurve"/>
      <point x="739" y="909" type="line"/>
      <point x="732" y="798"/>
      <point x="620" y="668"/>
      <point x="524" y="668" type="qcurve" smooth="yes"/>
      <point x="510" y="668"/>
      <point x="483" y="668"/>
      <point x="471" y="672" type="qcurve"/>
      <point x="471" y="233" type="line" smooth="yes"/>
      <point x="471" y="160"/>
      <point x="542" y="86"/>
      <point x="639" y="86" type="qcurve" smooth="yes"/>
      <point x="666" y="86" type="line"/>
      <point x="666" y="0" type="line"/>
      <point x="84" y="0" type="line"/>
      <point x="84" y="86" type="line"/>
      <point x="111" y="86" type="line" smooth="yes"/>
      <point x="208" y="86"/>
      <point x="279" y="160"/>
      <point x="279" y="233" type="qcurve" smooth="yes"/>
      <point x="279" y="772" type="line"/>
      <point x="259" y="783"/>
      <point x="221" y="797"/>
      <point x="203" y="797" type="qcurve" smooth="yes"/>
      <point x="160" y="797"/>
      <point x="111" y="753"/>
      <point x="102" y="688" type="qcurve"/>
      <point x="10" y="688" type="line"/>
      <point x="17" y="800"/>
      <point x="131" y="930"/>
      <point x="227" y="930" type="qcurve" smooth="yes"/>
      <point x="253" y="930"/>
      <point x="279" y="924" type="qcurve"/>
      <point x="279" y="1331" type="line" smooth="yes"/>
      <point x="279" y="1399"/>
      <point x="208" y="1470"/>
      <point x="111" y="1470" type="qcurve" smooth="yes"/>
      <point x="84" y="1470" type="line"/>
      <point x="84" y="1556" type="line"/>
      <point x="471" y="1556" type="line"/>
      <point x="471" y="825" type="line"/>
      <point x="491" y="814"/>
      <point x="528" y="801"/>
      <point x="547" y="801" type="qcurve" smooth="yes"/>
      <point x="590" y="801"/>
      <point x="638" y="844"/>
    </contour>
  </outline>
</glyph>
<glyph name="uni026C" format="2">
  <advance width="717"/>
  <unicode hex="026C"/>
  <outline>
    <contour>
      <point x="109" y="86" type="line" smooth="yes"/>
      <point x="204" y="86"/>
      <point x="276" y="157"/>
      <point x="276" y="233" type="qcurve" smooth="yes"/>
      <point x="276" y="674" type="line"/>
      <point x="254" y="674" type="line" smooth="yes"/>
      <point x="131" y="674"/>
      <point x="10" y="767"/>
      <point x="10" y="868" type="qcurve" smooth="yes"/>
      <point x="10" y="942"/>
      <point x="123" y="1051"/>
      <point x="219" y="1051" type="qcurve" smooth="yes"/>
      <point x="233" y="1051"/>
      <point x="262" y="1047"/>
      <point x="276" y="1042" type="qcurve"/>
      <point x="276" y="1331" type="line" smooth="yes"/>
      <point x="276" y="1399"/>
      <point x="205" y="1470"/>
      <point x="109" y="1470" type="qcurve" smooth="yes"/>
      <point x="82" y="1470" type="line"/>
      <point x="82" y="1556" type="line"/>
      <point x="469" y="1556" type="line"/>
      <point x="469" y="776" type="line"/>
      <point x="686" y="776" type="line"/>
      <point x="686" y="674" type="line"/>
      <point x="469" y="674" type="line"/>
      <point x="469" y="233" type="line" smooth="yes"/>
      <point x="469" y="160"/>
      <point x="540" y="86"/>
      <point x="637" y="86" type="qcurve" smooth="yes"/>
      <point x="664" y="86" type="line"/>
      <point x="664" y="0" type="line"/>
      <point x="72" y="0" type="line"/>
      <point x="72" y="86" type="line"/>
    </contour>
    <contour>
      <point x="258" y="776" type="qcurve" smooth="yes"/>
      <point x="276" y="776" type="line"/>
      <point x="276" y="836" type="line" smooth="yes"/>
      <point x="276" y="888"/>
      <point x="237" y="948"/>
      <point x="199" y="948" type="qcurve" smooth="yes"/>
      <point x="162" y="948"/>
      <point x="121" y="901"/>
      <point x="121" y="870" type="qcurve" smooth="yes"/>
      <point x="121" y="828"/>
      <point x="187" y="776"/>
    </contour>
  </outline>
</glyph>
<glyph name="uni0272" format="2">
  <advance width="1321"/>
  <unicode hex="0272"/>
  <outline>
    <contour>
      <point x="434" y="-16" type="line" smooth="yes"/>
      <point x="434" y="-251"/>
      <point x="271" y="-492"/>
      <point x="113" y="-492" type="qcurve" smooth="yes"/>
      <point x="-11" y="-492"/>
      <point x="-154" y="-405"/>
      <point x="-154" y="-330" type="qcurve" smooth="yes"/>
      <point x="-154" y="-274"/>
      <point x="-77" y="-195"/>
      <point x="4" y="-193" type="qcurve"/>
      <point x="4" y="-298"/>
      <point x="58" y="-397"/>
      <point x="111" y="-397" type="qcurve" smooth="yes"/>
      <point x="186" y="-397"/>
      <point x="242" y="-215"/>
      <point x="242" y="-18" type="qcurve" smooth="yes"/>
      <point x="242" y="872" type="line" smooth="yes"/>
      <point x="242" y="941"/>
      <point x="169" y="1012"/>
      <point x="76" y="1012" type="qcurve" smooth="yes"/>
      <point x="68" y="1012" type="line"/>
      <point x="68" y="1098" type="line"/>
      <point x="399" y="1098" type="line"/>
      <point x="426" y="932" type="line"/>
      <point x="436" y="932" type="line"/>
      <point x="486" y="1025"/>
      <point x="631" y="1118"/>
      <point x="756" y="1118" type="qcurve" smooth="yes"/>
      <point x="925" y="1118"/>
      <point x="1100" y="918"/>
      <point x="1100" y="717" type="qcurve" smooth="yes"/>
      <point x="1100" y="233" type="line" smooth="yes"/>
      <point x="1100" y="159"/>
      <point x="1162" y="86"/>
      <point x="1255" y="86" type="qcurve" smooth="yes"/>
      <point x="1264" y="86" type="line"/>
      <point x="1264" y="0" type="line"/>
      <point x="907" y="0" type="line"/>
      <point x="907" y="707" type="line" smooth="yes"/>
      <point x="907" y="851"/>
      <point x="799" y="987"/>
      <point x="682" y="987" type="qcurve" smooth="yes"/>
      <point x="561" y="987"/>
      <point x="434" y="814"/>
      <point x="434" y="655" type="qcurve" smooth="yes"/>
    </contour>
  </outline>
</glyph>
<glyph name="uni0274" format="2">
  <advance width="1358"/>
  <unicode hex="0274"/>
  <outline>
    <contour>
      <point x="997" y="0" type="line"/>
      <point x="350" y="836" type="line"/>
      <point x="350" y="223" type="line" smooth="yes"/>
      <point x="350" y="155"/>
      <point x="420" y="86"/>
      <point x="516" y="86" type="qcurve" smooth="yes"/>
      <point x="535" y="86" type="line"/>
      <point x="535" y="0" type="line"/>
      <point x="57" y="0" type="line"/>
      <point x="57" y="86" type="line"/>
      <point x="74" y="86" type="line" smooth="yes"/>
      <point x="171" y="86"/>
      <point x="242" y="154"/>
      <point x="242" y="223" type="qcurve" smooth="yes"/>
      <point x="242" y="872" type="line" smooth="yes"/>
      <point x="242" y="942"/>
      <point x="168" y="1012"/>
      <point x="74" y="1012" type="qcurve" smooth="yes"/>
      <point x="57" y="1012" type="line"/>
      <point x="57" y="1098" type="line"/>
      <point x="391" y="1098" type="line"/>
      <point x="1018" y="293" type="line"/>
      <point x="1018" y="872" type="line" smooth="yes"/>
      <point x="1018" y="941"/>
      <point x="945" y="1012"/>
      <point x="852" y="1012" type="qcurve" smooth="yes"/>
      <point x="834" y="1012" type="line"/>
      <point x="834" y="1098" type="line"/>
      <point x="1311" y="1098" type="line"/>
      <point x="1311" y="1012" type="line"/>
      <point x="1294" y="1012" type="line" smooth="yes"/>
      <point x="1197" y="1012"/>
      <point x="1126" y="943"/>
      <point x="1126" y="874" type="qcurve" smooth="yes"/>
      <point x="1126" y="0" type="line"/>
    </contour>
  </outline>
</glyph>
<glyph name="uni027C" format="2">
  <advance width="965"/>
  <unicode hex="027C"/>
  <outline>
    <contour>
      <point x="659" y="-492" type="line"/>
      <point x="68" y="-492" type="line"/>
      <point x="68" y="-406" type="line"/>
      <point x="76" y="-406" type="line" smooth="yes"/>
      <point x="172" y="-406"/>
      <point x="242" y="-333"/>
      <point x="242" y="-258" type="qcurve" smooth="yes"/>
      <point x="242" y="872" type="line" smooth="yes"/>
      <point x="242" y="941"/>
      <point x="169" y="1012"/>
      <point x="76" y="1012" type="qcurve" smooth="yes"/>
      <point x="68" y="1012" type="line"/>
      <point x="68" y="1098" type="line"/>
      <point x="383" y="1098" type="line"/>
      <point x="422" y="895" type="line"/>
      <point x="432" y="895" type="line"/>
      <point x="472" y="1012"/>
      <point x="625" y="1118"/>
      <point x="737" y="1118" type="qcurve" smooth="yes"/>
      <point x="830" y="1118"/>
      <point x="934" y="1040"/>
      <point x="934" y="969" type="qcurve" smooth="yes"/>
      <point x="934" y="904"/>
      <point x="846" y="823"/>
      <point x="743" y="823" type="qcurve"/>
      <point x="743" y="907"/>
      <point x="695" y="983"/>
      <point x="635" y="983" type="qcurve" smooth="yes"/>
      <point x="543" y="983"/>
      <point x="434" y="722"/>
      <point x="434" y="545" type="qcurve" smooth="yes"/>
      <point x="434" y="-268" type="line" smooth="yes"/>
      <point x="434" y="-337"/>
      <point x="505" y="-406"/>
      <point x="602" y="-406" type="qcurve" smooth="yes"/>
      <point x="659" y="-406" type="line"/>
    </contour>
  </outline>
</glyph>
<glyph name="uni0281" format="2">
  <advance width="1159"/>
  <unicode hex="0281"/>
  <outline>
    <contour>
      <point x="774" y="932" type="line" smooth="yes"/>
      <point x="820" y="1008"/>
      <point x="888" y="1065"/>
      <point x="990" y="1098"/>
      <point x="1073" y="1098" type="qcurve" smooth="yes"/>
      <point x="1143" y="1098" type="line"/>
      <point x="1143" y="1012" type="line"/>
      <point x="1122" y="1012" type="line" smooth="yes"/>
      <point x="1085" y="1012"/>
      <point x="1023" y="972"/>
      <point x="969" y="889" type="qcurve" smooth="yes"/>
      <point x="768" y="578" type="line"/>
      <point x="886" y="555"/>
      <point x="1036" y="400"/>
      <point x="1036" y="291" type="qcurve" smooth="yes"/>
      <point x="1036" y="154"/>
      <point x="837" y="0"/>
      <point x="623" y="0" type="qcurve" smooth="yes"/>
      <point x="47" y="0" type="line"/>
      <point x="47" y="86" type="line"/>
      <point x="76" y="86" type="line" smooth="yes"/>
      <point x="173" y="86"/>
      <point x="242" y="158"/>
      <point x="242" y="225" type="qcurve" smooth="yes"/>
      <point x="242" y="874" type="line" smooth="yes"/>
      <point x="242" y="942"/>
      <point x="173" y="1012"/>
      <point x="76" y="1012" type="qcurve" smooth="yes"/>
      <point x="68" y="1012" type="line"/>
      <point x="68" y="1098" type="line"/>
      <point x="618" y="1098" type="line"/>
      <point x="618" y="1012" type="line"/>
      <point x="602" y="1012" type="line" smooth="yes"/>
      <point x="505" y="1012"/>
      <point x="434" y="943"/>
      <point x="434" y="874" type="qcurve" smooth="yes"/>
      <point x="434" y="614" type="line"/>
      <point x="584" y="614" type="line"/>
    </contour>
    <contour>
      <point x="612" y="94" type="line" smooth="yes"/>
      <point x="720" y="94"/>
      <point x="838" y="202"/>
      <point x="838" y="299" type="qcurve" smooth="yes"/>
      <point x="838" y="403"/>
      <point x="720" y="516"/>
      <point x="612" y="516" type="qcurve" smooth="yes"/>
      <point x="434" y="516" type="line"/>
      <point x="434" y="94" type="line"/>
    </contour>
  </outline>
</glyph>
<glyph name="uni0288" format="2">
  <advance width="721"/>
  <unicode hex="0288"/>
  <outline>
    <contour>
      <point x="674" y="-369" type="qcurve"/>
      <point x="674" y="-459" type="line"/>
      <point x="645" y="-473"/>
      <point x="534" y="-492"/>
      <point x="492" y="-492" type="qcurve" smooth="yes"/>
      <point x="328" y="-492"/>
      <point x="195" y="-342"/>
      <point x="195" y="-174" type="qcurve" smooth="yes"/>
      <point x="195" y="981" type="line"/>
      <point x="39" y="981" type="line"/>
      <point x="39" y="1063" type="line"/>
      <point x="125" y="1063"/>
      <point x="258" y="1179"/>
      <point x="293" y="1350" type="qcurve"/>
      <point x="387" y="1350" type="line"/>
      <point x="387" y="1098" type="line"/>
      <point x="655" y="1098" type="line"/>
      <point x="655" y="981" type="line"/>
      <point x="387" y="981" type="line"/>
      <point x="387" y="-180" type="line" smooth="yes"/>
      <point x="387" y="-285"/>
      <point x="472" y="-383"/>
      <point x="543" y="-383" type="qcurve" smooth="yes"/>
      <point x="580" y="-383"/>
      <point x="642" y="-375"/>
    </contour>
  </outline>
</glyph>
<glyph name="uni0293" format="2">
  <advance width="1120"/>
  <unicode hex="0293"/>
  <outline>
    <contour>
      <point x="1004" y="-483" type="line"/>
      <point x="973" y="-438"/>
      <point x="909" y="-359"/>
      <point x="877" y="-324" type="qcurve"/>
      <point x="799" y="-405"/>
      <point x="577" y="-492"/>
      <point x="442" y="-492" type="qcurve" smooth="yes"/>
      <point x="272" y="-492"/>
      <point x="82" y="-361"/>
      <point x="82" y="-256" type="qcurve" smooth="yes"/>
      <point x="82" y="-127"/>
      <point x="263" y="0"/>
      <point x="436" y="0" type="qcurve" smooth="yes"/>
      <point x="536" y="0"/>
      <point x="715" y="-53"/>
      <point x="797" y="-109" type="qcurve"/>
      <point x="809" y="-51"/>
      <point x="809" y="23" type="qcurve" smooth="yes"/>
      <point x="809" y="186"/>
      <point x="605" y="356"/>
      <point x="399" y="356" type="qcurve" smooth="yes"/>
      <point x="352" y="356" type="line"/>
      <point x="352" y="440" type="line"/>
      <point x="756" y="934" type="line"/>
      <point x="385" y="934" type="line" smooth="yes"/>
      <point x="319" y="934"/>
      <point x="263" y="883"/>
      <point x="252" y="805" type="qcurve" smooth="yes"/>
      <point x="248" y="776" type="line"/>
      <point x="147" y="776" type="line"/>
      <point x="160" y="1098" type="line"/>
      <point x="954" y="1098" type="line"/>
      <point x="954" y="997" type="line"/>
      <point x="512" y="465" type="line"/>
      <point x="757" y="451"/>
      <point x="1008" y="233"/>
      <point x="1008" y="33" type="qcurve" smooth="yes"/>
      <point x="1008" y="-46"/>
      <point x="974" y="-179"/>
      <point x="942" y="-236" type="qcurve"/>
      <point x="980" y="-274"/>
      <point x="1053" y="-366"/>
      <point x="1092" y="-420" type="qcurve"/>
    </contour>
    <contour>
      <point x="760" y="-215" type="qcurve"/>
      <point x="686" y="-159"/>
      <point x="523" y="-98"/>
      <point x="436" y="-98" type="qcurve" smooth="yes"/>
      <point x="304" y="-98"/>
      <point x="190" y="-173"/>
      <point x="190" y="-252" type="qcurve" smooth="yes"/>
      <point x="190" y="-317"/>
      <point x="320" y="-393"/>
      <point x="440" y="-393" type="qcurve" smooth="yes"/>
      <point x="546" y="-393"/>
      <point x="712" y="-306"/>
    </contour>
  </outline>
</glyph>
<glyph name="uni0295" format="2">
  <advance width="993"/>
  <unicode hex="0295"/>
  <outline>
    <contour>
      <point x="524" y="1556" type="qcurve" smooth="yes"/>
      <point x="706" y="1556"/>
      <point x="928" y="1415"/>
      <point x="928" y="1317" type="qcurve" smooth="yes"/>
      <point x="928" y="1251"/>
      <point x="840" y="1184"/>
      <point x="766" y="1184" type="qcurve"/>
      <point x="766" y="1317"/>
      <point x="642" y="1454"/>
      <point x="524" y="1454" type="qcurve" smooth="yes"/>
      <point x="412" y="1454"/>
      <point x="287" y="1301"/>
      <point x="287" y="1167" type="qcurve" smooth="yes"/>
      <point x="287" y="1022"/>
      <point x="438" y="837"/>
      <point x="639" y="745" type="qcurve"/>
      <point x="639" y="233" type="line" smooth="yes"/>
      <point x="639" y="160"/>
      <point x="710" y="86"/>
      <point x="807" y="86" type="qcurve" smooth="yes"/>
      <point x="834" y="86" type="line"/>
      <point x="834" y="0" type="line"/>
      <point x="252" y="0" type="line"/>
      <point x="252" y="86" type="line"/>
      <point x="279" y="86" type="line" smooth="yes"/>
      <point x="374" y="86"/>
      <point x="446" y="157"/>
      <point x="446" y="233" type="qcurve" smooth="yes"/>
      <point x="446" y="649" type="line"/>
      <point x="258" y="748"/>
      <point x="94" y="988"/>
      <point x="94" y="1157" type="qcurve" smooth="yes"/>
      <point x="94" y="1333"/>
      <point x="322" y="1556"/>
    </contour>
  </outline>
</glyph>
<glyph name="uni0297" format="2">
  <advance width="1008"/>
  <unicode hex="0297"/>
  <outline>
    <contour>
      <point x="113" y="307" type="qcurve" smooth="yes"/>
      <point x="113" y="699"/>
      <point x="354" y="1118"/>
      <point x="580" y="1118" type="qcurve" smooth="yes"/>
      <point x="723" y="1118"/>
      <point x="926" y="1002"/>
      <point x="926" y="909" type="qcurve" smooth="yes"/>
      <point x="926" y="838"/>
      <point x="834" y="780"/>
      <point x="743" y="780" type="qcurve"/>
      <point x="743" y="898"/>
      <point x="658" y="1016"/>
      <point x="569" y="1016" type="qcurve" smooth="yes"/>
      <point x="432" y="1016"/>
      <point x="311" y="670"/>
      <point x="311" y="301" type="qcurve" smooth="yes"/>
      <point x="311" y="-31"/>
      <point x="457" y="-354"/>
      <point x="621" y="-354" type="qcurve" smooth="yes"/>
      <point x="716" y="-354"/>
      <point x="858" y="-274"/>
      <point x="893" y="-211" type="qcurve"/>
      <point x="908" y="-223"/>
      <point x="928" y="-263"/>
      <point x="928" y="-291" type="qcurve" smooth="yes"/>
      <point x="928" y="-370"/>
      <point x="737" y="-487"/>
      <point x="580" y="-487" type="qcurve" smooth="yes"/>
      <point x="357" y="-487"/>
      <point x="113" y="-74"/>
    </contour>
  </outline>
</glyph>
<glyph name="uni029A" format="2">
  <advance width="1137"/>
  <unicode hex="029A"/>
  <outline>
    <contour>
      <point x="549" y="-20" type="qcurve" smooth="yes"/>
      <point x="339" y="-18"/>
      <point x="113" y="162"/>
      <point x="113" y="319" type="qcurve" smooth="yes"/>
      <point x="113" y="414"/>
      <point x="230" y="543"/>
      <point x="354" y="573" type="qcurve"/>
      <point x="354" y="584" type="line"/>
      <point x="260" y="615"/>
      <point x="147" y="748"/>
      <point x="147" y="829" type="qcurve" smooth="yes"/>
      <point x="147" y="964"/>
      <point x="362" y="1118"/>
      <point x="543" y="1118" type="qcurve" smooth="yes"/>
      <point x="777" y="1118"/>
      <point x="1024" y="830"/>
      <point x="1024" y="551" type="qcurve" smooth="yes"/>
      <point x="1024" y="266"/>
      <point x="785" y="-20"/>
    </contour>
    <contour>
      <point x="342" y="829" type="qcurve" smooth="yes"/>
      <point x="342" y="741"/>
      <point x="452" y="633"/>
      <point x="549" y="633" type="qcurve" smooth="yes"/>
      <point x="659" y="633" type="line"/>
      <point x="659" y="522" type="line"/>
      <point x="551" y="522" type="line" smooth="yes"/>
      <point x="438" y="522"/>
      <point x="311" y="425"/>
      <point x="311" y="322" type="qcurve" smooth="yes"/>
      <point x="311" y="209"/>
      <point x="429" y="86"/>
      <point x="545" y="86" type="qcurve" smooth="yes"/>
      <point x="690" y="86"/>
      <point x="825" y="308"/>
      <point x="825" y="551" type="qcurve" smooth="yes"/>
      <point x="825" y="783"/>
      <point x="711" y="1012"/>
      <point x="547" y="1012" type="qcurve" smooth="yes"/>
      <point x="449" y="1012"/>
      <point x="342" y="912"/>
    </contour>
  </outline>
</glyph>
<glyph name="uni029D" format="2">
  <advance width="614"/>
  <unicode hex="029D"/>
  <outline>
    <contour>
      <point x="410" y="-168" type="line"/>
      <point x="392" y="-326"/>
      <point x="227" y="-492"/>
      <point x="88" y="-492" type="qcurve" smooth="yes"/>
      <point x="-13" y="-492"/>
      <point x="-129" y="-385"/>
      <point x="-129" y="-295" type="qcurve" smooth="yes"/>
      <point x="-129" y="-190"/>
      <point x="23" y="-72"/>
      <point x="166" y="-72" type="qcurve" smooth="yes"/>
      <point x="221" y="-72" type="line"/>
      <point x="221" y="872" type="line" smooth="yes"/>
      <point x="221" y="941"/>
      <point x="148" y="1012"/>
      <point x="55" y="1012" type="qcurve" smooth="yes"/>
      <point x="47" y="1012" type="line"/>
      <point x="47" y="1098" type="line"/>
      <point x="414" y="1098" type="line"/>
      <point x="414" y="-72" type="line"/>
      <point x="594" y="-72" type="line"/>
      <point x="594" y="-168" type="line"/>
    </contour>
    <contour>
      <point x="309" y="1556" type="qcurve" smooth="yes"/>
      <point x="370" y="1556"/>
      <point x="426" y="1489"/>
      <point x="426" y="1430" type="qcurve" smooth="yes"/>
      <point x="426" y="1370"/>
      <point x="367" y="1303"/>
      <point x="309" y="1303" type="qcurve" smooth="yes"/>
      <point x="252" y="1303"/>
      <point x="193" y="1367"/>
      <point x="193" y="1430" type="qcurve" smooth="yes"/>
      <point x="193" y="1491"/>
      <point x="249" y="1556"/>
    </contour>
    <contour>
      <point x="217" y="-168" type="qcurve"/>
      <point x="162" y="-168" type="line" smooth="yes"/>
      <point x="65" y="-168"/>
      <point x="-18" y="-233"/>
      <point x="-18" y="-295" type="qcurve" smooth="yes"/>
      <point x="-18" y="-395"/>
      <point x="86" y="-395" type="qcurve" smooth="yes"/>
      <point x="145" y="-395"/>
      <point x="210" y="-281"/>
    </contour>
  </outline>
</glyph>
<glyph name="uni02A3" format="2">
  <advance width="1968"/>
  <unicode hex="02A3"/>
  <outline>
    <contour>
      <point x="1036" y="1098" type="line"/>
      <point x="1841" y="1098" type="line"/>
      <point x="1841" y="1014" type="line"/>
      <point x="1245" y="117" type="line"/>
      <point x="1618" y="117" type="line" smooth="yes"/>
      <point x="1666" y="117"/>
      <point x="1735" y="181"/>
      <point x="1757" y="285" type="qcurve" smooth="yes"/>
      <point x="1767" y="332" type="line"/>
      <point x="1853" y="332" type="line"/>
      <point x="1843" y="0" type="line"/>
      <point x="874" y="0" type="line"/>
      <point x="852" y="184" type="line"/>
      <point x="844" y="184" type="line"/>
      <point x="793" y="79"/>
      <point x="638" y="-20"/>
      <point x="530" y="-20" type="qcurve" smooth="yes"/>
      <point x="321" y="-20"/>
      <point x="113" y="260"/>
      <point x="113" y="547" type="qcurve" smooth="yes"/>
      <point x="113" y="835"/>
      <point x="320" y="1118"/>
      <point x="530" y="1118" type="qcurve" smooth="yes"/>
      <point x="636" y="1118"/>
      <point x="791" y="1030"/>
      <point x="844" y="938" type="qcurve"/>
      <point x="856" y="938" type="line"/>
      <point x="856" y="958"/>
      <point x="844" y="1134"/>
      <point x="844" y="1163" type="qcurve" smooth="yes"/>
      <point x="844" y="1331" type="line" smooth="yes"/>
      <point x="844" y="1399"/>
      <point x="773" y="1470"/>
      <point x="676" y="1470" type="qcurve" smooth="yes"/>
      <point x="659" y="1470" type="line"/>
      <point x="659" y="1556" type="line"/>
      <point x="1036" y="1556" type="line"/>
    </contour>
    <contour>
      <point x="844" y="547" type="qcurve" smooth="yes"/>
      <point x="844" y="787"/>
      <point x="709" y="987"/>
      <point x="563" y="987" type="qcurve" smooth="yes"/>
      <point x="435" y="987"/>
      <point x="311" y="772"/>
      <point x="311" y="545" type="qcurve" smooth="yes"/>
      <point x="311" y="317"/>
      <point x="434" y="111"/>
      <point x="565" y="111" type="qcurve" smooth="yes"/>
      <point x="714" y="111"/>
      <point x="844" y="305"/>
    </contour>
    <contour>
      <point x="1036" y="981" type="line"/>
      <point x="1036" y="125" type="line"/>
      <point x="1602" y="981" type="line"/>
    </contour>
  </outline>
</glyph>
<glyph name="uni02A4" format="2">
  <advance width="1948"/>
  <unicode hex="02A4"/>
  <outline>
    <contour>
      <point x="1782" y="1098" type="line"/>
      <point x="1782" y="997" type="line"/>
      <point x="1339" y="465" type="line"/>
      <point x="1590" y="451"/>
      <point x="1835" y="223"/>
      <point x="1835" y="16" type="qcurve" smooth="yes"/>
      <point x="1835" y="-223"/>
      <point x="1546" y="-492"/>
      <point x="1313" y="-492" type="qcurve" smooth="yes"/>
      <point x="1115" y="-492"/>
      <point x="909" y="-382"/>
      <point x="909" y="-291" type="qcurve" smooth="yes"/>
      <point x="909" y="-226"/>
      <point x="985" y="-160"/>
      <point x="1061" y="-160" type="qcurve"/>
      <point x="1061" y="-258"/>
      <point x="1195" y="-393"/>
      <point x="1311" y="-393" type="qcurve" smooth="yes"/>
      <point x="1463" y="-393"/>
      <point x="1636" y="-189"/>
      <point x="1636" y="0" type="qcurve" smooth="yes"/>
      <point x="1636" y="183"/>
      <point x="1432" y="356"/>
      <point x="1227" y="356" type="qcurve" smooth="yes"/>
      <point x="1180" y="356" type="line"/>
      <point x="1180" y="440" type="line"/>
      <point x="1583" y="934" type="line"/>
      <point x="1036" y="934" type="line"/>
      <point x="1036" y="225" type="line" smooth="yes"/>
      <point x="1036" y="157"/>
      <point x="1107" y="86"/>
      <point x="1204" y="86" type="qcurve" smooth="yes"/>
      <point x="1221" y="86" type="line"/>
      <point x="1221" y="0" type="line"/>
      <point x="874" y="0" type="line"/>
      <point x="852" y="184" type="line"/>
      <point x="844" y="184" type="line"/>
      <point x="793" y="79"/>
      <point x="638" y="-20"/>
      <point x="530" y="-20" type="qcurve" smooth="yes"/>
      <point x="321" y="-20"/>
      <point x="113" y="260"/>
      <point x="113" y="547" type="qcurve" smooth="yes"/>
      <point x="113" y="835"/>
      <point x="320" y="1118"/>
      <point x="530" y="1118" type="qcurve" smooth="yes"/>
      <point x="636" y="1118"/>
      <point x="791" y="1030"/>
      <point x="844" y="938" type="qcurve"/>
      <point x="856" y="938" type="line"/>
      <point x="856" y="958"/>
      <point x="844" y="1134"/>
      <point x="844" y="1163" type="qcurve" smooth="yes"/>
      <point x="844" y="1331" type="line" smooth="yes"/>
      <point x="844" y="1399"/>
      <point x="773" y="1470"/>
      <point x="676" y="1470" type="qcurve" smooth="yes"/>
      <point x="659" y="1470" type="line"/>
      <point x="659" y="1556" type="line"/>
      <point x="1036" y="1556" type="line"/>
      <point x="1036" y="1098" type="line"/>
    </contour>
    <contour>
      <point x="844" y="547" type="qcurve" smooth="yes"/>
      <point x="844" y="787"/>
      <point x="709" y="987"/>
      <point x="563" y="987" type="qcurve" smooth="yes"/>
      <point x="435" y="987"/>
      <point x="311" y="772"/>
      <point x="311" y="545" type="qcurve" smooth="yes"/>
      <point x="311" y="317"/>
      <point x="434" y="111"/>
      <point x="565" y="111" type="qcurve" smooth="yes"/>
      <point x="714" y="111"/>
      <point x="844" y="305"/>
    </contour>
  </outline>
</glyph>
<glyph name="uni02A5" format="2">
  <advance width="1968"/>
  <unicode hex="02A5"/>
  <outline>
    <contour>
      <point x="874" y="0" type="line"/>
      <point x="852" y="184" type="line"/>
      <point x="844" y="184" type="line"/>
      <point x="793" y="79"/>
      <point x="638" y="-20"/>
      <point x="530" y="-20" type="qcurve" smooth="yes"/>
      <point x="321" y="-20"/>
      <point x="113" y="260"/>
      <point x="113" y="547" type="qcurve" smooth="yes"/>
      <point x="113" y="835"/>
      <point x="320" y="1118"/>
      <point x="530" y="1118" type="qcurve" smooth="yes"/>
      <point x="636" y="1118"/>
      <point x="791" y="1030"/>
      <point x="844" y="938" type="qcurve"/>
      <point x="856" y="938" type="line"/>
      <point x="856" y="958"/>
      <point x="844" y="1134"/>
      <point x="844" y="1163" type="qcurve" smooth="yes"/>
      <point x="844" y="1331" type="line" smooth="yes"/>
      <point x="844" y="1399"/>
      <point x="773" y="1470"/>
      <point x="676" y="1470" type="qcurve" smooth="yes"/>
      <point x="659" y="1470" type="line"/>
      <point x="659" y="1556" type="line"/>
      <point x="1036" y="1556" type="line"/>
      <point x="1036" y="1098" type="line"/>
      <point x="1841" y="1098" type="line"/>
      <point x="1841" y="1014" type="line"/>
      <point x="1245" y="117" type="line"/>
      <point x="1409" y="117" type="line"/>
      <point x="1462" y="282"/>
      <point x="1610" y="442"/>
      <point x="1722" y="442" type="qcurve" smooth="yes"/>
      <point x="1811" y="442"/>
      <point x="1921" y="333"/>
      <point x="1921" y="246" type="qcurve" smooth="yes"/>
      <point x="1921" y="124"/>
      <point x="1755" y="0"/>
      <point x="1599" y="0" type="qcurve" smooth="yes"/>
      <point x="1485" y="0" type="line"/>
      <point x="1476" y="-37"/>
      <point x="1462" y="-119"/>
      <point x="1454" y="-166" type="qcurve"/>
      <point x="1348" y="-137" type="line"/>
      <point x="1354" y="-100"/>
      <point x="1368" y="-31"/>
      <point x="1376" y="0" type="qcurve"/>
    </contour>
    <contour>
      <point x="844" y="547" type="qcurve" smooth="yes"/>
      <point x="844" y="787"/>
      <point x="709" y="987"/>
      <point x="563" y="987" type="qcurve" smooth="yes"/>
      <point x="435" y="987"/>
      <point x="311" y="772"/>
      <point x="311" y="545" type="qcurve" smooth="yes"/>
      <point x="311" y="317"/>
      <point x="434" y="111"/>
      <point x="565" y="111" type="qcurve" smooth="yes"/>
      <point x="714" y="111"/>
      <point x="844" y="305"/>
    </contour>
    <contour>
      <point x="1036" y="981" type="line"/>
      <point x="1036" y="125" type="line"/>
      <point x="1602" y="981" type="line"/>
    </contour>
    <contour>
      <point x="1516" y="117" type="qcurve"/>
      <point x="1616" y="117" type="line" smooth="yes"/>
      <point x="1712" y="117"/>
      <point x="1802" y="185"/>
      <point x="1802" y="244" type="qcurve" smooth="yes"/>
      <point x="1802" y="285"/>
      <point x="1754" y="340"/>
      <point x="1706" y="340" type="qcurve" smooth="yes"/>
      <point x="1644" y="340"/>
      <point x="1553" y="234"/>
    </contour>
    <contour>
      <point x="1853" y="0" type="line"/>
    </contour>
  </outline>
</glyph>
<glyph name="uni02AA" format="2">
  <advance width="1395"/>
  <unicode hex="02AA"/>
  <outline>
    <contour>
      <point x="735" y="0" type="qcurve"/>
      <point x="27" y="0" type="line"/>
      <point x="27" y="86" type="line"/>
      <point x="53" y="86" type="line" smooth="yes"/>
      <point x="150" y="86"/>
      <point x="221" y="160"/>
      <point x="221" y="233" type="qcurve" smooth="yes"/>
      <point x="221" y="1331" type="line" smooth="yes"/>
      <point x="221" y="1399"/>
      <point x="150" y="1470"/>
      <point x="53" y="1470" type="qcurve" smooth="yes"/>
      <point x="27" y="1470" type="line"/>
      <point x="27" y="1556" type="line"/>
      <point x="414" y="1556" type="line"/>
      <point x="414" y="233" type="line" smooth="yes"/>
      <point x="414" y="158"/>
      <point x="486" y="86"/>
      <point x="582" y="86" type="qcurve" smooth="yes"/>
      <point x="596" y="86" type="line"/>
      <point x="579" y="109"/>
      <point x="563" y="165"/>
      <point x="563" y="197" type="qcurve" smooth="yes"/>
      <point x="563" y="263"/>
      <point x="639" y="338"/>
      <point x="692" y="338" type="qcurve"/>
      <point x="692" y="213"/>
      <point x="804" y="78"/>
      <point x="913" y="78" type="qcurve" smooth="yes"/>
      <point x="1020" y="78"/>
      <point x="1139" y="180"/>
      <point x="1139" y="264" type="qcurve" smooth="yes"/>
      <point x="1139" y="346"/>
      <point x="1016" y="432"/>
      <point x="711" y="564"/>
      <point x="578" y="704"/>
      <point x="578" y="827" type="qcurve" smooth="yes"/>
      <point x="578" y="963"/>
      <point x="785" y="1116"/>
      <point x="963" y="1116" type="qcurve" smooth="yes"/>
      <point x="1099" y="1116"/>
      <point x="1262" y="1011"/>
      <point x="1262" y="928" type="qcurve" smooth="yes"/>
      <point x="1262" y="872"/>
      <point x="1185" y="805"/>
      <point x="1114" y="805" type="qcurve"/>
      <point x="1114" y="908"/>
      <point x="1029" y="1022"/>
      <point x="938" y="1022" type="qcurve" smooth="yes"/>
      <point x="841" y="1022"/>
      <point x="743" y="936"/>
      <point x="743" y="858" type="qcurve" smooth="yes"/>
      <point x="743" y="762"/>
      <point x="935" y="665"/>
      <point x="1165" y="570"/>
      <point x="1305" y="426"/>
      <point x="1305" y="301" type="qcurve" smooth="yes"/>
      <point x="1305" y="150"/>
      <point x="1093" y="-20"/>
      <point x="901" y="-20" type="qcurve" smooth="yes"/>
      <point x="853" y="-20"/>
      <point x="770" y="-9"/>
    </contour>
  </outline>
</glyph>
<glyph name="uni02AD" format="2">
  <advance width="1079"/>
  <unicode hex="02AD"/>
  <outline>
    <contour>
      <point x="883" y="1024" type="line"/>
      <point x="883" y="1130" type="line" smooth="yes"/>
      <point x="883" y="1205"/>
      <point x="786" y="1298"/>
      <point x="702" y="1298" type="qcurve" smooth="yes"/>
      <point x="377" y="1298" type="line" smooth="yes"/>
      <point x="292" y="1298"/>
      <point x="197" y="1204"/>
      <point x="197" y="1130" type="qcurve" smooth="yes"/>
      <point x="197" y="1024" type="line"/>
      <point x="98" y="1024" type="line"/>
      <point x="98" y="1462" type="line"/>
      <point x="981" y="1462" type="line"/>
      <point x="981" y="1024" type="line"/>
    </contour>
    <contour>
      <point x="883" y="0" type="line"/>
      <point x="883" y="106" type="line" smooth="yes"/>
      <point x="883" y="181"/>
      <point x="786" y="274"/>
      <point x="702" y="274" type="qcurve" smooth="yes"/>
      <point x="377" y="274" type="line" smooth="yes"/>
      <point x="292" y="274"/>
      <point x="197" y="180"/>
      <point x="197" y="106" type="qcurve" smooth="yes"/>
      <point x="197" y="0" type="line"/>
      <point x="98" y="0" type="line"/>
      <point x="98" y="438" type="line"/>
      <point x="981" y="438" type="line"/>
      <point x="981" y="0" type="line"/>
    </contour>
  </outline>
</glyph>
<glyph name="uni02AF" format="2">
  <advance width="1522"/>
  <unicode hex="02AF"/>
  <outline>
    <contour>
      <point x="1108" y="-8" type="line" smooth="yes"/>
      <point x="1108" y="45"/>
      <point x="1114" y="137"/>
      <point x="1116" y="166" type="qcurve"/>
      <point x="1106" y="166" type="line"/>
      <point x="1012" y="-20"/>
      <point x="805" y="-20" type="qcurve" smooth="yes"/>
      <point x="619" y="-20"/>
      <point x="442" y="182"/>
      <point x="442" y="381" type="qcurve" smooth="yes"/>
      <point x="442" y="791" type="line" smooth="yes"/>
      <point x="442" y="913"/>
      <point x="379" y="1024"/>
      <point x="326" y="1024" type="qcurve" smooth="yes"/>
      <point x="274" y="1024"/>
      <point x="221" y="910"/>
      <point x="221" y="805" type="qcurve"/>
      <point x="118" y="805"/>
      <point x="31" y="868"/>
      <point x="31" y="924" type="qcurve" smooth="yes"/>
      <point x="31" y="1014"/>
      <point x="178" y="1118"/>
      <point x="317" y="1118" type="qcurve" smooth="yes"/>
      <point x="475" y="1118"/>
      <point x="635" y="942"/>
      <point x="635" y="772" type="qcurve" smooth="yes"/>
      <point x="635" y="391" type="line" smooth="yes"/>
      <point x="635" y="247"/>
      <point x="743" y="111"/>
      <point x="860" y="111" type="qcurve" smooth="yes"/>
      <point x="981" y="111"/>
      <point x="1108" y="284"/>
      <point x="1108" y="442" type="qcurve" smooth="yes"/>
      <point x="1108" y="874" type="line" smooth="yes"/>
      <point x="1108" y="942"/>
      <point x="1039" y="1012"/>
      <point x="942" y="1012" type="qcurve" smooth="yes"/>
      <point x="934" y="1012" type="line"/>
      <point x="934" y="1098" type="line"/>
      <point x="1485" y="1098" type="line"/>
      <point x="1485" y="1012" type="line"/>
      <point x="1468" y="1012" type="line" smooth="yes"/>
      <point x="1370" y="1012"/>
      <point x="1300" y="937"/>
      <point x="1300" y="864" type="qcurve" smooth="yes"/>
      <point x="1300" y="-180" type="line" smooth="yes"/>
      <point x="1300" y="-287"/>
      <point x="1370" y="-383"/>
      <point x="1456" y="-383" type="qcurve" smooth="yes"/>
      <point x="1493" y="-383"/>
      <point x="1555" y="-375"/>
      <point x="1587" y="-369" type="qcurve"/>
      <point x="1587" y="-459" type="line"/>
      <point x="1558" y="-473"/>
      <point x="1447" y="-492"/>
      <point x="1405" y="-492" type="qcurve" smooth="yes"/>
      <point x="1241" y="-492"/>
      <point x="1108" y="-342"/>
      <point x="1108" y="-174" type="qcurve" smooth="yes"/>
    </contour>
  </outline>
</glyph>
<glyph name="uni02B8" format="2">
  <advance width="799"/>
  <unicode hex="02B8"/>
  <outline>
    <contour>
      <point x="799" y="1270" type="line"/>
      <point x="799" y="1194" type="line"/>
      <point x="758" y="1194"/>
      <point x="709" y="1145"/>
      <point x="690" y="1094" type="qcurve" smooth="yes"/>
      <point x="479" y="532" type="line" smooth="yes"/>
      <point x="431" y="406"/>
      <point x="346" y="297"/>
      <point x="216" y="252"/>
      <point x="74" y="252" type="qcurve" smooth="yes"/>
      <point x="49" y="252" type="line"/>
      <point x="49" y="334" type="line"/>
      <point x="185" y="334"/>
      <point x="337" y="431"/>
      <point x="369" y="535" type="qcurve"/>
      <point x="104" y="1128" type="line" smooth="yes"/>
      <point x="90" y="1161"/>
      <point x="46" y="1194"/>
      <point x="2" y="1194" type="qcurve"/>
      <point x="2" y="1270" type="line"/>
      <point x="360" y="1270" type="line"/>
      <point x="356" y="1194" type="line"/>
      <point x="272" y="1194"/>
      <point x="272" y="1141" type="qcurve" smooth="yes"/>
      <point x="272" y="1139"/>
      <point x="277" y="1110"/>
      <point x="285" y="1092" type="qcurve" smooth="yes"/>
      <point x="385" y="856" type="line" smooth="yes"/>
      <point x="401" y="821"/>
      <point x="428" y="749"/>
      <point x="442" y="711" type="qcurve"/>
      <point x="451" y="711" type="line"/>
      <point x="453" y="728"/>
      <point x="468" y="783"/>
      <point x="483" y="823" type="qcurve" smooth="yes"/>
      <point x="573" y="1077" type="line" smooth="yes"/>
      <point x="580" y="1097"/>
      <point x="588" y="1128"/>
      <point x="588" y="1141" type="qcurve" smooth="yes"/>
      <point x="588" y="1194"/>
      <point x="492" y="1194" type="qcurve"/>
      <point x="492" y="1270" type="line"/>
    </contour>
  </outline>
</glyph>
<glyph name="uni02B9" format="2">
  <advance width="358"/>
  <unicode hex="02B9"/>
  <outline>
    <contour>
      <point x="289" y="1462" type="line"/>
      <point x="305" y="1440" type="line"/>
      <point x="286" y="1334"/>
      <point x="218" y="1083"/>
      <point x="170" y="961" type="qcurve"/>
      <point x="53" y="961" type="line"/>
      <point x="74" y="1091"/>
      <point x="104" y="1371"/>
      <point x="111" y="1462" type="qcurve"/>
    </contour>
  </outline>
</glyph>
<glyph name="uni02BF" format="2">
  <advance width="246"/>
  <unicode hex="02BF"/>
  <outline>
    <contour>
      <point x="246" y="1505" type="line"/>
      <point x="184" y="1505"/>
      <point x="111" y="1443"/>
      <point x="111" y="1382" type="qcurve" smooth="yes"/>
      <point x="111" y="1324"/>
      <point x="181" y="1260"/>
      <point x="246" y="1260" type="qcurve"/>
      <point x="246" y="1159" type="line"/>
      <point x="138" y="1159"/>
      <point x="0" y="1278"/>
      <point x="0" y="1382" type="qcurve" smooth="yes"/>
      <point x="0" y="1485"/>
      <point x="137" y="1606"/>
      <point x="246" y="1606" type="qcurve"/>
    </contour>
  </outline>
</glyph>
<glyph name="uni02C1" format="2">
  <advance width="600"/>
  <unicode hex="02C1"/>
  <outline>
    <contour>
      <point x="283" y="1112" type="line"/>
      <point x="169" y="1149"/>
      <point x="59" y="1257"/>
      <point x="59" y="1348" type="qcurve" smooth="yes"/>
      <point x="59" y="1442"/>
      <point x="209" y="1556"/>
      <point x="328" y="1556" type="qcurve" smooth="yes"/>
      <point x="439" y="1556"/>
      <point x="561" y="1482"/>
      <point x="561" y="1419" type="qcurve" smooth="yes"/>
      <point x="561" y="1376"/>
      <point x="492" y="1341"/>
      <point x="430" y="1341" type="qcurve"/>
      <point x="430" y="1403"/>
      <point x="371" y="1475"/>
      <point x="319" y="1475" type="qcurve" smooth="yes"/>
      <point x="266" y="1475"/>
      <point x="219" y="1410"/>
      <point x="219" y="1364" type="qcurve" smooth="yes"/>
      <point x="219" y="1297"/>
      <point x="301" y="1196"/>
      <point x="389" y="1163" type="qcurve"/>
      <point x="389" y="993" type="line"/>
      <point x="283" y="993" type="line"/>
    </contour>
  </outline>
</glyph>
<glyph name="uni02C8" format="2">
  <advance width="206"/>
  <unicode hex="02C8"/>
  <outline>
    <contour>
      <point x="43" y="1556" type="line"/>
      <point x="163" y="1556" type="line"/>
      <point x="163" y="1229" type="line"/>
      <point x="43" y="1229" type="line"/>
    </contour>
  </outline>
</glyph>
<glyph name="uni02CD" format="2">
  <advance width="644"/>
  <unicode hex="02CD"/>
  <outline>
    <contour>
      <point x="25" y="-190" type="line"/>
      <point x="619" y="-190" type="line"/>
      <point x="619" y="-311" type="line"/>
      <point x="25" y="-311" type="line"/>
    </contour>
  </outline>
</glyph>
<glyph name="uni02D0" format="2">
  <advance width="430"/>
  <unicode hex="02D0"/>
  <outline>
    <contour>
      <point x="395" y="1098" type="line"/>
      <point x="215" y="819" type="line"/>
      <point x="35" y="1098" type="line"/>
    </contour>
    <contour>
      <point x="395" y="0" type="line"/>
      <point x="35" y="0" type="line"/>
      <point x="215" y="279" type="line"/>
    </contour>
  </outline>
</glyph>
<glyph name="uni02D1" format="2">
  <advance width="430"/>
  <unicode hex="02D1"/>
  <outline>
    <contour>
      <point x="395" y="1098" type="line"/>
      <point x="215" y="819" type="line"/>
      <point x="35" y="1098" type="line"/>
    </contour>
  </outline>
</glyph>
<glyph name="uni02D2" format="2">
  <advance width="330"/>
  <unicode hex="02D2"/>
  <outline>
    <contour>
      <point x="42" y="594" type="line"/>
      <point x="104" y="594"/>
      <point x="177" y="656"/>
      <point x="177" y="717" type="qcurve" smooth="yes"/>
      <point x="177" y="778"/>
      <point x="104" y="840"/>
      <point x="42" y="840" type="qcurve"/>
      <point x="42" y="940" type="line"/>
      <point x="150" y="940"/>
      <point x="288" y="821"/>
      <point x="288" y="717" type="qcurve" smooth="yes"/>
      <point x="288" y="613"/>
      <point x="150" y="494"/>
      <point x="42" y="494" type="qcurve"/>
    </contour>
  </outline>
</glyph>
<glyph name="uni02D4" format="2">
  <advance width="444"/>
  <unicode hex="02D4"/>
  <outline>
    <contour>
      <point x="169" y="-309" type="line"/>
      <point x="169" y="-106" type="line"/>
      <point x="277" y="-106" type="line"/>
      <point x="277" y="-309" type="line"/>
      <point x="419" y="-309" type="line"/>
      <point x="419" y="-418" type="line"/>
      <point x="25" y="-418" type="line"/>
      <point x="25" y="-309" type="line"/>
    </contour>
  </outline>
</glyph>
<glyph name="ring" format="2">
  <advance width="682"/>
  <unicode hex="02DA"/>
  <outline>
    <contour>
      <point x="586" y="1444" type="qcurve" smooth="yes"/>
      <point x="586" y="1389"/>
      <point x="548" y="1306"/>
      <point x="481" y="1250"/>
      <point x="391" y="1221"/>
      <point x="340" y="1221" type="qcurve" smooth="yes"/>
      <point x="289" y="1221"/>
      <point x="199" y="1250"/>
      <point x="132" y="1306"/>
      <point x="94" y="1389"/>
      <point x="94" y="1444" type="qcurve" smooth="yes"/>
      <point x="94" y="1498"/>
      <point x="132" y="1582"/>
      <point x="199" y="1638"/>
      <point x="289" y="1667"/>
      <point x="340" y="1667" type="qcurve" smooth="yes"/>
      <point x="391" y="1667"/>
      <point x="481" y="1638"/>
      <point x="548" y="1582"/>
      <point x="586" y="1498"/>
    </contour>
    <contour>
      <point x="475" y="1444" type="qcurve" smooth="yes"/>
      <point x="475" y="1477"/>
      <point x="454" y="1524"/>
      <point x="417" y="1553"/>
      <point x="368" y="1567"/>
      <point x="340" y="1567" type="qcurve" smooth="yes"/>
      <point x="312" y="1567"/>
      <point x="263" y="1553"/>
      <point x="226" y="1524"/>
      <point x="205" y="1477"/>
      <point x="205" y="1444" type="qcurve" smooth="yes"/>
      <point x="205" y="1411"/>
      <point x="226" y="1364"/>
      <point x="263" y="1335"/>
      <point x="312" y="1321"/>
      <point x="340" y="1321" type="qcurve" smooth="yes"/>
      <point x="368" y="1321"/>
      <point x="417" y="1335"/>
      <point x="454" y="1364"/>
      <point x="475" y="1411"/>
    </contour>
  </outline>
</glyph>
<glyph name="ogonek" format="2">
  <advance width="1024"/>
  <unicode hex="02DB"/>
  <outline>
    <contour>
      <point x="352" y="-266" type="qcurve" smooth="yes"/>
      <point x="352" y="-218"/>
      <point x="392" y="-132"/>
      <point x="460" y="-61"/>
      <point x="547" y="-11"/>
      <point x="594" y="0" type="qcurve"/>
      <point x="711" y="0" type="line"/>
      <point x="679" y="-10"/>
      <point x="611" y="-50"/>
      <point x="556" y="-109"/>
      <point x="520" y="-187"/>
      <point x="520" y="-236" type="qcurve" smooth="yes"/>
      <point x="520" y="-270"/>
      <point x="541" y="-319"/>
      <point x="579" y="-350"/>
      <point x="631" y="-365"/>
      <point x="662" y="-365" type="qcurve" smooth="yes"/>
      <point x="689" y="-365"/>
      <point x="753" y="-356"/>
      <point x="791" y="-348" type="qcurve"/>
      <point x="791" y="-459" type="line"/>
      <point x="775" y="-467"/>
      <point x="734" y="-479"/>
      <point x="690" y="-487"/>
      <point x="649" y="-492"/>
      <point x="633" y="-492" type="qcurve" smooth="yes"/>
      <point x="568" y="-492"/>
      <point x="464" y="-465"/>
      <point x="391" y="-410"/>
      <point x="352" y="-325"/>
    </contour>
  </outline>
</glyph>
<glyph name="tilde" format="2">
  <advance width="1182"/>
  <unicode hex="02DC"/>
  <outline>
    <contour>
      <point x="762" y="1374" type="qcurve" smooth="yes"/>
      <point x="792" y="1374"/>
      <point x="829" y="1392"/>
      <point x="850" y="1423"/>
      <point x="859" y="1462"/>
      <point x="862" y="1483" type="qcurve"/>
      <point x="954" y="1483" type="line"/>
      <point x="951" y="1436"/>
      <point x="924" y="1349"/>
      <point x="872" y="1281"/>
      <point x="794" y="1241"/>
      <point x="739" y="1241" type="qcurve" smooth="yes"/>
      <point x="684" y="1241"/>
      <point x="595" y="1281"/>
      <point x="518" y="1330"/>
      <point x="451" y="1370"/>
      <point x="418" y="1370" type="qcurve" smooth="yes"/>
      <point x="387" y="1370"/>
      <point x="351" y="1352"/>
      <point x="330" y="1322"/>
      <point x="320" y="1283"/>
      <point x="317" y="1262" type="qcurve"/>
      <point x="225" y="1262" type="line"/>
      <point x="228" y="1309"/>
      <point x="255" y="1395"/>
      <point x="308" y="1463"/>
      <point x="387" y="1503"/>
      <point x="442" y="1503" type="qcurve" smooth="yes"/>
      <point x="497" y="1503"/>
      <point x="586" y="1463"/>
      <point x="663" y="1414"/>
      <point x="730" y="1374"/>
    </contour>
  </outline>
</glyph>
<glyph name="uni02E3" format="2">
  <advance width="821"/>
  <unicode hex="02E3"/>
  <outline>
    <contour>
      <point x="451" y="1194" type="qcurve"/>
      <point x="451" y="1270" type="line"/>
      <point x="780" y="1270" type="line"/>
      <point x="780" y="1194" type="line"/>
      <point x="754" y="1194" type="line" smooth="yes"/>
      <point x="710" y="1194"/>
      <point x="654" y="1153"/>
      <point x="625" y="1114" type="qcurve" smooth="yes"/>
      <point x="485" y="936" type="line"/>
      <point x="684" y="676" type="line" smooth="yes"/>
      <point x="715" y="635"/>
      <point x="760" y="608"/>
      <point x="786" y="608" type="qcurve" smooth="yes"/>
      <point x="817" y="608" type="line"/>
      <point x="817" y="532" type="line"/>
      <point x="434" y="532" type="line"/>
      <point x="434" y="608" type="line"/>
      <point x="455" y="608" type="line" smooth="yes"/>
      <point x="522" y="608"/>
      <point x="522" y="643" type="qcurve" smooth="yes"/>
      <point x="522" y="674"/>
      <point x="477" y="731" type="qcurve" smooth="yes"/>
      <point x="397" y="834" type="line"/>
      <point x="389" y="834" type="line"/>
      <point x="303" y="719" type="line" smooth="yes"/>
      <point x="292" y="703"/>
      <point x="268" y="661"/>
      <point x="268" y="639" type="qcurve" smooth="yes"/>
      <point x="268" y="623"/>
      <point x="310" y="608"/>
      <point x="360" y="608" type="qcurve"/>
      <point x="360" y="532" type="line"/>
      <point x="4" y="532" type="line"/>
      <point x="4" y="608" type="line"/>
      <point x="29" y="608" type="line" smooth="yes"/>
      <point x="72" y="608"/>
      <point x="136" y="647"/>
      <point x="170" y="690" type="qcurve" smooth="yes"/>
      <point x="342" y="903" type="line"/>
      <point x="170" y="1128" type="line" smooth="yes"/>
      <point x="132" y="1176"/>
      <point x="92" y="1194"/>
      <point x="61" y="1194" type="qcurve" smooth="yes"/>
      <point x="31" y="1194" type="line"/>
      <point x="31" y="1270" type="line"/>
      <point x="403" y="1270" type="line"/>
      <point x="403" y="1194" type="line"/>
      <point x="356" y="1194"/>
      <point x="326" y="1178"/>
      <point x="326" y="1165" type="qcurve" smooth="yes"/>
      <point x="326" y="1143"/>
      <point x="352" y="1110" type="qcurve" smooth="yes"/>
      <point x="430" y="1006" type="line"/>
      <point x="436" y="1006" type="line"/>
      <point x="498" y="1092" type="line" smooth="yes"/>
      <point x="510" y="1109"/>
      <point x="528" y="1147"/>
      <point x="528" y="1159" type="qcurve" smooth="yes"/>
      <point x="528" y="1178"/>
      <point x="486" y="1194"/>
    </contour>
  </outline>
</glyph>
<glyph name="uni02E5" format="2">
  <advance width="801"/>
  <unicode hex="02E5"/>
  <outline>
    <contour>
      <point x="725" y="1556" type="line"/>
      <point x="725" y="-492" type="line"/>
      <point x="604" y="-492" type="line"/>
      <point x="604" y="1436" type="line"/>
      <point x="68" y="1436" type="line"/>
      <point x="68" y="1556" type="line"/>
    </contour>
  </outline>
</glyph>
<glyph name="uni02FC" format="2">
  <advance width="380"/>
  <unicode hex="02FC"/>
  <outline>
    <contour>
      <point x="360" y="487" type="line"/>
      <point x="20" y="487" type="line"/>
      <point x="20" y="596" type="line"/>
      <point x="251" y="596" type="line"/>
      <point x="251" y="827" type="line"/>
      <point x="360" y="827" type="line"/>
    </contour>
  </outline>
</glyph>
<glyph name="uni02FD" format="2">
  <advance width="984"/>
  <unicode hex="02FD"/>
  <outline>
    <contour>
      <point x="949" y="-426" type="line"/>
      <point x="35" y="-426" type="line"/>
      <point x="35" y="-88" type="line"/>
      <point x="134" y="-88" type="line"/>
      <point x="134" y="-291" type="line"/>
      <point x="848" y="-291" type="line"/>
      <point x="848" y="-88" type="line"/>
      <point x="949" y="-88" type="line"/>
    </contour>
  </outline>
</glyph>
<glyph name="uni0305" format="2">
  <unicode hex="0305"/>
  <outline>
    <contour>
      <point x="418" y="1556" type="line"/>
      <point x="-418" y="1556" type="line"/>
      <point x="-418" y="1677" type="line"/>
      <point x="418" y="1677" type="line"/>
    </contour>
  </outline>
</glyph>
<glyph name="uni0319" format="2">
  <unicode hex="0319"/>
  <outline>
    <contour>
      <point x="-47" y="-203" type="line"/>
      <point x="156" y="-203" type="line"/>
      <point x="156" y="-311" type="line"/>
      <point x="-47" y="-311" type="line"/>
      <point x="-47" y="-434" type="line"/>
      <point x="-156" y="-434" type="line"/>
      <point x="-156" y="-80" type="line"/>
      <point x="-47" y="-80" type="line"/>
    </contour>
  </outline>
</glyph>
<glyph name="uni031B" format="2">
  <unicode hex="031B"/>
  <outline>
    <contour>
      <point x="-190" y="1192" type="line"/>
      <point x="-106" y="1205"/>
      <point x="-14" y="1277"/>
      <point x="-14" y="1333" type="qcurve" smooth="yes"/>
      <point x="-14" y="1364"/>
      <point x="-102" y="1421"/>
      <point x="-102" y="1475" type="qcurve" smooth="yes"/>
      <point x="-102" y="1518"/>
      <point x="-43" y="1577"/>
      <point x="14" y="1577" type="qcurve" smooth="yes"/>
      <point x="74" y="1577"/>
      <point x="139" y="1509"/>
      <point x="139" y="1448" type="qcurve" smooth="yes"/>
      <point x="139" y="1306"/>
      <point x="-28" y="1142"/>
      <point x="-190" y="1112" type="qcurve"/>
    </contour>
  </outline>
</glyph>
<glyph name="uni031D" format="2">
  <unicode hex="031D"/>
  <outline>
    <contour>
      <point x="-53" y="-309" type="line"/>
      <point x="-53" y="-106" type="line"/>
      <point x="55" y="-106" type="line"/>
      <point x="55" y="-309" type="line"/>
      <point x="197" y="-309" type="line"/>
      <point x="197" y="-418" type="line"/>
      <point x="-197" y="-418" type="line"/>
      <point x="-197" y="-309" type="line"/>
    </contour>
  </outline>
</glyph>
<glyph name="uni0320" format="2">
  <unicode hex="0320"/>
  <outline>
    <contour>
      <point x="-297" y="-190" type="line"/>
      <point x="297" y="-190" type="line"/>
      <point x="297" y="-311" type="line"/>
      <point x="-297" y="-311" type="line"/>
    </contour>
  </outline>
</glyph>
<glyph name="uni0322" format="2">
  <unicode hex="0322"/>
  <outline>
    <contour>
      <point x="115" y="86" type="line"/>
      <point x="115" y="-100" type="line" smooth="yes"/>
      <point x="115" y="-173"/>
      <point x="170" y="-248"/>
      <point x="231" y="-248" type="qcurve" smooth="yes"/>
      <point x="265" y="-248"/>
      <point x="313" y="-232"/>
      <point x="338" y="-215" type="qcurve"/>
      <point x="352" y="-229"/>
      <point x="369" y="-266"/>
      <point x="369" y="-291" type="qcurve" smooth="yes"/>
      <point x="369" y="-347"/>
      <point x="285" y="-403"/>
      <point x="213" y="-403" type="qcurve" smooth="yes"/>
      <point x="105" y="-403"/>
      <point x="0" y="-256"/>
      <point x="0" y="-100" type="qcurve" smooth="yes"/>
      <point x="0" y="86" type="line"/>
    </contour>
  </outline>
</glyph>
<glyph name="uni032A" format="2">
  <unicode hex="032A"/>
  <outline>
    <contour>
      <point x="270" y="-463" type="line"/>
      <point x="270" y="-438" type="line" smooth="yes"/>
      <point x="270" y="-343"/>
      <point x="181" y="-270"/>
      <point x="90" y="-270" type="qcurve" smooth="yes"/>
      <point x="-90" y="-270" type="line" smooth="yes"/>
      <point x="-185" y="-270"/>
      <point x="-270" y="-349"/>
      <point x="-270" y="-438" type="qcurve" smooth="yes"/>
      <point x="-270" y="-463" type="line"/>
      <point x="-369" y="-463" type="line"/>
      <point x="-369" y="-147" type="line"/>
      <point x="369" y="-147" type="line"/>
      <point x="369" y="-463" type="line"/>
    </contour>
  </outline>
</glyph>
<glyph name="uni032B" format="2">
  <unicode hex="032B"/>
  <outline>
    <contour>
      <point x="-10" y="-291" type="qcurve"/>
      <point x="-27" y="-329"/>
      <point x="-98" y="-375"/>
      <point x="-158" y="-375" type="qcurve" smooth="yes"/>
      <point x="-244" y="-375"/>
      <point x="-325" y="-270"/>
      <point x="-328" y="-133" type="qcurve"/>
      <point x="-242" y="-133" type="line"/>
      <point x="-240" y="-216"/>
      <point x="-204" y="-276"/>
      <point x="-158" y="-276" type="qcurve" smooth="yes"/>
      <point x="-102" y="-276"/>
      <point x="-54" y="-214"/>
      <point x="-51" y="-133" type="qcurve"/>
      <point x="31" y="-133" type="line"/>
      <point x="33" y="-207"/>
      <point x="77" y="-276"/>
      <point x="137" y="-276" type="qcurve" smooth="yes"/>
      <point x="194" y="-276"/>
      <point x="240" y="-218"/>
      <point x="242" y="-133" type="qcurve"/>
      <point x="328" y="-133" type="line"/>
      <point x="323" y="-265"/>
      <point x="226" y="-375"/>
      <point x="137" y="-375" type="qcurve" smooth="yes"/>
      <point x="77" y="-375"/>
      <point x="7" y="-329"/>
    </contour>
  </outline>
</glyph>
<glyph name="uni032C" format="2">
  <unicode hex="032C"/>
  <outline>
    <contour>
      <point x="301" y="-150" type="line"/>
      <point x="235" y="-230"/>
      <point x="122" y="-394"/>
      <point x="96" y="-451" type="qcurve"/>
      <point x="-98" y="-451" type="line"/>
      <point x="-124" y="-394"/>
      <point x="-248" y="-216"/>
      <point x="-303" y="-150" type="qcurve"/>
      <point x="-303" y="-123" type="line"/>
      <point x="-223" y="-123" type="line"/>
      <point x="-164" y="-157"/>
      <point x="-46" y="-258"/>
      <point x="0" y="-307" type="qcurve"/>
      <point x="46" y="-258"/>
      <point x="162" y="-157"/>
      <point x="221" y="-123" type="qcurve"/>
      <point x="301" y="-123" type="line"/>
    </contour>
  </outline>
</glyph>
<glyph name="uni032E" format="2">
  <unicode hex="032E"/>
  <outline>
    <contour>
      <point x="-287" y="-139" type="qcurve"/>
      <point x="-193" y="-139" type="line"/>
      <point x="-176" y="-214"/>
      <point x="-75" y="-279"/>
      <point x="0" y="-279" type="qcurve" smooth="yes"/>
      <point x="75" y="-279"/>
      <point x="176" y="-214"/>
      <point x="193" y="-139" type="qcurve"/>
      <point x="287" y="-139" type="line"/>
      <point x="283" y="-269"/>
      <point x="133" y="-420"/>
      <point x="0" y="-420" type="qcurve" smooth="yes"/>
      <point x="-136" y="-420"/>
      <point x="-285" y="-264"/>
    </contour>
  </outline>
</glyph>
<glyph name="uni032F" format="2">
  <unicode hex="032F"/>
  <outline>
    <contour>
      <point x="287" y="-420" type="qcurve"/>
      <point x="193" y="-420" type="line"/>
      <point x="176" y="-346"/>
      <point x="75" y="-281"/>
      <point x="0" y="-281" type="qcurve" smooth="yes"/>
      <point x="-75" y="-281"/>
      <point x="-176" y="-346"/>
      <point x="-193" y="-420" type="qcurve"/>
      <point x="-287" y="-420" type="line"/>
      <point x="-285" y="-293"/>
      <point x="-133" y="-139"/>
      <point x="0" y="-139" type="qcurve" smooth="yes"/>
      <point x="130" y="-139"/>
      <point x="282" y="-288"/>
    </contour>
  </outline>
</glyph>
<glyph name="uni0330" format="2">
  <unicode hex="0330"/>
  <outline>
    <contour>
      <point x="272" y="-139" type="qcurve"/>
      <point x="365" y="-139" type="line"/>
      <point x="358" y="-246"/>
      <point x="248" y="-381"/>
      <point x="150" y="-381" type="qcurve" smooth="yes"/>
      <point x="61" y="-381"/>
      <point x="-126" y="-252"/>
      <point x="-172" y="-252" type="qcurve" smooth="yes"/>
      <point x="-213" y="-252"/>
      <point x="-262" y="-291"/>
      <point x="-272" y="-360" type="qcurve"/>
      <point x="-365" y="-360" type="line"/>
      <point x="-358" y="-254"/>
      <point x="-247" y="-119"/>
      <point x="-147" y="-119" type="qcurve" smooth="yes"/>
      <point x="-61" y="-119"/>
      <point x="128" y="-248"/>
      <point x="172" y="-248" type="qcurve" smooth="yes"/>
      <point x="216" y="-248"/>
      <point x="263" y="-204"/>
    </contour>
  </outline>
</glyph>
<glyph name="uni0332" format="2">
  <advance width="819"/>
  <unicode hex="0332"/>
  <outline>
    <contour>
      <point x="840" y="-283" type="line"/>
      <point x="-20" y="-283" type="line"/>
      <point x="-20" y="-162" type="line"/>
      <point x="840" y="-162" type="line"/>
    </contour>
  </outline>
</glyph>
<glyph name="uni0339" format="2">
  <unicode hex="0339"/>
  <outline>
    <contour>
      <point x="-123" y="-391" type="line"/>
      <point x="-61" y="-391"/>
      <point x="12" y="-329"/>
      <point x="12" y="-268" type="qcurve" smooth="yes"/>
      <point x="12" y="-207"/>
      <point x="-61" y="-145"/>
      <point x="-123" y="-145" type="qcurve"/>
      <point x="-123" y="-45" type="line"/>
      <point x="-15" y="-45"/>
      <point x="123" y="-164"/>
      <point x="123" y="-268" type="qcurve" smooth="yes"/>
      <point x="123" y="-371"/>
      <point x="-14" y="-492"/>
      <point x="-123" y="-492" type="qcurve"/>
    </contour>
  </outline>
</glyph>
<glyph name="uni033B" format="2">
  <unicode hex="033B"/>
  <outline>
    <contour>
      <point x="188" y="-471" type="line"/>
      <point x="-188" y="-471" type="line"/>
      <point x="-188" y="-94" type="line"/>
      <point x="188" y="-94" type="line"/>
    </contour>
    <contour>
      <point x="92" y="-375" type="line"/>
      <point x="92" y="-188" type="line"/>
      <point x="-92" y="-188" type="line"/>
      <point x="-92" y="-375" type="line"/>
    </contour>
  </outline>
</glyph>
<glyph name="uni033F" format="2">
  <unicode hex="033F"/>
  <outline>
    <contour>
      <point x="430" y="1556" type="line"/>
      <point x="-430" y="1556" type="line"/>
      <point x="-430" y="1677" type="line"/>
      <point x="430" y="1677" type="line"/>
    </contour>
    <contour>
      <point x="430" y="1802" type="line"/>
      <point x="-430" y="1802" type="line"/>
      <point x="-430" y="1923" type="line"/>
      <point x="430" y="1923" type="line"/>
    </contour>
  </outline>
</glyph>
<glyph name="uni034B" format="2">
  <unicode hex="034B"/>
  <outline>
    <contour>
      <point x="0" y="1376" type="qcurve" smooth="yes"/>
      <point x="43" y="1376"/>
      <point x="96" y="1323"/>
      <point x="96" y="1274" type="qcurve" smooth="yes"/>
      <point x="96" y="1221"/>
      <point x="38" y="1171"/>
      <point x="0" y="1171" type="qcurve" smooth="yes"/>
      <point x="-40" y="1171"/>
      <point x="-96" y="1221"/>
      <point x="-96" y="1274" type="qcurve" smooth="yes"/>
      <point x="-96" y="1327"/>
      <point x="-40" y="1376"/>
    </contour>
    <contour>
      <point x="0" y="1884" type="qcurve" smooth="yes"/>
      <point x="43" y="1884"/>
      <point x="96" y="1829"/>
      <point x="96" y="1782" type="qcurve" smooth="yes"/>
      <point x="96" y="1729"/>
      <point x="38" y="1679"/>
      <point x="0" y="1679" type="qcurve" smooth="yes"/>
      <point x="-40" y="1679"/>
      <point x="-96" y="1729"/>
      <point x="-96" y="1782" type="qcurve" smooth="yes"/>
      <point x="-96" y="1835"/>
      <point x="-40" y="1884"/>
    </contour>
    <contour>
      <point x="272" y="1649" type="qcurve"/>
      <point x="365" y="1649" type="line"/>
      <point x="358" y="1542"/>
      <point x="248" y="1407"/>
      <point x="150" y="1407" type="qcurve" smooth="yes"/>
      <point x="62" y="1407"/>
      <point x="-127" y="1516"/>
      <point x="-172" y="1516" type="qcurve" smooth="yes"/>
      <point x="-212" y="1516"/>
      <point x="-262" y="1476"/>
      <point x="-272" y="1407" type="qcurve"/>
      <point x="-365" y="1407" type="line"/>
      <point x="-358" y="1514"/>
      <point x="-247" y="1649"/>
      <point x="-147" y="1649" type="qcurve" smooth="yes"/>
      <point x="-61" y="1649"/>
      <point x="128" y="1540"/>
      <point x="172" y="1540" type="qcurve" smooth="yes"/>
      <point x="216" y="1540"/>
      <point x="263" y="1584"/>
    </contour>
  </outline>
</glyph>
<glyph name="uni034E" format="2">
  <unicode hex="034E"/>
  <outline>
    <contour>
      <point x="0" y="-41" type="line"/>
      <point x="190" y="-225" type="line"/>
      <point x="78" y="-225" type="line"/>
      <point x="78" y="-492" type="line"/>
      <point x="-78" y="-492" type="line"/>
      <point x="-78" y="-225" type="line"/>
      <point x="-190" y="-225" type="line"/>
    </contour>
  </outline>
</glyph>
<glyph name="uni0354" format="2">
  <unicode hex="0354"/>
  <outline>
    <contour>
      <point x="4" y="-287" type="qcurve"/>
      <point x="57" y="-307"/>
      <point x="158" y="-361"/>
      <point x="197" y="-387" type="qcurve"/>
      <point x="197" y="-492" type="line"/>
      <point x="176" y="-492" type="line"/>
      <point x="76" y="-436"/>
      <point x="-105" y="-369"/>
      <point x="-197" y="-346" type="qcurve"/>
      <point x="-197" y="-227" type="line"/>
      <point x="-108" y="-214"/>
      <point x="66" y="-144"/>
      <point x="176" y="-82" type="qcurve"/>
      <point x="197" y="-82" type="line"/>
      <point x="197" y="-186" type="line"/>
      <point x="153" y="-217"/>
      <point x="53" y="-269"/>
    </contour>
  </outline>
</glyph>
<glyph name="uni0355" format="2">
  <unicode hex="0355"/>
  <outline>
    <contour>
      <point x="-4" y="-287" type="qcurve"/>
      <point x="-57" y="-267"/>
      <point x="-158" y="-212"/>
      <point x="-197" y="-186" type="qcurve"/>
      <point x="-197" y="-82" type="line"/>
      <point x="-176" y="-82" type="line"/>
      <point x="-76" y="-138"/>
      <point x="110" y="-206"/>
      <point x="197" y="-227" type="qcurve"/>
      <point x="197" y="-346" type="line"/>
      <point x="103" y="-360"/>
      <point x="-75" y="-435"/>
      <point x="-176" y="-492" type="qcurve"/>
      <point x="-197" y="-492" type="line"/>
      <point x="-197" y="-387" type="line"/>
      <point x="-154" y="-357"/>
      <point x="-60" y="-307"/>
    </contour>
  </outline>
</glyph>
<glyph name="uni0356" format="2">
  <unicode hex="0356"/>
  <outline>
    <contour>
      <point x="-209" y="-287" type="qcurve"/>
      <point x="-262" y="-267"/>
      <point x="-363" y="-212"/>
      <point x="-401" y="-186" type="qcurve"/>
      <point x="-401" y="-82" type="line"/>
      <point x="-381" y="-82" type="line"/>
      <point x="-268" y="-145"/>
      <point x="-103" y="-209"/>
      <point x="-29" y="-227" type="qcurve"/>
      <point x="-29" y="-346" type="line"/>
      <point x="-128" y="-361"/>
      <point x="-285" y="-439"/>
      <point x="-381" y="-492" type="qcurve"/>
      <point x="-401" y="-492" type="line"/>
      <point x="-401" y="-387" type="line"/>
      <point x="-349" y="-351"/>
      <point x="-258" y="-305"/>
    </contour>
    <contour>
      <point x="197" y="-299" type="qcurve"/>
      <point x="177" y="-352"/>
      <point x="122" y="-453"/>
      <point x="96" y="-492" type="qcurve"/>
      <point x="-8" y="-492" type="line"/>
      <point x="-8" y="-471" type="line"/>
      <point x="48" y="-371"/>
      <point x="114" y="-190"/>
      <point x="137" y="-98" type="qcurve"/>
      <point x="256" y="-98" type="line"/>
      <point x="268" y="-176"/>
      <point x="331" y="-343"/>
      <point x="401" y="-471" type="qcurve"/>
      <point x="401" y="-492" type="line"/>
      <point x="297" y="-492" type="line"/>
      <point x="266" y="-447"/>
      <point x="212" y="-344"/>
    </contour>
  </outline>
</glyph>
<glyph name="uni0359" format="2">
  <unicode hex="0359"/>
  <outline>
    <contour>
      <point x="-18" y="-242" type="line"/>
      <point x="-68" y="-61" type="line"/>
      <point x="68" y="-61" type="line"/>
      <point x="18" y="-242" type="line"/>
      <point x="188" y="-111" type="line"/>
      <point x="250" y="-227" type="line"/>
      <point x="35" y="-276" type="line"/>
      <point x="250" y="-326" type="line"/>
      <point x="188" y="-442" type="line"/>
      <point x="18" y="-309" type="line"/>
      <point x="68" y="-492" type="line"/>
      <point x="-68" y="-492" type="line"/>
      <point x="-18" y="-309" type="line"/>
      <point x="-188" y="-442" type="line"/>
      <point x="-250" y="-326" type="line"/>
      <point x="-35" y="-276" type="line"/>
      <point x="-250" y="-227" type="line"/>
      <point x="-188" y="-111" type="line"/>
    </contour>
  </outline>
</glyph>
<glyph name="uni0365" format="2">
  <unicode hex="0365"/>
  <outline>
    <contour>
      <point x="-166" y="635" type="line" smooth="yes"/>
      <point x="-114" y="635"/>
      <point x="-72" y="670"/>
      <point x="-72" y="709" type="qcurve" smooth="yes"/>
      <point x="-72" y="1104" type="line" smooth="yes"/>
      <point x="-72" y="1141"/>
      <point x="-119" y="1178"/>
      <point x="-180" y="1178" type="qcurve"/>
      <point x="-180" y="1247" type="line"/>
      <point x="74" y="1247" type="line"/>
      <point x="74" y="715" type="line" smooth="yes"/>
      <point x="74" y="674"/>
      <point x="113" y="635"/>
      <point x="168" y="635" type="qcurve" smooth="yes"/>
      <point x="197" y="635" type="line"/>
      <point x="197" y="565" type="line"/>
      <point x="-195" y="565" type="line"/>
      <point x="-195" y="635" type="line"/>
    </contour>
    <contour>
      <point x="-4" y="1526" type="qcurve" smooth="yes"/>
      <point x="36" y="1526"/>
      <point x="80" y="1481"/>
      <point x="80" y="1440" type="qcurve" smooth="yes"/>
      <point x="80" y="1393"/>
      <point x="31" y="1354"/>
      <point x="-4" y="1354" type="qcurve" smooth="yes"/>
      <point x="-40" y="1354"/>
      <point x="-88" y="1393"/>
      <point x="-88" y="1440" type="qcurve" smooth="yes"/>
      <point x="-88" y="1488"/>
      <point x="-40" y="1526"/>
    </contour>
  </outline>
</glyph>
<glyph name="uni036B" format="2">
  <unicode hex="036B"/>
  <outline>
    <contour>
      <point x="-211" y="635" type="line"/>
      <point x="-211" y="565" type="line"/>
      <point x="-584" y="565" type="line"/>
      <point x="-584" y="635" type="line"/>
      <point x="-555" y="635" type="line" smooth="yes"/>
      <point x="-501" y="635"/>
      <point x="-467" y="676"/>
      <point x="-467" y="715" type="qcurve" smooth="yes"/>
      <point x="-467" y="1102" type="line" smooth="yes"/>
      <point x="-467" y="1141"/>
      <point x="-508" y="1178"/>
      <point x="-569" y="1178" type="qcurve"/>
      <point x="-569" y="1247" type="line"/>
      <point x="-346" y="1247" type="line"/>
      <point x="-328" y="1163" type="line"/>
      <point x="-319" y="1163" type="line"/>
      <point x="-281" y="1216"/>
      <point x="-190" y="1260"/>
      <point x="-127" y="1260" type="qcurve" smooth="yes"/>
      <point x="-73" y="1260"/>
      <point x="24" y="1211"/>
      <point x="53" y="1153" type="qcurve"/>
      <point x="61" y="1153" type="line"/>
      <point x="101" y="1215"/>
      <point x="200" y="1260"/>
      <point x="260" y="1260" type="qcurve" smooth="yes"/>
      <point x="366" y="1260"/>
      <point x="481" y="1133"/>
      <point x="481" y="1010" type="qcurve" smooth="yes"/>
      <point x="481" y="715" type="line" smooth="yes"/>
      <point x="481" y="675"/>
      <point x="521" y="635"/>
      <point x="584" y="635" type="qcurve"/>
      <point x="584" y="565" type="line"/>
      <point x="336" y="565" type="line"/>
      <point x="336" y="1001" type="line" smooth="yes"/>
      <point x="336" y="1080"/>
      <point x="281" y="1163"/>
      <point x="213" y="1163" type="qcurve" smooth="yes"/>
      <point x="149" y="1163"/>
      <point x="84" y="1070"/>
      <point x="84" y="987" type="qcurve" smooth="yes"/>
      <point x="84" y="715" type="line" smooth="yes"/>
      <point x="84" y="674"/>
      <point x="123" y="635"/>
      <point x="186" y="635" type="qcurve"/>
      <point x="186" y="565" type="line"/>
      <point x="-63" y="565" type="line"/>
      <point x="-63" y="1001" type="line" smooth="yes"/>
      <point x="-63" y="1080"/>
      <point x="-116" y="1163"/>
      <point x="-184" y="1163" type="qcurve" smooth="yes"/>
      <point x="-251" y="1163"/>
      <point x="-322" y="1062"/>
      <point x="-322" y="971" type="qcurve" smooth="yes"/>
      <point x="-322" y="709" type="line" smooth="yes"/>
      <point x="-322" y="670"/>
      <point x="-276" y="635"/>
      <point x="-225" y="635" type="qcurve" smooth="yes"/>
    </contour>
  </outline>
</glyph>
<glyph name="uni036C" format="2">
  <unicode hex="036C"/>
  <outline>
    <contour>
      <point x="113" y="565" type="line"/>
      <point x="-285" y="565" type="line"/>
      <point x="-285" y="635" type="line"/>
      <point x="-221" y="635"/>
      <point x="-176" y="675"/>
      <point x="-176" y="715" type="qcurve" smooth="yes"/>
      <point x="-176" y="1102" type="line" smooth="yes"/>
      <point x="-176" y="1140"/>
      <point x="-221" y="1178"/>
      <point x="-285" y="1178" type="qcurve"/>
      <point x="-285" y="1247" type="line"/>
      <point x="-61" y="1247" type="line"/>
      <point x="-45" y="1130" type="line"/>
      <point x="-39" y="1130" type="line"/>
      <point x="-7" y="1188"/>
      <point x="29" y="1227"/>
      <point x="95" y="1260"/>
      <point x="147" y="1260" type="qcurve" smooth="yes"/>
      <point x="214" y="1260"/>
      <point x="285" y="1209"/>
      <point x="285" y="1159" type="qcurve" smooth="yes"/>
      <point x="285" y="1118"/>
      <point x="220" y="1061"/>
      <point x="141" y="1061" type="qcurve"/>
      <point x="141" y="1115"/>
      <point x="116" y="1159"/>
      <point x="84" y="1159" type="qcurve" smooth="yes"/>
      <point x="31" y="1159"/>
      <point x="-29" y="1003"/>
      <point x="-29" y="903" type="qcurve" smooth="yes"/>
      <point x="-29" y="709" type="line" smooth="yes"/>
      <point x="-29" y="670"/>
      <point x="12" y="635"/>
      <point x="66" y="635" type="qcurve" smooth="yes"/>
      <point x="113" y="635" type="line"/>
    </contour>
  </outline>
</glyph>
<glyph name="anoteleia" format="2">
  <advance width="549"/>
  <unicode hex="0387"/>
  <outline>
    <contour>
      <point x="147" y="723" type="qcurve" smooth="yes"/>
      <point x="147" y="761"/>
      <point x="167" y="814"/>
      <point x="201" y="847"/>
      <point x="247" y="862"/>
      <point x="274" y="862" type="qcurve" smooth="yes"/>
      <point x="300" y="862"/>
      <point x="347" y="847"/>
      <point x="381" y="814"/>
      <point x="401" y="761"/>
      <point x="401" y="723" type="qcurve" smooth="yes"/>
      <point x="401" y="686"/>
      <point x="381" y="634"/>
      <point x="347" y="600"/>
      <point x="300" y="584"/>
      <point x="274" y="584" type="qcurve" smooth="yes"/>
      <point x="247" y="584"/>
      <point x="201" y="600"/>
      <point x="167" y="634"/>
      <point x="147" y="686"/>
    </contour>
  </outline>
</glyph>
<glyph name="Theta" format="2">
  <advance width="1520"/>
  <unicode hex="0398"/>
  <outline>
    <contour>
      <point x="551" y="930" type="line"/>
      <point x="561" y="891" type="line" smooth="yes"/>
      <point x="567" y="869"/>
      <point x="588" y="834"/>
      <point x="625" y="810"/>
      <point x="685" y="797"/>
      <point x="731" y="797" type="qcurve" smooth="yes"/>
      <point x="782" y="797" type="line" smooth="yes"/>
      <point x="864" y="797"/>
      <point x="945" y="848"/>
      <point x="956" y="891" type="qcurve" smooth="yes"/>
      <point x="967" y="930" type="line"/>
      <point x="1053" y="930" type="line"/>
      <point x="1053" y="561" type="line"/>
      <point x="967" y="561" type="line"/>
      <point x="956" y="600" type="line" smooth="yes"/>
      <point x="945" y="643"/>
      <point x="864" y="694"/>
      <point x="782" y="694" type="qcurve" smooth="yes"/>
      <point x="731" y="694" type="line" smooth="yes"/>
      <point x="685" y="694"/>
      <point x="625" y="681"/>
      <point x="588" y="657"/>
      <point x="567" y="622"/>
      <point x="561" y="600" type="qcurve" smooth="yes"/>
      <point x="551" y="561" type="line"/>
      <point x="465" y="561" type="line"/>
      <point x="465" y="930" type="line"/>
    </contour>
    <contour>
      <point x="1403" y="733" type="qcurve" smooth="yes"/>
      <point x="1403" y="564"/>
      <point x="1319" y="286"/>
      <point x="1155" y="88"/>
      <point x="915" y="-20"/>
      <point x="760" y="-20" type="qcurve" smooth="yes"/>
      <point x="597" y="-20"/>
      <point x="355" y="88"/>
      <point x="195" y="286"/>
      <point x="115" y="565"/>
      <point x="115" y="735" type="qcurve" smooth="yes"/>
      <point x="115" y="905"/>
      <point x="195" y="1182"/>
      <point x="355" y="1378"/>
      <point x="599" y="1485"/>
      <point x="762" y="1485" type="qcurve" smooth="yes"/>
      <point x="917" y="1485"/>
      <point x="1155" y="1378"/>
      <point x="1319" y="1181"/>
      <point x="1403" y="904"/>
    </contour>
    <contour>
      <point x="342" y="733" type="qcurve" smooth="yes"/>
      <point x="342" y="581"/>
      <point x="387" y="342"/>
      <point x="487" y="177"/>
      <point x="646" y="90"/>
      <point x="760" y="90" type="qcurve" smooth="yes"/>
      <point x="874" y="90"/>
      <point x="1033" y="177"/>
      <point x="1132" y="342"/>
      <point x="1176" y="581"/>
      <point x="1176" y="733" type="qcurve" smooth="yes"/>
      <point x="1176" y="885"/>
      <point x="1132" y="1124"/>
      <point x="1033" y="1288"/>
      <point x="876" y="1374"/>
      <point x="762" y="1374" type="qcurve" smooth="yes"/>
      <point x="648" y="1374"/>
      <point x="488" y="1288"/>
      <point x="387" y="1124"/>
      <point x="342" y="885"/>
    </contour>
  </outline>
</glyph>
<glyph name="alpha" format="2">
  <advance width="1251"/>
  <unicode hex="03B1"/>
  <outline>
    <contour>
      <point x="1049" y="0" type="line" smooth="yes"/>
      <point x="998" y="0"/>
      <point x="928" y="36"/>
      <point x="882" y="93"/>
      <point x="857" y="164"/>
      <point x="852" y="199" type="qcurve"/>
      <point x="844" y="199" type="line"/>
      <point x="821" y="152"/>
      <point x="762" y="72"/>
      <point x="686" y="13"/>
      <point x="590" y="-20"/>
      <point x="530" y="-20" type="qcurve" smooth="yes"/>
      <point x="429" y="-20"/>
      <point x="273" y="47"/>
      <point x="167" y="186"/>
      <point x="113" y="400"/>
      <point x="113" y="547" type="qcurve" smooth="yes"/>
      <point x="113" y="695"/>
      <point x="177" y="911"/>
      <point x="294" y="1051"/>
      <point x="460" y="1118"/>
      <point x="561" y="1118" type="qcurve" smooth="yes"/>
      <point x="621" y="1118"/>
      <point x="717" y="1087"/>
      <point x="792" y="1030"/>
      <point x="848" y="951"/>
      <point x="868" y="903" type="qcurve"/>
      <point x="881" y="903" type="line"/>
      <point x="898" y="957"/>
      <point x="950" y="1060"/>
      <point x="981" y="1098" type="qcurve"/>
      <point x="1090" y="1098" type="line"/>
      <point x="1081" y="1068"/>
      <point x="1061" y="971"/>
      <point x="1046" y="859"/>
      <point x="1036" y="743"/>
      <point x="1036" y="694" type="qcurve" smooth="yes"/>
      <point x="1036" y="276" type="line" smooth="yes"/>
      <point x="1036" y="185"/>
      <point x="1123" y="86"/>
      <point x="1204" y="86" type="qcurve" smooth="yes"/>
      <point x="1221" y="86" type="line"/>
      <point x="1221" y="0" type="line"/>
    </contour>
    <contour>
      <point x="565" y="111" type="qcurve" smooth="yes"/>
      <point x="645" y="111"/>
      <point x="752" y="191"/>
      <point x="817" y="332"/>
      <point x="844" y="522"/>
      <point x="844" y="633" type="qcurve" smooth="yes"/>
      <point x="844" y="713" type="line"/>
      <point x="830" y="787"/>
      <point x="779" y="892"/>
      <point x="711" y="959"/>
      <point x="630" y="991"/>
      <point x="586" y="991" type="qcurve" smooth="yes"/>
      <point x="443" y="991"/>
      <point x="311" y="766"/>
      <point x="311" y="545" type="qcurve" smooth="yes"/>
      <point x="311" y="327"/>
      <point x="429" y="111"/>
    </contour>
  </outline>
</glyph>
<glyph name="eta" format="2">
  <advance width="1239"/>
  <unicode hex="03B7"/>
  <outline>
    <contour>
      <point x="201" y="694" type="line" smooth="yes"/>
      <point x="201" y="743"/>
      <point x="191" y="859"/>
      <point x="176" y="971"/>
      <point x="156" y="1068"/>
      <point x="147" y="1098" type="qcurve"/>
      <point x="262" y="1098" type="line"/>
      <point x="296" y="1056"/>
      <point x="343" y="965"/>
      <point x="360" y="911" type="qcurve"/>
      <point x="373" y="911" type="line"/>
      <point x="395" y="952"/>
      <point x="452" y="1027"/>
      <point x="527" y="1084"/>
      <point x="625" y="1118"/>
      <point x="688" y="1118" type="qcurve" smooth="yes"/>
      <point x="777" y="1118"/>
      <point x="909" y="1071"/>
      <point x="996" y="974"/>
      <point x="1038" y="822"/>
      <point x="1038" y="717" type="qcurve" smooth="yes"/>
      <point x="1038" y="-143" type="line" smooth="yes"/>
      <point x="1038" y="-181"/>
      <point x="1044" y="-284"/>
      <point x="1055" y="-386"/>
      <point x="1069" y="-472"/>
      <point x="1077" y="-492" type="qcurve"/>
      <point x="881" y="-492" type="line"/>
      <point x="872" y="-473"/>
      <point x="858" y="-386"/>
      <point x="850" y="-280"/>
      <point x="846" y="-166"/>
      <point x="846" y="-119" type="qcurve" smooth="yes"/>
      <point x="846" y="727" type="line" smooth="yes"/>
      <point x="846" y="856"/>
      <point x="734" y="987"/>
      <point x="643" y="987" type="qcurve" smooth="yes"/>
      <point x="573" y="987"/>
      <point x="478" y="933"/>
      <point x="419" y="832"/>
      <point x="393" y="687"/>
      <point x="393" y="596" type="qcurve" smooth="yes"/>
      <point x="393" y="0" type="line"/>
      <point x="201" y="0" type="line"/>
    </contour>
  </outline>
</glyph>
<glyph name="upsilon" format="2">
  <advance width="1214"/>
  <unicode hex="03C5"/>
  <outline>
    <contour>
      <point x="629" y="-20" type="qcurve" smooth="yes"/>
      <point x="526" y="-20"/>
      <point x="373" y="38"/>
      <point x="271" y="148"/>
      <point x="221" y="307"/>
      <point x="221" y="408" type="qcurve" smooth="yes"/>
      <point x="221" y="872" type="line" smooth="yes"/>
      <point x="221" y="917"/>
      <point x="191" y="972"/>
      <point x="141" y="1002"/>
      <point x="77" y="1012"/>
      <point x="43" y="1012" type="qcurve" smooth="yes"/>
      <point x="37" y="1012" type="line"/>
      <point x="37" y="1098" type="line"/>
      <point x="414" y="1098" type="line"/>
      <point x="414" y="426" type="line" smooth="yes"/>
      <point x="414" y="271"/>
      <point x="543" y="111"/>
      <point x="662" y="111" type="qcurve" smooth="yes"/>
      <point x="757" y="111"/>
      <point x="878" y="186"/>
      <point x="948" y="319"/>
      <point x="975" y="501"/>
      <point x="975" y="608" type="qcurve" smooth="yes"/>
      <point x="975" y="694"/>
      <point x="940" y="827"/>
      <point x="884" y="921"/>
      <point x="814" y="977"/>
      <point x="780" y="987" type="qcurve"/>
      <point x="780" y="1017"/>
      <point x="799" y="1064"/>
      <point x="832" y="1097"/>
      <point x="875" y="1114"/>
      <point x="899" y="1114" type="qcurve" smooth="yes"/>
      <point x="952" y="1114"/>
      <point x="1029" y="1035"/>
      <point x="1078" y="905"/>
      <point x="1102" y="740"/>
      <point x="1102" y="655" type="qcurve" smooth="yes"/>
      <point x="1102" y="568"/>
      <point x="1084" y="400"/>
      <point x="1040" y="250"/>
      <point x="970" y="124"/>
      <point x="864" y="32"/>
      <point x="722" y="-20"/>
    </contour>
  </outline>
</glyph>
<glyph name="psi" format="2">
  <advance width="1421"/>
  <unicode hex="03C8"/>
  <outline>
    <contour>
      <point x="840" y="115" type="line"/>
      <point x="936" y="128"/>
      <point x="1069" y="210"/>
      <point x="1153" y="335"/>
      <point x="1190" y="498"/>
      <point x="1190" y="592" type="qcurve" smooth="yes"/>
      <point x="1190" y="678"/>
      <point x="1164" y="808"/>
      <point x="1118" y="904"/>
      <point x="1053" y="968"/>
      <point x="1014" y="987" type="qcurve"/>
      <point x="1014" y="1017"/>
      <point x="1033" y="1063"/>
      <point x="1066" y="1094"/>
      <point x="1109" y="1110"/>
      <point x="1133" y="1110" type="qcurve" smooth="yes"/>
      <point x="1214" y="1110"/>
      <point x="1309" y="881"/>
      <point x="1309" y="651" type="qcurve" smooth="yes"/>
      <point x="1309" y="572"/>
      <point x="1290" y="419"/>
      <point x="1247" y="280"/>
      <point x="1175" y="158"/>
      <point x="1071" y="64"/>
      <point x="931" y="0"/>
      <point x="840" y="-12" type="qcurve"/>
      <point x="840" y="-492" type="line"/>
      <point x="717" y="-492" type="line"/>
      <point x="717" y="-20" type="line"/>
      <point x="592" y="-19"/>
      <point x="405" y="40"/>
      <point x="282" y="150"/>
      <point x="221" y="308"/>
      <point x="221" y="408" type="qcurve" smooth="yes"/>
      <point x="221" y="872" type="line" smooth="yes"/>
      <point x="221" y="917"/>
      <point x="191" y="972"/>
      <point x="141" y="1002"/>
      <point x="77" y="1012"/>
      <point x="43" y="1012" type="qcurve" smooth="yes"/>
      <point x="37" y="1012" type="line"/>
      <point x="37" y="1098" type="line"/>
      <point x="414" y="1098" type="line"/>
      <point x="414" y="426" type="line" smooth="yes"/>
      <point x="414" y="280"/>
      <point x="570" y="120"/>
      <point x="717" y="111" type="qcurve"/>
      <point x="717" y="1556" type="line"/>
      <point x="840" y="1556" type="line"/>
    </contour>
  </outline>
</glyph>
<glyph name="Upsilon1" format="2">
  <advance width="1311"/>
  <unicode hex="03D2"/>
  <outline>
    <contour>
      <point x="915" y="86" type="qcurve" smooth="yes"/>
      <point x="963" y="86" type="line"/>
      <point x="963" y="0" type="line"/>
      <point x="326" y="0" type="line"/>
      <point x="326" y="86" type="line"/>
      <point x="373" y="86" type="line" smooth="yes"/>
      <point x="407" y="86"/>
      <point x="468" y="95"/>
      <point x="514" y="123"/>
      <point x="541" y="178"/>
      <point x="541" y="223" type="qcurve" smooth="yes"/>
      <point x="541" y="403" type="line" smooth="yes"/>
      <point x="541" y="465"/>
      <point x="507" y="609"/>
      <point x="453" y="757"/>
      <point x="385" y="903"/>
      <point x="318" y="1033"/>
      <point x="258" y="1138"/>
      <point x="238" y="1171" type="qcurve" smooth="yes"/>
      <point x="215" y="1210"/>
      <point x="162" y="1284"/>
      <point x="102" y="1342"/>
      <point x="35" y="1378"/>
      <point x="-2" y="1378" type="qcurve" smooth="yes"/>
      <point x="-10" y="1378" type="line"/>
      <point x="-10" y="1462" type="line"/>
      <point x="94" y="1462" type="line" smooth="yes"/>
      <point x="164" y="1462"/>
      <point x="266" y="1437"/>
      <point x="350" y="1376"/>
      <point x="423" y="1271"/>
      <point x="465" y="1190" type="qcurve" smooth="yes"/>
      <point x="500" y="1121"/>
      <point x="565" y="980"/>
      <point x="621" y="847"/>
      <point x="667" y="725"/>
      <point x="684" y="674" type="qcurve"/>
      <point x="702" y="742"/>
      <point x="748" y="886"/>
      <point x="797" y="1024"/>
      <point x="846" y="1150"/>
      <point x="868" y="1200" type="qcurve" smooth="yes"/>
      <point x="907" y="1284"/>
      <point x="978" y="1391"/>
      <point x="1051" y="1453"/>
      <point x="1129" y="1477"/>
      <point x="1174" y="1477" type="qcurve" smooth="yes"/>
      <point x="1255" y="1477"/>
      <point x="1335" y="1398"/>
      <point x="1335" y="1335" type="qcurve" smooth="yes"/>
      <point x="1335" y="1306"/>
      <point x="1319" y="1257"/>
      <point x="1292" y="1223"/>
      <point x="1259" y="1204"/>
      <point x="1241" y="1204" type="qcurve"/>
      <point x="1232" y="1249"/>
      <point x="1184" y="1311"/>
      <point x="1137" y="1311" type="qcurve" smooth="yes"/>
      <point x="1111" y="1311"/>
      <point x="1064" y="1291"/>
      <point x="1015" y="1235"/>
      <point x="960" y="1136"/>
      <point x="926" y="1057" type="qcurve" smooth="yes"/>
      <point x="911" y="1023"/>
      <point x="874" y="930"/>
      <point x="834" y="823"/>
      <point x="796" y="706"/>
      <point x="766" y="591"/>
      <point x="748" y="482"/>
      <point x="748" y="436" type="qcurve" smooth="yes"/>
      <point x="748" y="233" type="line" smooth="yes"/>
      <point x="748" y="185"/>
      <point x="774" y="127"/>
      <point x="820" y="96"/>
      <point x="880" y="86"/>
    </contour>
  </outline>
</glyph>
<glyph name="uni03D8" format="2">
  <advance width="1520"/>
  <unicode hex="03D8"/>
  <outline>
    <contour>
      <point x="655" y="272" type="line"/>
      <point x="397" y="298"/>
      <point x="115" y="612"/>
      <point x="115" y="879" type="qcurve" smooth="yes"/>
      <point x="115" y="1165"/>
      <point x="447" y="1485"/>
      <point x="762" y="1485" type="qcurve" smooth="yes"/>
      <point x="1059" y="1485"/>
      <point x="1403" y="1162"/>
      <point x="1403" y="877" type="qcurve" smooth="yes"/>
      <point x="1403" y="622"/>
      <point x="1118" y="300"/>
      <point x="862" y="272" type="qcurve"/>
      <point x="862" y="233" type="line" smooth="yes"/>
      <point x="862" y="160"/>
      <point x="933" y="86"/>
      <point x="1030" y="86" type="qcurve" smooth="yes"/>
      <point x="1057" y="86" type="line"/>
      <point x="1057" y="0" type="line"/>
      <point x="461" y="0" type="line"/>
      <point x="461" y="86" type="line"/>
      <point x="487" y="86" type="line" smooth="yes"/>
      <point x="583" y="86"/>
      <point x="655" y="158"/>
      <point x="655" y="233" type="qcurve" smooth="yes"/>
    </contour>
    <contour>
      <point x="760" y="379" type="qcurve" smooth="yes"/>
      <point x="971" y="379"/>
      <point x="1176" y="619"/>
      <point x="1176" y="877" type="qcurve" smooth="yes"/>
      <point x="1176" y="1135"/>
      <point x="971" y="1374"/>
      <point x="762" y="1374" type="qcurve" smooth="yes"/>
      <point x="552" y="1374"/>
      <point x="342" y="1136"/>
      <point x="342" y="877" type="qcurve" smooth="yes"/>
      <point x="342" y="621"/>
      <point x="548" y="379"/>
    </contour>
  </outline>
</glyph>
<glyph name="uni03E4" format="2">
  <advance width="1444"/>
  <unicode hex="03E4"/>
  <outline>
    <contour>
      <point x="608" y="668" type="qcurve" smooth="yes"/>
      <point x="689" y="668"/>
      <point x="869" y="723"/>
      <point x="965" y="774" type="qcurve"/>
      <point x="965" y="1229" type="line" smooth="yes"/>
      <point x="965" y="1307"/>
      <point x="905" y="1376"/>
      <point x="817" y="1376" type="qcurve" smooth="yes"/>
      <point x="809" y="1376" type="line"/>
      <point x="809" y="1462" type="line"/>
      <point x="1366" y="1462" type="line"/>
      <point x="1366" y="1376" type="line"/>
      <point x="1339" y="1376" type="line" smooth="yes"/>
      <point x="1242" y="1376"/>
      <point x="1171" y="1302"/>
      <point x="1171" y="1229" type="qcurve" smooth="yes"/>
      <point x="1171" y="223" type="line" smooth="yes"/>
      <point x="1171" y="154"/>
      <point x="1242" y="86"/>
      <point x="1339" y="86" type="qcurve" smooth="yes"/>
      <point x="1366" y="86" type="line"/>
      <point x="1366" y="0" type="line"/>
      <point x="770" y="0" type="line"/>
      <point x="770" y="86" type="line"/>
      <point x="797" y="86" type="line" smooth="yes"/>
      <point x="894" y="86"/>
      <point x="965" y="160"/>
      <point x="965" y="233" type="qcurve" smooth="yes"/>
      <point x="965" y="664" type="line"/>
      <point x="859" y="600"/>
      <point x="640" y="537"/>
      <point x="535" y="537" type="qcurve" smooth="yes"/>
      <point x="317" y="537"/>
      <point x="82" y="763"/>
      <point x="82" y="989" type="qcurve" smooth="yes"/>
      <point x="82" y="1220"/>
      <point x="299" y="1483"/>
      <point x="471" y="1483" type="qcurve" smooth="yes"/>
      <point x="613" y="1483"/>
      <point x="760" y="1378"/>
      <point x="760" y="1286" type="qcurve" smooth="yes"/>
      <point x="760" y="1214"/>
      <point x="668" y="1139"/>
      <point x="588" y="1139" type="qcurve"/>
      <point x="588" y="1262"/>
      <point x="535" y="1380"/>
      <point x="459" y="1380" type="qcurve" smooth="yes"/>
      <point x="382" y="1380"/>
      <point x="289" y="1175"/>
      <point x="289" y="991" type="qcurve" smooth="yes"/>
      <point x="289" y="824"/>
      <point x="442" y="668"/>
    </contour>
  </outline>
</glyph>
<glyph name="uni03E8" format="2">
  <advance width="1114"/>
  <unicode hex="03E8"/>
  <outline>
    <contour>
      <point x="991" y="289" type="qcurve"/>
      <point x="1008" y="278"/>
      <point x="1030" y="240"/>
      <point x="1030" y="209" type="qcurve" smooth="yes"/>
      <point x="1030" y="117"/>
      <point x="783" y="-20"/>
      <point x="584" y="-20" type="qcurve" smooth="yes"/>
      <point x="345" y="-20"/>
      <point x="104" y="185"/>
      <point x="104" y="391" type="qcurve" smooth="yes"/>
      <point x="104" y="536"/>
      <point x="287" y="735"/>
      <point x="660" y="884"/>
      <point x="803" y="1021"/>
      <point x="803" y="1147" type="qcurve" smooth="yes"/>
      <point x="803" y="1254"/>
      <point x="674" y="1380"/>
      <point x="551" y="1380" type="qcurve" smooth="yes"/>
      <point x="450" y="1380"/>
      <point x="322" y="1271"/>
      <point x="322" y="1180" type="qcurve" smooth="yes"/>
      <point x="322" y="1136"/>
      <point x="373" y="1090"/>
      <point x="422" y="1090" type="qcurve" smooth="yes"/>
      <point x="453" y="1090" type="line"/>
      <point x="453" y="1073" type="line" smooth="yes"/>
      <point x="453" y="1028"/>
      <point x="383" y="967"/>
      <point x="326" y="967" type="qcurve" smooth="yes"/>
      <point x="241" y="967"/>
      <point x="156" y="1060"/>
      <point x="156" y="1139" type="qcurve" smooth="yes"/>
      <point x="156" y="1300"/>
      <point x="383" y="1483"/>
      <point x="565" y="1483" type="qcurve" smooth="yes"/>
      <point x="766" y="1483"/>
      <point x="993" y="1278"/>
      <point x="993" y="1112" type="qcurve" smooth="yes"/>
      <point x="993" y="949"/>
      <point x="813" y="738"/>
      <point x="446" y="589"/>
      <point x="299" y="454"/>
      <point x="299" y="338" type="qcurve" smooth="yes"/>
      <point x="299" y="221"/>
      <point x="446" y="106"/>
      <point x="592" y="106" type="qcurve" smooth="yes"/>
      <point x="723" y="106"/>
      <point x="929" y="206"/>
    </contour>
  </outline>
</glyph>
<glyph name="uni03E9" format="2">
  <advance width="995"/>
  <unicode hex="03E9"/>
  <outline>
    <contour>
      <point x="367" y="764" type="qcurve"/>
      <point x="367" y="713"/>
      <point x="314" y="653"/>
      <point x="254" y="653" type="qcurve" smooth="yes"/>
      <point x="186" y="653"/>
      <point x="106" y="747"/>
      <point x="106" y="825" type="qcurve" smooth="yes"/>
      <point x="106" y="939"/>
      <point x="323" y="1116"/>
      <point x="487" y="1116" type="qcurve" smooth="yes"/>
      <point x="664" y="1116"/>
      <point x="885" y="924"/>
      <point x="885" y="760" type="qcurve" smooth="yes"/>
      <point x="885" y="603"/>
      <point x="733" y="404"/>
      <point x="332" y="195"/>
      <point x="207" y="34"/>
      <point x="207" y="-76" type="qcurve" smooth="yes"/>
      <point x="207" y="-207"/>
      <point x="377" y="-369"/>
      <point x="512" y="-369" type="qcurve" smooth="yes"/>
      <point x="636" y="-369"/>
      <point x="827" y="-267"/>
      <point x="885" y="-174" type="qcurve"/>
      <point x="900" y="-186"/>
      <point x="922" y="-226"/>
      <point x="922" y="-254" type="qcurve" smooth="yes"/>
      <point x="922" y="-354"/>
      <point x="692" y="-492"/>
      <point x="514" y="-492" type="qcurve" smooth="yes"/>
      <point x="292" y="-492"/>
      <point x="41" y="-250"/>
      <point x="41" y="-20" type="qcurve" smooth="yes"/>
      <point x="41" y="101"/>
      <point x="147" y="276"/>
      <point x="325" y="404"/>
      <point x="612" y="554"/>
      <point x="719" y="693"/>
      <point x="719" y="797" type="qcurve" smooth="yes"/>
      <point x="719" y="900"/>
      <point x="596" y="1022"/>
      <point x="483" y="1022" type="qcurve" smooth="yes"/>
      <point x="387" y="1022"/>
      <point x="272" y="925"/>
      <point x="272" y="852" type="qcurve" smooth="yes"/>
      <point x="272" y="810"/>
      <point x="316" y="764"/>
    </contour>
  </outline>
</glyph>
<glyph name="uni03EB" format="2">
  <advance width="1161"/>
  <unicode hex="03EB"/>
  <outline>
    <contour>
      <point x="86" y="0" type="line"/>
      <point x="86" y="92" type="line"/>
      <point x="481" y="764" type="line"/>
      <point x="406" y="912"/>
      <point x="327" y="1012"/>
      <point x="285" y="1012" type="qcurve" smooth="yes"/>
      <point x="254" y="1012"/>
      <point x="215" y="949"/>
      <point x="215" y="887" type="qcurve"/>
      <point x="146" y="893"/>
      <point x="86" y="954"/>
      <point x="86" y="997" type="qcurve" smooth="yes"/>
      <point x="86" y="1049"/>
      <point x="188" y="1118"/>
      <point x="270" y="1118" type="qcurve" smooth="yes"/>
      <point x="380" y="1118"/>
      <point x="509" y="1035"/>
      <point x="584" y="922" type="qcurve"/>
      <point x="658" y="1028"/>
      <point x="798" y="1118"/>
      <point x="893" y="1118" type="qcurve" smooth="yes"/>
      <point x="962" y="1118"/>
      <point x="1042" y="1049"/>
      <point x="1042" y="997" type="qcurve" smooth="yes"/>
      <point x="1042" y="955"/>
      <point x="985" y="893"/>
      <point x="913" y="887" type="qcurve"/>
      <point x="913" y="949"/>
      <point x="880" y="1012"/>
      <point x="842" y="1012" type="qcurve" smooth="yes"/>
      <point x="795" y="1012"/>
      <point x="701" y="924"/>
      <point x="639" y="829" type="qcurve"/>
      <point x="1063" y="92" type="line"/>
      <point x="1063" y="0" type="line"/>
    </contour>
    <contour>
      <point x="827" y="129" type="line"/>
      <point x="539" y="651" type="line"/>
      <point x="238" y="129" type="line"/>
    </contour>
  </outline>
</glyph>
<glyph name="uni03ED" format="2">
  <advance width="1190"/>
  <unicode hex="03ED"/>
  <outline>
    <contour>
      <point x="438" y="627" type="qcurve"/>
      <point x="420" y="641"/>
      <point x="406" y="668"/>
      <point x="406" y="696" type="qcurve" smooth="yes"/>
      <point x="406" y="740"/>
      <point x="523" y="788"/>
      <point x="637" y="795" type="qcurve"/>
      <point x="844" y="793"/>
      <point x="1067" y="579"/>
      <point x="1067" y="389" type="qcurve" smooth="yes"/>
      <point x="1067" y="200"/>
      <point x="810" y="-20"/>
      <point x="584" y="-20" type="qcurve" smooth="yes"/>
      <point x="350" y="-20"/>
      <point x="113" y="223"/>
      <point x="113" y="487" type="qcurve" smooth="yes"/>
      <point x="113" y="752"/>
      <point x="445" y="1073"/>
      <point x="692" y="1073" type="qcurve" smooth="yes"/>
      <point x="837" y="1073"/>
      <point x="959" y="1097"/>
      <point x="975" y="1139" type="qcurve"/>
      <point x="1040" y="1139" type="line"/>
      <point x="1036" y="1010"/>
      <point x="929" y="889"/>
      <point x="819" y="889" type="qcurve" smooth="yes"/>
      <point x="731" y="889"/>
      <point x="568" y="952"/>
      <point x="530" y="952" type="qcurve" smooth="yes"/>
      <point x="425" y="952"/>
      <point x="309" y="715"/>
      <point x="309" y="489" type="qcurve" smooth="yes"/>
      <point x="309" y="273"/>
      <point x="432" y="86"/>
      <point x="584" y="86" type="qcurve" smooth="yes"/>
      <point x="730" y="86"/>
      <point x="870" y="228"/>
      <point x="870" y="389" type="qcurve" smooth="yes"/>
      <point x="870" y="545"/>
      <point x="742" y="688"/>
      <point x="612" y="688" type="qcurve" smooth="yes"/>
      <point x="529" y="688"/>
      <point x="444" y="651"/>
    </contour>
    <contour>
      <point x="356" y="1098" type="line"/>
    </contour>
  </outline>
</glyph>
